{"glyphs":{"0":{"ha":864,"x_min":0,"x_max":0,"o":"m 742 476 l 713 476 l 713 288 b 479 63 713 157 613 63 l 479 33 b 742 288 621 33 742 146 z m 540 479 b 492 528 540 507 519 528 b 444 479 465 528 444 506 b 492 432 444 453 464 432 b 540 479 519 432 540 453 z m 776 288 b 489 0 776 132 649 0 b 203 288 329 0 203 131 l 203 479 b 489 765 203 638 331 765 b 776 479 647 765 776 636 z m 833 479 b 669 772 833 600 774 715 b 375 938 610 878 496 938 b 31 593 183 938 31 783 l 31 401 b 194 108 31 278 90 165 b 489 -57 254 3 365 -57 b 833 288 679 -57 833 96 z "},"1":{"ha":601,"x_min":0,"x_max":0,"o":"m 469 33 l 469 203 l 440 203 l 440 63 l 288 63 l 288 33 z m 501 0 l 214 0 l 214 585 l 501 765 z m 558 -57 l 558 869 l 444 799 l 444 985 l 42 732 l 42 57 l 157 57 l 157 -57 z "},"2":{"ha":811,"x_min":0,"x_max":0,"o":"m 774 -57 l 774 315 l 704 315 b 774 513 750 372 774 438 b 618 782 774 624 714 725 b 349 938 561 878 460 938 b 85 806 260 938 172 893 l 232 658 b 38 369 115 611 38 497 l 38 57 l 151 57 l 151 -57 z m 717 0 l 210 0 l 210 254 b 463 508 210 397 322 508 l 281 690 b 463 765 329 740 390 765 b 717 513 603 765 717 651 b 472 258 717 374 607 261 l 717 258 z m 686 33 l 686 203 l 657 203 l 657 63 l 504 63 l 504 33 z m 657 508 b 496 322 647 418 586 349 l 511 299 b 685 511 607 332 675 411 z "},"3":{"ha":804,"x_min":0,"x_max":0,"o":"m 679 476 l 651 476 l 651 288 b 419 63 651 160 551 63 l 419 33 b 679 288 558 33 679 147 z m 717 288 b 429 0 717 132 589 0 b 226 83 350 0 282 28 l 429 288 l 226 288 l 226 479 l 429 479 l 226 682 b 429 765 282 738 350 765 b 717 479 588 765 717 636 z m 774 479 b 608 772 774 600 714 715 b 315 938 551 878 439 938 b 31 797 219 938 124 890 l 176 651 l 54 651 l 54 344 l 168 344 l 168 338 l 31 199 b 160 99 74 154 117 121 l 144 83 b 429 -57 239 -10 333 -57 b 774 288 619 -57 774 96 z "},"4":{"ha":954,"x_min":0,"x_max":0,"o":"m 744 33 l 744 203 l 715 203 l 715 63 l 563 63 l 563 33 z m 497 519 b 450 567 497 547 478 567 b 401 519 422 567 401 547 b 450 471 401 492 422 471 b 497 519 478 471 497 492 z m 869 288 l 774 288 l 774 0 l 488 0 l 488 288 l 200 288 l 200 479 l 488 765 l 774 765 l 774 479 l 869 479 z m 928 229 l 928 536 l 832 536 l 832 824 l 717 824 l 717 938 l 349 938 l 28 618 l 28 344 l 143 344 l 143 229 l 315 229 l 315 57 l 429 57 l 429 -57 l 832 -57 l 832 229 z "},"5":{"ha":790,"x_min":0,"x_max":0,"o":"m 764 254 b 696 451 764 329 742 394 l 750 451 l 750 824 l 635 824 l 635 938 l 26 938 l 26 626 b 183 357 26 515 85 414 b 206 322 190 344 199 333 l 74 190 b 203 90 114 146 157 113 l 189 75 b 453 -57 268 -12 357 -57 b 764 254 628 -57 764 85 z m 707 254 b 453 0 707 117 594 0 b 268 74 374 0 311 25 l 453 258 b 199 513 311 258 199 371 l 199 765 l 693 765 l 693 508 l 463 508 b 707 254 596 503 707 390 z m 643 249 b 453 63 643 143 551 63 l 453 33 b 671 249 576 33 671 129 z m 657 546 l 657 713 l 628 713 l 628 574 l 475 574 l 475 546 z "},"6":{"ha":774,"x_min":0,"x_max":0,"o":"m 626 249 b 436 63 626 140 533 63 l 436 33 b 656 249 560 33 656 126 z m 492 254 b 444 303 492 282 471 303 b 396 254 418 303 396 281 b 444 207 396 228 417 207 b 492 254 471 207 492 228 z m 704 254 b 444 0 704 113 583 0 b 185 254 304 0 185 113 l 185 765 l 444 765 l 444 508 b 704 254 583 508 704 394 z m 761 254 b 606 522 761 367 701 465 b 501 631 579 567 544 603 l 501 824 l 386 824 l 386 938 l 13 938 l 13 369 b 168 100 13 258 72 157 b 444 -57 225 4 329 -57 b 761 254 619 -57 761 81 z "},"7":{"ha":883,"x_min":0,"x_max":0,"o":"m 808 725 l 774 725 l 428 54 l 292 54 l 292 25 l 446 25 z m 868 765 l 486 0 l 199 0 l 486 574 l 199 574 l 199 765 z m 963 824 l 790 824 l 847 938 l 26 938 l 26 632 l 142 632 l 142 517 l 221 517 l -8 57 l 164 57 l 107 -57 l 522 -57 z "},"8":{"ha":844,"x_min":0,"x_max":0,"o":"m 700 288 b 488 63 700 178 576 63 l 488 33 b 729 288 611 33 729 169 z m 535 290 b 488 339 535 318 514 339 b 439 290 461 339 439 317 b 488 243 439 264 460 243 b 535 290 514 243 535 264 z m 528 597 b 479 644 528 624 506 644 b 432 597 453 644 432 625 b 479 549 432 569 453 549 b 528 597 507 549 528 569 z m 767 288 b 479 0 767 131 642 0 b 193 288 319 0 193 131 b 299 511 193 379 228 454 b 289 574 292 531 289 551 b 479 765 289 678 376 765 b 671 574 582 765 671 676 b 661 511 671 551 668 531 b 767 288 732 454 767 379 z m 825 288 b 725 531 825 381 792 463 b 729 574 728 544 729 558 b 589 799 729 669 674 754 b 365 938 546 883 460 938 b 117 689 226 938 117 828 b 119 644 117 674 118 660 b 21 401 54 576 21 494 b 186 108 21 278 81 165 b 479 -57 243 3 356 -57 b 825 288 671 -57 825 97 z "},"9":{"ha":815,"x_min":0,"x_max":0,"o":"m 697 33 l 697 203 l 669 203 l 669 63 l 515 63 l 515 33 z m 510 511 b 463 558 510 538 489 558 b 414 511 435 558 414 538 b 463 463 414 483 435 463 b 510 511 489 463 510 483 z m 724 0 l 465 0 l 465 257 b 206 511 325 257 206 365 b 465 765 206 656 324 765 b 724 511 606 765 724 653 z m 782 -57 l 782 511 b 626 781 782 622 722 725 b 350 938 569 876 465 938 b 33 626 178 938 33 801 b 189 358 33 515 93 415 b 293 250 214 313 249 276 l 293 57 l 408 57 l 408 -57 z "},"\u0017":{"ha":315,"x_min":0,"x_max":0,"o":""}," ":{"ha":315,"x_min":0,"x_max":0,"o":""},"!":{"ha":596,"x_min":0,"x_max":0,"o":"m 475 340 l 475 461 l 446 461 l 446 368 l 358 368 l 358 340 z m 356 125 l 468 69 b 356 0 446 24 408 0 b 229 125 288 0 229 58 b 356 251 229 194 288 251 b 468 182 408 251 446 228 z m 499 308 l 211 308 l 211 765 l 499 765 z m 557 251 l 557 824 l 442 824 l 442 938 l 39 938 l 39 367 l 108 367 b 57 240 74 332 57 290 b 182 67 57 163 106 93 b 356 -57 208 -10 278 -57 b 546 94 432 -57 494 -7 l 485 125 l 546 157 b 482 251 525 196 504 229 z "},"\"":{"ha":908,"x_min":0,"x_max":0,"o":"m 429 622 b 385 553 429 585 414 563 l 385 514 b 458 622 433 525 458 561 z m 758 622 b 713 553 758 585 743 563 l 713 514 b 788 622 763 525 788 561 z m 494 622 b 350 479 494 543 429 479 l 350 622 l 207 622 b 350 765 207 701 271 765 b 494 622 429 765 494 701 z m 815 622 b 671 479 815 543 750 479 l 671 622 l 528 622 b 671 765 528 701 592 765 b 815 622 750 765 815 701 z m 872 622 b 744 810 872 706 822 781 b 557 938 713 888 639 938 b 401 853 490 938 439 910 b 236 938 361 910 306 938 b 35 679 110 938 35 825 l 168 679 b 150 565 156 644 150 606 l 178 565 l 178 536 b 293 553 219 536 258 542 l 293 421 b 532 538 414 421 493 460 b 614 553 563 539 590 544 l 614 421 b 872 622 764 421 872 497 z "},"#":{"ha":978,"x_min":0,"x_max":0,"o":"m 585 288 l 585 390 l 497 390 l 497 288 z m 863 124 l 863 242 l 833 242 l 833 151 l 721 151 l 721 71 l 643 71 l 643 42 l 750 42 l 750 124 z m 853 418 l 853 539 l 825 539 l 825 446 l 736 446 l 736 418 z m 881 96 l 785 96 l 785 0 l 585 0 l 585 96 l 497 96 l 497 0 l 307 0 l 307 96 l 211 96 l 211 288 l 307 288 l 307 390 l 211 390 l 211 574 l 307 574 l 307 669 l 497 669 l 497 574 l 585 574 l 585 669 l 785 669 l 785 574 l 881 574 l 881 390 l 785 390 l 785 288 l 881 288 z m 938 39 l 938 632 l 842 632 l 842 728 l 824 728 l 824 747 l 728 747 l 728 842 l 133 842 l 133 747 l 39 747 l 39 153 l 133 153 l 133 57 l 153 57 l 153 39 l 249 39 l 249 -57 l 842 -57 l 842 39 z "},"$":{"ha":667,"x_min":0,"x_max":0,"o":"m 526 310 b 533 271 531 296 533 283 b 386 133 533 200 461 139 l 388 106 b 563 272 469 111 563 186 b 553 321 563 288 560 304 z m 593 279 b 428 79 593 176 519 99 l 428 3 l 351 3 l 351 79 b 243 133 306 86 269 104 l 390 282 b 188 486 276 282 188 372 b 351 686 188 583 258 667 l 351 764 l 428 764 l 428 686 b 536 628 469 676 506 657 l 390 482 b 593 279 500 482 593 389 z m 651 279 b 508 513 651 379 596 467 l 506 517 l 618 628 b 488 728 564 682 521 715 l 503 743 l 486 758 l 486 822 l 411 822 b 371 842 399 829 386 838 l 371 938 l 179 938 l 179 842 b 15 600 82 804 15 707 b 158 367 15 500 69 413 l 160 363 l 49 251 b 178 151 94 197 138 164 l 164 136 b 179 118 169 131 175 125 l 179 60 l 246 60 b 294 36 258 50 275 43 l 294 -56 l 486 -56 l 486 38 b 651 279 583 75 651 169 z "},"%":{"ha":1042,"x_min":0,"x_max":0,"o":"m 864 733 l 829 733 l 400 49 l 304 49 l 304 22 l 419 22 z m 817 125 l 929 69 b 817 0 907 24 869 0 b 692 125 750 0 692 58 b 817 251 692 194 750 251 b 931 182 871 251 908 228 z m 913 765 l 435 0 l 243 0 l 721 765 z m 372 640 l 485 583 b 372 514 463 538 425 514 b 246 640 300 514 246 568 b 372 765 246 710 304 765 b 485 696 425 765 463 742 z m 1017 824 l 831 824 l 903 938 l 575 938 l 479 783 b 257 938 376 867 353 938 b 74 756 160 938 74 856 b 199 582 74 674 122 606 b 288 478 214 536 243 501 l 25 57 l 211 57 l 140 -57 l 467 -57 l 572 113 b 643 67 593 92 617 76 b 817 -57 669 -10 739 -57 b 1007 94 893 -57 956 -7 l 946 125 l 1007 157 b 878 299 971 232 928 279 b 761 414 843 358 804 397 z "},"&":{"ha":771,"x_min":0,"x_max":0,"o":"m 439 232 l 425 207 l 589 119 b 444 58 579 92 504 58 b 363 81 424 58 396 65 l 351 54 b 444 31 390 39 421 31 b 635 135 508 31 635 89 z m 624 385 l 604 406 l 425 310 l 440 285 z m 446 254 l 674 140 b 446 0 631 53 542 0 b 192 254 304 0 192 113 b 336 482 192 350 249 440 b 285 600 301 514 285 554 b 446 763 285 690 361 763 b 592 674 513 763 561 733 l 446 600 l 592 529 b 557 483 582 513 571 497 b 674 367 610 457 649 418 z m 751 342 b 639 500 714 419 676 472 l 668 554 l 574 600 l 668 647 b 531 801 629 725 583 776 b 332 935 479 890 413 935 b 113 715 213 935 113 836 b 139 613 113 679 121 644 b 19 368 60 550 19 468 b 176 99 19 257 78 156 b 446 -57 232 3 335 -57 b 750 167 575 -57 676 18 l 611 236 b 635 281 621 251 629 267 l 632 282 z "},"'":{"ha":588,"x_min":0,"x_max":0,"o":"m 429 622 b 385 553 429 585 414 563 l 385 514 b 458 622 433 525 458 561 z m 494 622 b 350 479 494 543 429 479 l 350 622 l 207 622 b 350 765 207 701 271 765 b 494 622 429 765 494 701 z m 551 622 b 424 810 551 706 501 781 b 236 938 394 888 319 938 b 35 679 110 938 35 825 l 168 679 b 150 565 156 644 150 606 l 178 565 l 178 536 b 293 553 219 536 258 542 l 293 421 b 551 622 443 421 551 497 z "},"(":{"ha":465,"x_min":0,"x_max":0,"o":"m 318 111 b 207 383 244 185 207 276 b 350 681 207 489 254 621 l 350 82 b 318 111 338 92 328 101 z m 350 6 l 358 6 b 406 -18 375 -1 389 -11 l 406 932 b 35 497 192 900 35 707 b 226 133 35 349 106 217 b 350 13 258 83 301 44 z "},")":{"ha":575,"x_min":0,"x_max":0,"o":"m 425 383 b 326 158 425 299 392 224 b 301 133 319 149 308 143 l 301 713 b 488 383 421 646 488 515 b 301 53 488 249 424 128 l 301 93 b 453 383 401 163 453 272 z m 83 11 b 247 101 151 28 207 58 l 247 -35 b 544 383 429 29 544 199 b 83 929 544 583 475 732 z "},"*":{"ha":521,"x_min":0,"x_max":0,"o":"m 199 311 l 165 344 l 35 215 l 69 182 z m 285 106 l 285 271 l 238 271 l 238 106 z m 199 428 l 69 557 l 35 522 l 165 393 z m 486 215 l 358 344 l 324 311 l 451 182 z m 285 468 l 285 635 l 238 635 l 238 468 z m 486 522 l 453 557 l 322 428 l 357 393 z "},"+":{"ha":924,"x_min":0,"x_max":0,"o":"m 551 396 l 788 396 l 788 464 l 758 464 l 758 425 l 522 425 l 522 171 l 483 171 l 483 142 l 551 142 z m 642 306 l 878 306 l 878 551 l 763 551 l 763 667 l 642 667 l 642 769 l 528 769 l 528 883 l 281 883 l 281 667 l 46 667 l 46 419 l 160 419 l 160 306 l 281 306 l 281 167 l 396 167 l 396 51 l 642 51 z m 453 110 l 453 363 l 218 363 l 218 494 l 453 494 l 453 711 l 585 711 l 585 494 l 819 494 l 819 363 l 585 363 l 585 110 z "},",":{"ha":583,"x_min":0,"x_max":0,"o":"m 428 139 b 385 67 428 99 414 75 l 385 39 b 461 126 421 39 461 94 b 460 139 461 132 461 136 z m 492 143 b 349 0 492 64 428 0 l 349 143 l 204 143 b 349 288 204 222 269 288 b 492 143 428 288 492 222 z m 549 143 b 421 332 549 226 499 300 b 233 460 392 408 317 460 b 32 201 110 460 32 351 l 164 201 b 147 86 153 165 147 126 l 176 86 l 176 57 b 290 74 217 57 256 63 l 290 -57 b 549 143 443 -57 549 19 z "},"-":{"ha":771,"x_min":0,"x_max":0,"o":"m 649 396 l 649 464 l 619 464 l 619 425 l 290 425 l 290 396 z m 681 363 l 218 363 l 218 494 l 681 494 z m 739 306 l 739 551 l 624 551 l 624 667 l 46 667 l 46 419 l 160 419 l 160 306 z "},".":{"ha":583,"x_min":0,"x_max":0,"o":"m 425 133 b 381 64 425 96 410 74 l 381 36 b 453 133 429 49 453 81 z m 493 143 b 350 0 493 64 429 0 b 206 143 268 0 206 64 b 350 288 206 222 268 288 b 493 143 429 288 493 222 z m 550 143 b 422 332 550 226 500 300 b 235 460 390 408 318 460 b 33 258 126 460 33 371 b 163 71 33 175 85 100 b 350 -57 194 -7 267 -57 b 550 143 460 -57 550 32 z "},"/":{"ha":996,"x_min":0,"x_max":0,"o":"m 835 735 l 806 735 l 378 56 l 278 56 l 278 24 l 393 24 z m 890 765 l 411 0 l 221 0 l 699 765 z m 993 824 l 807 824 l 878 938 l 551 938 l 1 57 l 188 57 l 117 -57 l 443 -57 z "},":":{"ha":588,"x_min":0,"x_max":0,"o":"m 440 143 b 351 63 440 97 400 63 l 351 33 b 469 143 417 33 469 81 z m 440 524 b 351 443 440 475 400 443 l 351 414 b 469 524 414 414 469 463 z m 496 143 b 351 0 496 64 431 0 b 208 143 272 0 208 64 b 351 288 208 222 272 288 b 496 143 431 288 496 222 z m 496 526 b 351 383 496 447 431 383 b 208 526 272 383 208 447 b 351 669 208 606 272 669 b 496 526 431 669 496 606 z m 553 143 b 424 332 553 226 501 300 b 421 338 421 335 424 335 b 553 526 503 365 553 442 b 424 714 553 610 501 685 b 238 842 394 792 319 842 b 36 642 125 842 36 751 b 164 453 36 558 86 485 b 167 447 167 450 164 450 b 36 258 89 419 36 346 b 164 71 36 175 86 100 b 351 -57 193 -7 268 -57 b 553 143 464 -57 553 33 z "},";":{"ha":586,"x_min":0,"x_max":0,"o":"m 440 143 b 392 74 440 124 413 74 l 392 46 b 469 143 435 56 469 99 z m 440 524 b 350 443 440 475 400 443 l 350 414 b 469 524 413 414 469 464 z m 494 143 b 350 0 494 64 429 0 l 350 143 l 207 143 b 350 288 207 222 271 288 b 494 143 429 288 494 222 z m 494 526 b 350 383 494 447 429 383 b 207 526 271 383 207 447 b 350 669 207 606 271 669 b 494 526 429 669 494 606 z m 551 143 b 424 332 551 226 500 299 l 419 338 b 551 526 501 365 551 442 b 424 714 551 610 500 682 b 236 842 392 792 319 842 b 35 642 124 842 35 751 b 163 453 35 558 86 486 l 167 446 b 35 201 79 411 35 329 l 167 201 b 150 86 156 165 150 126 l 178 86 l 178 57 b 293 74 218 57 257 63 l 293 -57 b 551 143 446 -57 551 19 z "},"<":{"ha":583,"x_min":0,"x_max":0,"o":"m 454 533 l 454 299 l 268 417 z m 85 561 l 242 457 l 181 418 l 497 210 l 497 625 l 401 561 l 401 768 z "},"=":{"ha":771,"x_min":0,"x_max":0,"o":"m 649 492 l 649 560 l 619 560 l 619 521 l 290 521 l 290 492 z m 649 253 l 649 321 l 619 321 l 619 281 l 290 281 l 290 253 z m 681 458 l 218 458 l 218 590 l 681 590 z m 681 219 l 218 219 l 218 350 l 681 350 z m 739 161 l 739 647 l 624 647 l 624 763 l 46 763 l 46 276 l 160 276 l 160 161 z "},">":{"ha":531,"x_min":0,"x_max":0,"o":"m 231 529 l 414 411 l 231 303 z m 400 558 l 83 767 l 83 351 l 179 414 l 179 208 l 496 415 l 339 518 z "},"?":{"ha":779,"x_min":0,"x_max":0,"o":"m 629 513 b 443 325 629 406 540 325 l 443 297 b 658 513 565 297 658 390 z m 443 125 l 556 69 b 443 0 533 24 496 0 b 317 125 375 0 317 58 b 443 251 317 194 375 251 b 557 182 496 251 533 228 z m 697 513 b 443 258 697 371 585 258 b 215 399 347 258 258 311 l 443 513 l 215 626 b 443 767 256 714 344 767 b 697 513 582 767 697 651 z m 756 513 b 599 782 756 622 693 725 b 328 939 542 881 439 939 b 24 715 199 939 97 864 l 163 646 b 139 600 156 631 146 617 l 143 599 l 24 539 b 176 358 65 456 117 396 l 182 350 b 144 240 157 318 144 282 b 269 67 144 163 192 93 b 443 -57 296 -6 365 -57 b 633 94 519 -57 582 -7 l 572 125 l 633 157 b 585 235 617 186 603 213 b 756 513 690 289 756 392 z "},"@":{"ha":1000,"x_min":0,"x_max":0,"o":"m 878 244 b 558 -79 878 76 722 -79 l 558 -108 b 907 244 749 -108 907 57 z m 940 244 b 558 -139 940 35 769 -139 b 175 244 344 -139 175 31 b 558 626 175 451 349 626 b 940 244 769 626 940 456 z m 999 244 b 807 608 999 393 928 526 b 443 799 724 729 592 799 b 3 358 203 799 3 599 b 194 -6 3 210 74 78 b 558 -196 276 -126 408 -196 b 999 244 800 -196 999 3 z m 676 208 b 633 136 676 168 663 144 l 633 108 b 710 196 669 108 710 164 b 708 208 710 201 710 206 z m 740 213 b 597 69 740 133 676 69 l 597 213 l 453 213 b 597 357 453 292 518 357 b 740 213 676 357 740 292 z m 797 213 b 669 401 797 296 747 369 b 482 529 640 478 565 529 b 281 271 358 529 281 421 l 413 271 b 396 156 401 235 396 196 l 425 156 l 425 126 b 539 143 465 126 504 132 l 539 13 b 797 213 692 13 797 89 z "},"A":{"ha":969,"x_min":0,"x_max":0,"o":"m 610 290 b 563 339 610 317 589 339 b 514 290 536 339 514 318 b 563 243 514 264 535 243 b 610 290 590 243 610 264 z m 882 43 l 799 211 l 772 199 l 836 72 l 708 72 l 708 43 z m 960 0 l 194 0 l 576 765 z m 1051 -57 l 576 894 l 549 836 l 463 1008 l -14 57 l 158 57 l 100 -57 z "},"B":{"ha":893,"x_min":0,"x_max":0,"o":"m 732 221 b 553 63 732 139 629 63 l 553 33 b 761 221 660 33 761 113 z m 638 221 b 590 268 638 247 617 268 b 542 221 563 268 542 247 b 590 172 542 193 563 172 b 638 221 617 172 638 193 z m 638 546 b 590 593 638 572 617 593 b 542 546 563 593 542 572 b 590 497 542 518 563 497 b 638 546 617 497 638 518 z m 800 221 b 590 0 800 106 707 0 l 207 0 l 207 765 l 590 765 b 800 546 700 765 800 665 b 729 383 800 482 776 428 b 800 221 776 338 800 283 z m 858 221 b 807 383 858 281 842 335 b 858 546 842 429 858 483 b 710 792 858 650 808 732 b 475 938 654 888 563 938 l 35 938 l 35 57 l 150 57 l 150 -57 l 590 -57 b 858 221 738 -57 858 74 z "},"C":{"ha":996,"x_min":0,"x_max":0,"o":"m 532 357 l 519 331 l 799 183 b 703 100 765 149 735 121 l 718 75 b 847 193 763 107 779 114 z m 558 383 l 901 211 b 558 0 839 89 707 0 b 176 383 346 0 176 171 b 558 765 176 592 349 765 b 901 554 707 765 836 688 z m 979 529 b 801 747 933 625 874 697 b 444 938 708 874 589 938 b 3 497 204 938 3 739 b 194 133 3 349 74 217 b 558 -57 276 15 413 -57 b 978 238 740 -57 879 42 l 839 307 b 863 351 846 322 856 336 l 744 411 z "},"D":{"ha":988,"x_min":0,"x_max":0,"o":"m 903 383 b 582 60 903 214 740 60 l 582 31 b 931 383 772 31 931 196 z m 629 383 b 582 431 629 410 608 431 b 533 383 554 431 533 410 b 582 335 533 356 554 335 b 629 383 608 335 629 356 z m 964 383 b 582 0 964 174 793 0 l 199 0 l 199 765 l 582 765 b 964 383 793 765 964 594 z m 1022 383 b 831 747 1022 532 951 665 b 467 938 747 868 615 938 l 26 938 l 26 57 l 142 57 l 142 -57 l 582 -57 b 1022 383 824 -57 1022 142 z "},"E":{"ha":893,"x_min":0,"x_max":0,"o":"m 758 33 l 758 203 l 729 203 l 729 63 l 576 63 l 576 33 z m 758 510 l 758 678 l 729 678 l 729 539 l 576 539 l 576 510 z m 790 0 l 217 0 l 217 765 l 790 765 l 790 479 l 539 479 l 539 443 l 658 443 l 658 324 l 539 324 l 539 288 l 790 288 z m 849 -57 l 849 344 l 733 344 l 733 421 l 849 421 l 849 824 l 733 824 l 733 938 l 44 938 l 44 57 l 160 57 l 160 -57 z "},"F":{"ha":853,"x_min":0,"x_max":0,"o":"m 450 33 l 450 203 l 421 203 l 421 63 l 268 63 l 268 33 z m 742 510 l 742 678 l 713 678 l 713 539 l 558 539 l 558 510 z m 771 479 l 483 479 l 483 439 l 639 439 l 639 288 l 483 288 l 483 0 l 196 0 l 196 765 l 771 765 z m 828 421 l 828 824 l 713 824 l 713 938 l 24 938 l 24 57 l 139 57 l 139 -57 l 540 -57 l 540 229 l 696 229 l 696 421 z "},"G":{"ha":988,"x_min":0,"x_max":0,"o":"m 907 33 l 907 203 l 879 203 l 879 63 l 725 63 l 725 33 z m 768 642 l 749 661 l 508 421 l 528 401 z m 940 0 l 558 0 b 175 383 344 0 175 169 b 558 765 175 590 349 765 b 829 654 665 765 756 728 l 558 383 l 940 383 z m 999 -57 l 999 440 l 883 440 l 883 556 l 811 556 l 911 654 b 785 757 868 697 825 733 l 796 769 b 443 938 683 882 567 938 b 3 497 203 938 3 738 b 194 133 3 349 74 217 b 558 -57 278 15 410 -57 z "},"H":{"ha":1049,"x_min":0,"x_max":0,"o":"m 467 33 l 467 203 l 438 203 l 438 63 l 285 63 l 285 33 z m 914 33 l 914 203 l 885 203 l 885 63 l 732 63 l 732 33 z m 946 0 l 661 0 l 661 288 l 506 288 l 506 0 l 219 0 l 219 765 l 506 765 l 506 479 l 661 479 l 661 765 l 946 765 z m 1004 -57 l 1004 824 l 928 824 l 928 938 l 488 938 l 488 824 l 449 824 l 449 938 l 47 938 l 47 57 l 161 57 l 161 -57 l 564 -57 l 564 57 l 603 57 l 603 -57 z "},"I":{"ha":608,"x_min":0,"x_max":0,"o":"m 472 33 l 472 203 l 444 203 l 444 63 l 290 63 l 290 33 z m 506 0 l 218 0 l 218 765 l 506 765 z m 563 -57 l 563 824 l 447 824 l 447 938 l 46 938 l 46 57 l 160 57 l 160 -57 z "},"J":{"ha":825,"x_min":0,"x_max":0,"o":"m 675 288 b 444 57 675 176 558 57 l 444 29 b 704 288 582 29 704 151 z m 732 288 b 444 0 732 131 607 0 b 158 288 285 0 158 131 l 444 288 l 444 765 l 732 765 z m 790 824 l 675 824 l 675 938 l 272 938 l 272 460 l -14 460 b 163 103 -14 308 47 169 b 444 -57 229 -4 324 -57 b 790 288 636 -57 790 97 z "},"K":{"ha":954,"x_min":0,"x_max":0,"o":"m 749 43 l 596 199 l 554 199 l 681 72 l 569 72 l 569 43 z m 854 765 l 471 383 l 853 0 l 185 0 l 185 765 z m 992 824 l 763 824 l 876 938 l 13 938 l 13 57 l 126 57 l 126 -57 l 990 -57 l 551 383 z "},"L":{"ha":824,"x_min":0,"x_max":0,"o":"m 726 33 l 726 203 l 697 203 l 697 63 l 544 63 l 544 33 z m 761 0 l 186 0 l 186 765 l 474 765 l 474 228 l 761 228 z m 818 -57 l 818 285 l 704 285 l 704 400 l 531 400 l 531 824 l 417 824 l 417 938 l 14 938 l 14 57 l 129 57 l 129 -57 z "},"M":{"ha":1083,"x_min":0,"x_max":0,"o":"m 950 33 l 950 203 l 921 203 l 921 63 l 767 63 l 767 33 z m 982 0 l 215 0 l 215 765 l 599 383 l 982 765 z m 1040 -57 l 1040 904 l 925 790 l 925 1019 l 483 579 l 43 1019 l 43 57 l 158 57 l 158 -57 z "},"N":{"ha":1015,"x_min":0,"x_max":0,"o":"m 897 33 l 897 203 l 868 203 l 868 63 l 714 63 l 714 33 z m 925 0 l 254 0 l 254 765 l 733 288 l 733 765 l 925 765 z m 982 -57 l 982 824 l 868 824 l 868 938 l 561 938 l 561 540 l 82 1019 l 82 57 l 197 57 l 197 -57 z "},"O":{"ha":1000,"x_min":0,"x_max":0,"o":"m 606 375 b 558 424 606 401 582 424 b 510 375 531 424 510 403 b 558 328 510 349 531 328 b 606 375 585 328 606 349 z m 878 383 b 558 60 878 215 722 60 l 558 31 b 907 383 749 31 907 196 z m 940 383 b 558 0 940 174 769 0 b 175 383 344 0 175 169 b 558 765 175 590 349 765 b 940 383 769 765 940 594 z m 999 383 b 807 747 999 532 928 665 b 443 938 724 868 592 938 b 3 497 203 938 3 738 b 194 133 3 349 74 217 b 558 -57 276 13 408 -57 b 999 383 800 -57 999 142 z "},"P":{"ha":843,"x_min":0,"x_max":0,"o":"m 717 544 b 546 386 717 465 622 386 l 396 386 l 396 63 l 242 63 l 242 33 l 425 33 l 425 358 l 546 358 b 746 544 654 358 746 436 z m 600 544 b 553 592 600 572 581 592 b 506 544 525 592 506 572 b 553 497 506 517 525 497 b 600 544 579 497 600 518 z m 781 546 b 569 325 781 428 689 326 l 454 324 l 454 0 l 186 0 l 186 765 l 569 765 b 781 546 685 765 781 660 z m 838 546 b 689 792 838 650 788 732 b 454 938 632 886 543 938 l 14 938 l 14 57 l 129 57 l 129 -57 l 513 -57 l 513 268 l 569 268 b 838 546 722 268 838 401 z "},"Q":{"ha":1068,"x_min":0,"x_max":0,"o":"m 626 383 b 579 431 626 410 607 431 b 531 383 551 431 531 410 b 579 335 531 356 551 335 b 626 383 607 335 626 356 z m 1010 33 l 1010 133 l 981 133 l 981 63 l 828 63 l 828 33 z m 1047 0 l 579 0 b 196 383 367 0 196 171 b 579 765 196 590 369 765 b 963 383 792 765 963 593 b 911 192 963 314 946 250 l 1047 192 z m 1104 -57 l 1104 249 l 999 249 b 1019 383 1013 293 1019 338 b 828 747 1019 533 950 665 b 464 938 744 868 613 938 b 24 497 224 938 24 738 b 215 133 24 349 94 217 b 579 -57 299 15 431 -57 z "},"R":{"ha":839,"x_min":0,"x_max":0,"o":"m 711 546 b 531 388 711 465 610 388 l 444 388 l 656 56 l 553 56 l 553 26 l 711 26 l 497 358 l 531 358 b 739 546 638 358 739 438 z m 585 546 b 538 593 585 572 564 593 b 489 546 510 593 489 572 b 538 497 489 518 510 497 b 585 546 564 497 585 518 z m 775 0 l 182 0 l 182 765 l 565 765 b 775 546 676 765 775 661 b 565 325 775 429 678 325 z m 881 -57 l 658 286 b 833 546 763 328 833 433 b 683 792 833 650 781 732 b 450 938 632 881 539 938 l 10 938 l 10 57 l 125 57 l 125 -57 z "},"S":{"ha":767,"x_min":0,"x_max":0,"o":"m 635 258 b 440 57 635 163 544 57 l 440 29 b 664 258 564 29 664 133 z m 551 672 l 531 692 l 401 551 l 422 531 z m 696 254 b 440 0 696 115 583 0 b 256 74 361 0 300 25 l 440 258 b 186 513 300 258 186 372 b 440 765 186 654 301 765 b 622 690 513 765 574 740 l 440 508 b 696 254 581 508 696 394 z m 753 254 b 596 524 753 367 694 468 b 574 558 589 536 582 547 l 704 690 b 574 790 658 736 615 769 l 589 806 b 325 938 501 893 413 938 b 14 626 156 938 14 800 b 171 357 14 515 75 414 b 194 322 178 344 185 333 l 63 190 b 192 90 101 146 144 113 l 176 75 b 440 -57 256 -12 344 -57 b 753 254 615 -57 753 86 z "},"T":{"ha":894,"x_min":0,"x_max":0,"o":"m 608 33 l 608 203 l 579 203 l 579 63 l 426 63 l 426 33 z m 799 613 l 799 713 l 769 713 l 769 642 l 643 642 l 643 613 z m 833 574 l 643 574 l 643 0 l 356 0 l 356 574 l 164 574 l 164 765 l 833 765 z m 892 517 l 892 824 l 776 824 l 776 938 l -8 938 l -8 632 l 107 632 l 107 517 l 183 517 l 183 57 l 299 57 l 299 -57 l 700 -57 l 700 517 z "},"U":{"ha":869,"x_min":0,"x_max":0,"o":"m 706 288 b 488 60 706 183 601 60 l 488 31 b 735 288 622 31 735 157 z m 774 288 b 488 0 774 131 647 0 b 200 288 325 0 200 131 l 200 765 l 774 765 z m 832 824 l 717 824 l 717 938 l 28 938 l 28 401 b 193 108 28 281 88 165 b 488 -57 253 3 361 -57 b 832 288 678 -57 832 99 z "},"V":{"ha":971,"x_min":0,"x_max":0,"o":"m 646 325 l 631 357 l 529 156 l 547 118 z m 911 765 l 528 0 l 144 765 z m 1003 824 l 831 824 l 888 938 l -64 938 l 413 -12 l 442 44 l 528 -128 z "},"W":{"ha":1292,"x_min":0,"x_max":0,"o":"m 635 340 l 619 369 l 518 168 l 536 132 z m 1010 325 l 993 357 l 893 156 l 910 118 z m 1274 765 l 890 0 l 699 383 l 507 0 l 125 765 z m 1367 824 l 1194 824 l 1251 938 l -83 938 l 393 -12 l 421 44 l 507 -128 l 669 197 l 775 -12 l 804 44 l 890 -128 z "},"X":{"ha":811,"x_min":0,"x_max":0,"o":"m 671 26 l 590 194 l 565 181 l 626 56 l 514 56 l 514 26 z m 676 724 l 650 738 l 485 408 l 506 389 z m 740 0 l 167 0 l 358 383 l 167 765 l 740 765 l 549 383 z m 833 -57 l 613 383 l 833 824 l 661 824 l 718 938 l -42 938 l 178 497 l -42 57 l 131 57 l 74 -57 z "},"Y":{"ha":761,"x_min":0,"x_max":0,"o":"m 661 724 l 635 738 l 461 396 l 461 63 l 383 63 l 383 33 l 490 33 l 490 389 z m 721 765 l 529 383 l 529 0 l 338 0 l 338 383 l 146 765 z m 814 824 l 642 824 l 699 938 l -62 938 l 165 485 l 165 57 l 281 57 l 281 -57 l 586 -57 l 586 369 z "},"Z":{"ha":956,"x_min":0,"x_max":0,"o":"m 763 33 l 763 143 l 733 143 l 733 63 l 581 63 l 581 33 z m 775 714 l 749 725 l 539 193 l 565 182 z m 839 765 l 610 192 l 801 192 l 801 0 l 228 0 l 419 574 l 228 574 l 228 765 z m 922 824 l 763 824 l 807 938 l 56 938 l 56 632 l 169 632 l 169 517 l 186 517 l 32 57 l 186 57 l 147 -57 l 860 -57 l 860 249 l 744 249 l 744 364 l 740 364 z "},"[":{"ha":465,"x_min":0,"x_max":0,"o":"m 318 111 b 207 383 244 185 207 276 b 350 681 207 489 254 621 l 350 82 b 318 111 338 92 328 101 z m 350 6 l 358 6 b 406 -18 375 -1 389 -11 l 406 932 b 35 497 192 900 35 707 b 226 133 35 349 106 217 b 350 13 258 83 301 44 z "},"\\":{"ha":996,"x_min":0,"x_max":0,"o":"m 822 146 l 381 857 l 264 857 l 264 825 l 365 825 l 792 146 z m 876 115 l 686 115 l 207 881 l 399 881 z m 981 56 l 429 938 l 376 938 l 299 1058 l -29 1058 l 514 176 l 572 176 l 646 56 z "},"]":{"ha":575,"x_min":0,"x_max":0,"o":"m 425 383 b 326 158 425 299 392 224 b 301 133 319 149 308 143 l 301 713 b 488 383 421 646 488 515 b 301 53 488 249 424 128 l 301 93 b 453 383 401 163 453 272 z m 83 11 b 247 101 151 28 207 58 l 247 -35 b 544 383 429 29 544 199 b 83 929 544 583 475 732 z "},"^":{"ha":694,"x_min":0,"x_max":0,"o":"m 265 729 l 386 928 l 529 729 z m 306 1146 l 97 831 l 288 831 l 193 686 l 608 686 z "},"_":{"ha":463,"x_min":0,"x_max":0,"o":"m 24 -186 l 24 -228 l 449 -228 l 449 -186 z "},"`":{"ha":526,"x_min":0,"x_max":0,"o":"m 110 1222 l 269 1046 l 275 1046 l 329 986 l 431 986 l 311 1163 l 292 1163 l 251 1222 z m 299 1138 l 386 1008 l 338 1008 l 222 1138 z "},"a":{"ha":969,"x_min":0,"x_max":0,"o":"m 610 290 b 563 339 610 317 589 339 b 514 290 536 339 514 318 b 563 243 514 264 535 243 b 610 290 590 243 610 264 z m 882 43 l 799 211 l 772 199 l 836 72 l 708 72 l 708 43 z m 960 0 l 194 0 l 576 765 z m 1051 -57 l 576 894 l 549 836 l 463 1008 l -14 57 l 158 57 l 100 -57 z "},"b":{"ha":893,"x_min":0,"x_max":0,"o":"m 732 221 b 553 63 732 139 629 63 l 553 33 b 761 221 660 33 761 113 z m 638 221 b 590 268 638 247 617 268 b 542 221 563 268 542 247 b 590 172 542 193 563 172 b 638 221 617 172 638 193 z m 638 546 b 590 593 638 572 617 593 b 542 546 563 593 542 572 b 590 497 542 518 563 497 b 638 546 617 497 638 518 z m 800 221 b 590 0 800 106 707 0 l 207 0 l 207 765 l 590 765 b 800 546 700 765 800 665 b 729 383 800 482 776 428 b 800 221 776 338 800 283 z m 858 221 b 807 383 858 281 842 335 b 858 546 842 429 858 483 b 710 792 858 650 808 732 b 475 938 654 888 563 938 l 35 938 l 35 57 l 150 57 l 150 -57 l 590 -57 b 858 221 738 -57 858 74 z "},"c":{"ha":996,"x_min":0,"x_max":0,"o":"m 532 357 l 519 331 l 799 183 b 703 100 765 149 735 121 l 718 75 b 847 193 763 107 779 114 z m 558 383 l 901 211 b 558 0 839 89 707 0 b 176 383 346 0 176 171 b 558 765 176 592 349 765 b 901 554 707 765 836 688 z m 979 529 b 801 747 933 625 874 697 b 444 938 708 874 589 938 b 3 497 204 938 3 739 b 194 133 3 349 74 217 b 558 -57 276 15 413 -57 b 978 238 740 -57 879 42 l 839 307 b 863 351 846 322 856 336 l 744 411 z "},"d":{"ha":988,"x_min":0,"x_max":0,"o":"m 903 383 b 582 60 903 214 740 60 l 582 31 b 931 383 772 31 931 196 z m 629 383 b 582 431 629 410 608 431 b 533 383 554 431 533 410 b 582 335 533 356 554 335 b 629 383 608 335 629 356 z m 964 383 b 582 0 964 174 793 0 l 199 0 l 199 765 l 582 765 b 964 383 793 765 964 594 z m 1022 383 b 831 747 1022 532 951 665 b 467 938 747 868 615 938 l 26 938 l 26 57 l 142 57 l 142 -57 l 582 -57 b 1022 383 824 -57 1022 142 z "},"e":{"ha":893,"x_min":0,"x_max":0,"o":"m 758 33 l 758 203 l 729 203 l 729 63 l 576 63 l 576 33 z m 758 510 l 758 678 l 729 678 l 729 539 l 576 539 l 576 510 z m 790 0 l 217 0 l 217 765 l 790 765 l 790 479 l 539 479 l 539 443 l 658 443 l 658 324 l 539 324 l 539 288 l 790 288 z m 849 -57 l 849 344 l 733 344 l 733 421 l 849 421 l 849 824 l 733 824 l 733 938 l 44 938 l 44 57 l 160 57 l 160 -57 z "},"f":{"ha":853,"x_min":0,"x_max":0,"o":"m 450 33 l 450 203 l 421 203 l 421 63 l 268 63 l 268 33 z m 742 510 l 742 678 l 713 678 l 713 539 l 558 539 l 558 510 z m 771 479 l 483 479 l 483 439 l 639 439 l 639 288 l 483 288 l 483 0 l 196 0 l 196 765 l 771 765 z m 828 421 l 828 824 l 713 824 l 713 938 l 24 938 l 24 57 l 139 57 l 139 -57 l 540 -57 l 540 229 l 696 229 l 696 421 z "},"g":{"ha":988,"x_min":0,"x_max":0,"o":"m 907 33 l 907 203 l 879 203 l 879 63 l 725 63 l 725 33 z m 768 642 l 749 661 l 508 421 l 528 401 z m 940 0 l 558 0 b 175 383 344 0 175 169 b 558 765 175 590 349 765 b 829 654 665 765 756 728 l 558 383 l 940 383 z m 999 -57 l 999 440 l 883 440 l 883 556 l 811 556 l 911 654 b 785 757 868 697 825 733 l 796 769 b 443 938 683 882 567 938 b 3 497 203 938 3 738 b 194 133 3 349 74 217 b 558 -57 278 15 410 -57 z "},"h":{"ha":1049,"x_min":0,"x_max":0,"o":"m 467 33 l 467 203 l 438 203 l 438 63 l 285 63 l 285 33 z m 914 33 l 914 203 l 885 203 l 885 63 l 732 63 l 732 33 z m 946 0 l 661 0 l 661 288 l 506 288 l 506 0 l 219 0 l 219 765 l 506 765 l 506 479 l 661 479 l 661 765 l 946 765 z m 1004 -57 l 1004 824 l 928 824 l 928 938 l 488 938 l 488 824 l 449 824 l 449 938 l 47 938 l 47 57 l 161 57 l 161 -57 l 564 -57 l 564 57 l 603 57 l 603 -57 z "},"i":{"ha":608,"x_min":0,"x_max":0,"o":"m 472 33 l 472 203 l 444 203 l 444 63 l 290 63 l 290 33 z m 506 0 l 218 0 l 218 765 l 506 765 z m 563 -57 l 563 824 l 447 824 l 447 938 l 46 938 l 46 57 l 160 57 l 160 -57 z "},"j":{"ha":825,"x_min":0,"x_max":0,"o":"m 675 288 b 444 57 675 176 558 57 l 444 29 b 704 288 582 29 704 151 z m 732 288 b 444 0 732 131 607 0 b 158 288 285 0 158 131 l 444 288 l 444 765 l 732 765 z m 790 824 l 675 824 l 675 938 l 272 938 l 272 460 l -14 460 b 163 103 -14 308 47 169 b 444 -57 229 -4 324 -57 b 790 288 636 -57 790 97 z "},"k":{"ha":954,"x_min":0,"x_max":0,"o":"m 749 43 l 596 199 l 554 199 l 681 72 l 569 72 l 569 43 z m 854 765 l 471 383 l 853 0 l 185 0 l 185 765 z m 992 824 l 763 824 l 876 938 l 13 938 l 13 57 l 126 57 l 126 -57 l 990 -57 l 551 383 z "},"l":{"ha":824,"x_min":0,"x_max":0,"o":"m 726 33 l 726 203 l 697 203 l 697 63 l 544 63 l 544 33 z m 761 0 l 186 0 l 186 765 l 474 765 l 474 228 l 761 228 z m 818 -57 l 818 285 l 704 285 l 704 400 l 531 400 l 531 824 l 417 824 l 417 938 l 14 938 l 14 57 l 129 57 l 129 -57 z "},"m":{"ha":1083,"x_min":0,"x_max":0,"o":"m 950 33 l 950 203 l 921 203 l 921 63 l 767 63 l 767 33 z m 982 0 l 215 0 l 215 765 l 599 383 l 982 765 z m 1040 -57 l 1040 904 l 925 790 l 925 1019 l 483 579 l 43 1019 l 43 57 l 158 57 l 158 -57 z "},"n":{"ha":1015,"x_min":0,"x_max":0,"o":"m 897 33 l 897 203 l 868 203 l 868 63 l 714 63 l 714 33 z m 925 0 l 254 0 l 254 765 l 733 288 l 733 765 l 925 765 z m 982 -57 l 982 824 l 868 824 l 868 938 l 561 938 l 561 540 l 82 1019 l 82 57 l 197 57 l 197 -57 z "},"o":{"ha":1000,"x_min":0,"x_max":0,"o":"m 606 375 b 558 424 606 401 582 424 b 510 375 531 424 510 403 b 558 328 510 349 531 328 b 606 375 585 328 606 349 z m 878 383 b 558 60 878 215 722 60 l 558 31 b 907 383 749 31 907 196 z m 940 383 b 558 0 940 174 769 0 b 175 383 344 0 175 169 b 558 765 175 590 349 765 b 940 383 769 765 940 594 z m 999 383 b 807 747 999 532 928 665 b 443 938 724 868 592 938 b 3 497 203 938 3 738 b 194 133 3 349 74 217 b 558 -57 276 13 408 -57 b 999 383 800 -57 999 142 z "},"p":{"ha":843,"x_min":0,"x_max":0,"o":"m 717 544 b 546 386 717 465 622 386 l 396 386 l 396 63 l 242 63 l 242 33 l 425 33 l 425 358 l 546 358 b 746 544 654 358 746 436 z m 600 544 b 553 592 600 572 581 592 b 506 544 525 592 506 572 b 553 497 506 517 525 497 b 600 544 579 497 600 518 z m 781 546 b 569 325 781 428 689 326 l 454 324 l 454 0 l 186 0 l 186 765 l 569 765 b 781 546 685 765 781 660 z m 838 546 b 689 792 838 650 788 732 b 454 938 632 886 543 938 l 14 938 l 14 57 l 129 57 l 129 -57 l 513 -57 l 513 268 l 569 268 b 838 546 722 268 838 401 z "},"q":{"ha":1068,"x_min":0,"x_max":0,"o":"m 626 383 b 579 431 626 410 607 431 b 531 383 551 431 531 410 b 579 335 531 356 551 335 b 626 383 607 335 626 356 z m 1010 33 l 1010 133 l 981 133 l 981 63 l 828 63 l 828 33 z m 1047 0 l 579 0 b 196 383 367 0 196 171 b 579 765 196 590 369 765 b 963 383 792 765 963 593 b 911 192 963 314 946 250 l 1047 192 z m 1104 -57 l 1104 249 l 999 249 b 1019 383 1013 293 1019 338 b 828 747 1019 533 950 665 b 464 938 744 868 613 938 b 24 497 224 938 24 738 b 215 133 24 349 94 217 b 579 -57 299 15 431 -57 z "},"r":{"ha":839,"x_min":0,"x_max":0,"o":"m 711 546 b 531 388 711 465 610 388 l 444 388 l 656 56 l 553 56 l 553 26 l 711 26 l 497 358 l 531 358 b 739 546 638 358 739 438 z m 585 546 b 538 593 585 572 564 593 b 489 546 510 593 489 572 b 538 497 489 518 510 497 b 585 546 564 497 585 518 z m 775 0 l 182 0 l 182 765 l 565 765 b 775 546 676 765 775 661 b 565 325 775 429 678 325 z m 881 -57 l 658 286 b 833 546 763 328 833 433 b 683 792 833 650 781 732 b 450 938 632 881 539 938 l 10 938 l 10 57 l 125 57 l 125 -57 z "},"s":{"ha":767,"x_min":0,"x_max":0,"o":"m 635 258 b 440 57 635 163 544 57 l 440 29 b 664 258 564 29 664 133 z m 551 672 l 531 692 l 401 551 l 422 531 z m 696 254 b 440 0 696 115 583 0 b 256 74 361 0 300 25 l 440 258 b 186 513 300 258 186 372 b 440 765 186 654 301 765 b 622 690 513 765 574 740 l 440 508 b 696 254 581 508 696 394 z m 753 254 b 596 524 753 367 694 468 b 574 558 589 536 582 547 l 704 690 b 574 790 658 736 615 769 l 589 806 b 325 938 501 893 413 938 b 14 626 156 938 14 800 b 171 357 14 515 75 414 b 194 322 178 344 185 333 l 63 190 b 192 90 101 146 144 113 l 176 75 b 440 -57 256 -12 344 -57 b 753 254 615 -57 753 86 z "},"t":{"ha":894,"x_min":0,"x_max":0,"o":"m 608 33 l 608 203 l 579 203 l 579 63 l 426 63 l 426 33 z m 799 613 l 799 713 l 769 713 l 769 642 l 643 642 l 643 613 z m 833 574 l 643 574 l 643 0 l 356 0 l 356 574 l 164 574 l 164 765 l 833 765 z m 892 517 l 892 824 l 776 824 l 776 938 l -8 938 l -8 632 l 107 632 l 107 517 l 183 517 l 183 57 l 299 57 l 299 -57 l 700 -57 l 700 517 z "},"u":{"ha":869,"x_min":0,"x_max":0,"o":"m 706 288 b 488 60 706 183 601 60 l 488 31 b 735 288 622 31 735 157 z m 774 288 b 488 0 774 131 647 0 b 200 288 325 0 200 131 l 200 765 l 774 765 z m 832 824 l 717 824 l 717 938 l 28 938 l 28 401 b 193 108 28 281 88 165 b 488 -57 253 3 361 -57 b 832 288 678 -57 832 99 z "},"v":{"ha":971,"x_min":0,"x_max":0,"o":"m 646 325 l 631 357 l 529 156 l 547 118 z m 911 765 l 528 0 l 144 765 z m 1003 824 l 831 824 l 888 938 l -64 938 l 413 -12 l 442 44 l 528 -128 z "},"w":{"ha":1292,"x_min":0,"x_max":0,"o":"m 635 340 l 619 369 l 518 168 l 536 132 z m 1010 325 l 993 357 l 893 156 l 910 118 z m 1274 765 l 890 0 l 699 383 l 507 0 l 125 765 z m 1367 824 l 1194 824 l 1251 938 l -83 938 l 393 -12 l 421 44 l 507 -128 l 669 197 l 775 -12 l 804 44 l 890 -128 z "},"x":{"ha":811,"x_min":0,"x_max":0,"o":"m 671 26 l 590 194 l 565 181 l 626 56 l 514 56 l 514 26 z m 676 724 l 650 738 l 485 408 l 506 389 z m 740 0 l 167 0 l 358 383 l 167 765 l 740 765 l 549 383 z m 833 -57 l 613 383 l 833 824 l 661 824 l 718 938 l -42 938 l 178 497 l -42 57 l 131 57 l 74 -57 z "},"y":{"ha":761,"x_min":0,"x_max":0,"o":"m 661 724 l 635 738 l 461 396 l 461 63 l 383 63 l 383 33 l 490 33 l 490 389 z m 721 765 l 529 383 l 529 0 l 338 0 l 338 383 l 146 765 z m 814 824 l 642 824 l 699 938 l -62 938 l 165 485 l 165 57 l 281 57 l 281 -57 l 586 -57 l 586 369 z "},"z":{"ha":956,"x_min":0,"x_max":0,"o":"m 763 33 l 763 143 l 733 143 l 733 63 l 581 63 l 581 33 z m 775 714 l 749 725 l 539 193 l 565 182 z m 839 765 l 610 192 l 801 192 l 801 0 l 228 0 l 419 574 l 228 574 l 228 765 z m 922 824 l 763 824 l 807 938 l 56 938 l 56 632 l 169 632 l 169 517 l 186 517 l 32 57 l 186 57 l 147 -57 l 860 -57 l 860 249 l 744 249 l 744 364 l 740 364 z "},"{":{"ha":465,"x_min":0,"x_max":0,"o":"m 318 111 b 207 383 244 185 207 276 b 350 681 207 489 254 621 l 350 82 b 318 111 338 92 328 101 z m 350 6 l 358 6 b 406 -18 375 -1 389 -11 l 406 932 b 35 497 192 900 35 707 b 226 133 35 349 106 217 b 350 13 258 83 301 44 z "},"|":{"ha":608,"x_min":0,"x_max":0,"o":"m 351 -86 l 351 82 l 324 82 l 324 -57 l 290 -57 l 290 -86 z m 385 -119 l 218 -119 l 218 885 l 385 885 z m 442 -176 l 442 943 l 326 943 l 326 1058 l 46 1058 l 46 -62 l 160 -62 l 160 -176 z "},"}":{"ha":575,"x_min":0,"x_max":0,"o":"m 425 383 b 326 158 425 299 392 224 b 301 133 319 149 308 143 l 301 713 b 488 383 421 646 488 515 b 301 53 488 249 424 128 l 301 93 b 453 383 401 163 453 272 z m 83 11 b 247 101 151 28 207 58 l 247 -35 b 544 383 429 29 544 199 b 83 929 544 583 475 732 z "},"~":{"ha":1008,"x_min":0,"x_max":0,"o":"m 182 451 b 404 533 246 508 324 533 b 693 458 517 533 590 458 b 785 494 731 458 767 469 l 922 385 b 678 282 869 318 764 282 b 400 356 579 282 503 356 b 297 315 361 356 326 346 z m 165 388 l 178 396 l 283 268 b 403 315 317 303 358 315 b 682 243 503 315 594 243 b 981 388 797 243 908 293 l 851 493 l 863 507 l 706 638 b 576 568 671 596 625 568 b 496 599 549 568 521 578 b 292 642 432 628 361 642 b 31 546 199 642 106 613 z "}," ":{"ha":315,"x_min":0,"x_max":0,"o":""},"¡":{"ha":625,"x_min":0,"x_max":0,"o":"m 567 675 b 439 863 567 758 517 833 b 251 990 407 939 335 990 b 50 790 142 990 50 901 b 129 629 50 729 78 667 l 63 629 l 63 -251 l 176 -251 l 176 -367 l 579 -367 l 579 514 l 488 514 b 567 675 540 557 567 611 z m 522 457 l 522 -308 l 235 -308 l 235 457 z m 510 675 b 367 531 510 596 446 531 b 222 675 288 531 222 596 b 367 818 222 754 288 818 b 510 675 446 818 510 754 z m 307 -275 l 489 -275 l 489 -107 l 461 -107 l 461 -246 l 307 -246 z m 442 664 b 397 594 442 626 426 604 l 397 567 b 471 664 446 579 471 611 z "},"¢":{"ha":996,"x_min":0,"x_max":0,"o":"m 696 -176 l 696 -35 b 978 238 811 3 906 94 l 839 307 b 863 351 846 322 856 336 l 744 411 l 979 529 b 801 747 933 625 874 697 b 696 856 769 790 733 826 l 696 943 l 581 943 l 581 1058 l 300 1058 l 300 913 b 3 497 128 851 3 688 b 194 133 3 349 74 217 b 300 26 224 92 260 56 l 300 -62 l 414 -62 l 414 -176 z m 639 -119 l 472 -119 l 472 10 b 176 383 301 49 176 200 b 472 756 176 563 303 715 l 472 885 l 639 885 l 639 757 b 901 554 753 735 847 663 l 558 383 l 901 211 b 639 8 850 111 753 33 z m 532 357 l 519 331 l 799 183 b 703 100 765 149 735 121 l 718 75 b 847 193 763 107 779 114 z m 606 -86 l 606 82 l 578 82 l 578 -57 l 544 -57 l 544 -86 z "},"£":{"ha":853,"x_min":0,"x_max":0,"o":"m 696 421 l 828 421 l 828 824 l 713 824 l 713 938 l 368 938 b 24 669 194 938 24 840 l 24 57 l 139 57 l 139 -57 l 833 -57 l 833 289 l 696 289 z m 771 765 l 771 479 l 483 479 l 483 439 l 639 439 l 639 288 l 483 288 l 483 247 l 790 247 l 790 0 l 196 0 l 196 510 b 426 765 196 638 279 765 z m 558 510 l 742 510 l 742 678 l 713 678 l 713 539 l 558 539 z m 582 33 l 764 33 l 764 149 l 735 149 l 735 63 l 582 63 z "},"¥":{"ha":761,"x_min":0,"x_max":0,"o":"m 56 208 l 165 208 l 165 57 l 281 57 l 281 -57 l 586 -57 l 586 53 l 692 53 l 692 369 l 586 369 l 814 824 l 642 824 l 699 938 l -62 938 l 163 488 l 56 488 z m 529 190 l 653 190 l 653 99 l 529 99 l 529 0 l 338 0 l 338 99 l 214 99 l 214 190 l 338 190 l 338 238 l 210 238 l 210 326 l 338 326 l 338 383 l 146 765 l 721 765 l 529 383 l 529 326 l 653 326 l 653 238 l 529 238 z m 489 389 l 661 724 l 635 738 l 461 396 l 461 326 l 490 326 l 490 389 z m 490 33 l 490 99 l 463 99 l 463 63 l 383 63 l 383 33 z m 490 238 l 461 238 l 461 190 l 490 190 z "},"§":{"ha":876,"x_min":0,"x_max":0,"o":"m 578 403 b 481 471 578 431 508 471 b 332 407 450 471 361 407 b 226 488 288 407 233 443 b 215 497 225 494 222 497 b 201 483 207 497 201 493 b 332 383 201 425 279 383 b 481 447 368 383 460 447 b 557 399 510 447 536 431 b 567 393 561 394 564 393 b 578 403 574 393 578 396 z m 815 303 b 628 17 815 221 701 29 b 472 204 576 67 564 204 b 408 128 432 204 408 171 b 463 35 408 103 463 39 b 440 24 463 28 456 24 b 160 126 400 24 285 51 b 68 211 99 163 68 190 b 107 246 68 240 75 246 b 369 106 153 246 308 106 l 394 106 b 238 314 285 247 269 260 b 150 561 179 392 150 474 b 371 807 150 704 240 807 b 514 774 426 807 474 796 b 439 689 472 758 447 729 b 339 751 419 731 386 751 b 226 639 275 751 226 701 b 339 528 226 576 276 528 b 447 615 390 528 436 564 b 549 554 468 575 501 554 b 617 576 574 554 596 561 b 594 315 617 528 594 364 b 651 124 594 274 614 210 b 667 104 656 111 661 104 b 793 335 699 111 736 335 b 815 303 808 335 815 324 z m 436 640 b 339 546 436 586 390 546 b 242 622 290 546 251 576 b 264 611 247 615 254 611 b 289 639 281 611 289 621 b 264 668 289 658 281 668 b 242 656 254 668 247 664 b 339 736 249 704 290 736 b 436 640 390 736 436 692 z m 646 667 b 549 571 646 613 603 571 b 453 647 503 571 463 603 b 472 638 460 640 465 638 b 499 665 490 638 499 647 b 472 693 499 683 490 693 b 451 682 464 693 457 689 b 549 761 458 728 500 761 b 646 667 603 761 646 721 z m 793 358 b 668 151 729 358 683 194 b 618 321 635 214 618 271 b 642 575 618 353 642 503 b 640 601 642 585 642 593 b 661 665 654 622 661 643 b 551 776 661 724 610 776 b 371 831 503 813 442 831 b 125 561 228 831 125 717 b 244 257 125 443 154 365 b 342 133 300 189 331 149 b 107 269 303 142 176 269 b 44 211 65 269 44 250 b 436 3 44 133 283 3 b 488 35 471 3 488 14 b 432 128 488 53 432 108 b 474 182 432 154 450 182 b 581 42 510 182 528 160 b 615 -7 594 10 606 -7 b 839 303 706 -7 839 197 b 793 358 839 340 824 358 z "},"¨":{"ha":622,"x_min":0,"x_max":0,"o":"m 526 1003 l 526 1131 l 467 1131 l 467 1190 l 336 1190 l 336 1063 l 396 1063 l 396 1003 z m 110 1063 l 169 1063 l 169 1003 l 296 1003 l 296 1131 l 236 1131 l 236 1190 l 110 1190 z m 419 1025 l 419 1106 l 501 1106 l 501 1025 z m 193 1106 l 271 1106 l 271 1025 l 193 1025 z "},"©":{"ha":1033,"x_min":0,"x_max":0,"o":"m 989 383 b 797 747 989 532 918 665 b 433 938 714 868 582 938 b -7 497 193 938 -7 738 b 185 133 -7 349 64 217 b 549 -57 267 13 399 -57 b 989 383 790 -57 989 142 z m 931 383 b 549 0 931 174 760 0 b 165 383 335 0 165 169 b 549 765 165 590 339 765 b 931 383 760 765 931 594 z m 868 383 b 549 60 868 215 713 60 l 549 31 b 897 383 739 31 897 196 z m 576 340 l 569 326 l 706 254 b 660 214 690 239 672 225 l 667 203 b 729 260 688 218 699 222 z m 725 440 l 721 453 l 567 375 l 574 363 z m 589 351 l 756 269 b 589 167 722 204 661 167 b 401 351 488 167 401 247 b 589 539 401 453 488 539 b 756 436 661 539 724 501 z m 792 424 b 706 529 769 469 740 506 b 532 622 661 592 603 622 b 318 408 417 622 318 528 b 413 231 318 338 353 274 b 589 139 451 171 518 139 b 792 281 676 139 744 186 l 725 315 b 738 338 729 322 732 331 l 679 367 z "},"«":{"ha":894,"x_min":0,"x_max":0,"o":"m 85 561 l 242 457 l 181 418 l 497 210 l 497 513 l 581 457 l 519 418 l 836 210 l 836 625 l 740 561 l 740 768 l 401 561 l 401 768 z m 793 533 l 793 299 l 607 417 z m 454 533 l 454 299 l 268 417 z "},"®":{"ha":981,"x_min":0,"x_max":0,"o":"m 989 383 b 797 747 989 532 918 665 b 433 938 714 868 582 938 b -7 497 193 938 -7 738 b 185 133 -7 349 64 217 b 549 -57 267 13 399 -57 b 989 383 790 -57 989 142 z m 931 383 b 549 0 931 174 760 0 b 165 383 335 0 165 169 b 549 765 165 590 339 765 b 931 383 760 765 931 594 z m 868 383 b 776 164 868 300 838 228 l 682 311 b 761 428 728 331 761 378 b 693 540 761 475 736 513 b 588 606 669 578 626 606 l 389 606 l 389 208 l 440 208 l 440 156 l 768 156 b 549 60 703 92 631 60 l 549 31 b 897 383 739 31 897 196 z m 735 182 l 467 182 l 467 528 l 639 528 b 735 428 690 528 735 479 b 639 329 735 379 693 329 z m 704 428 b 624 357 704 393 661 357 l 585 357 l 681 207 l 635 207 l 635 194 l 704 194 l 608 344 l 624 344 b 718 428 674 344 718 379 z m 649 428 b 626 450 649 440 639 450 b 606 428 615 450 606 440 b 626 407 606 417 615 407 b 649 428 639 407 649 417 z "},"¯":{"ha":622,"x_min":0,"x_max":0,"o":"m 110 1063 l 169 1063 l 169 1003 l 526 1003 l 526 1131 l 467 1131 l 467 1190 l 110 1190 z m 193 1106 l 501 1106 l 501 1025 l 193 1025 z "},"°":{"ha":443,"x_min":0,"x_max":0,"o":"m 3 813 b 107 651 3 740 44 679 b 269 547 133 590 197 547 b 442 719 367 547 442 624 b 335 881 442 792 403 853 b 175 988 308 944 247 988 b 3 813 76 988 3 911 z m 132 717 b 267 853 132 793 190 853 b 403 717 343 853 403 793 b 267 582 403 644 343 582 b 132 717 190 582 132 644 z m 221 717 b 269 671 221 690 240 671 b 315 717 296 671 315 690 b 269 765 315 746 296 765 b 221 717 240 765 221 746 z "},"´":{"ha":526,"x_min":0,"x_max":0,"o":"m 371 1222 l 229 1222 l 110 1046 l 210 1046 l 169 986 l 271 986 l 431 1163 l 315 1163 z m 260 1008 l 211 1008 l 299 1138 l 376 1138 z "},"·":{"ha":583,"x_min":0,"x_max":0,"o":"m 425 383 b 381 314 425 346 410 324 l 381 286 b 453 383 429 299 453 331 z m 493 393 b 350 250 493 314 429 250 b 206 393 268 250 206 314 b 350 538 206 472 268 538 b 493 393 429 538 493 472 z m 550 393 b 422 582 550 476 500 550 b 235 710 390 658 318 710 b 33 508 126 710 33 621 b 163 321 33 425 85 350 b 350 193 194 243 267 193 b 550 393 460 193 550 282 z "},"¸":{"ha":824,"x_min":0,"x_max":0,"o":"m 517 -240 b 479 -303 517 -275 506 -296 l 479 -328 b 546 -251 511 -328 546 -279 b 544 -240 546 -247 546 -243 z m 572 -237 b 449 -361 572 -306 517 -361 l 449 -237 l 322 -237 b 449 -111 322 -168 379 -111 b 572 -237 517 -111 572 -168 z m 622 -237 b 511 -72 622 -164 579 -100 b 347 28 486 -6 421 28 b 172 -186 240 28 172 -56 l 288 -186 b 272 -286 278 -218 272 -251 l 299 -286 l 299 -312 b 397 -297 333 -312 367 -307 l 397 -411 b 622 -237 531 -411 622 -344 z "},"»":{"ha":881,"x_min":0,"x_max":0,"o":"m 400 558 l 83 767 l 83 351 l 179 414 l 179 208 l 529 414 l 529 208 l 846 415 l 689 518 l 750 558 l 433 767 l 433 456 l 339 518 z m 581 529 l 764 411 l 581 303 z m 231 529 l 414 411 l 231 303 z "},"¿":{"ha":788,"x_min":0,"x_max":0,"o":"m 19 249 b 168 -18 19 139 83 36 b 179 -25 172 -21 175 -24 l 193 -50 b 471 -211 253 -150 351 -211 b 767 17 576 -211 692 -161 l 549 108 l 756 208 b 603 371 715 282 665 336 b 640 492 628 407 640 450 b 490 672 640 581 574 663 b 497 696 496 679 497 688 b 332 818 497 756 407 818 b 142 667 256 818 193 768 l 203 635 l 142 604 b 189 526 157 575 172 549 b 19 249 83 472 19 369 z m 208 106 b 463 358 208 246 319 358 b 690 219 558 358 647 304 l 463 106 l 690 -8 b 463 -150 650 -96 561 -150 b 208 106 328 -150 208 -36 z m 463 492 l 350 549 b 463 618 374 594 411 618 b 589 492 531 618 589 560 b 463 367 589 422 531 367 b 350 436 410 367 372 390 z m 276 106 b 463 292 276 211 368 292 l 463 321 b 247 106 339 321 247 225 z "},"À":{"ha":969,"x_min":0,"x_max":0,"o":"m 610 290 b 563 339 610 317 589 339 b 514 290 536 339 514 318 b 563 243 514 264 535 243 b 610 290 590 243 610 264 z m 882 43 l 799 211 l 772 199 l 836 72 l 708 72 l 708 43 z m 960 0 l 194 0 l 576 765 z m 1051 -57 l 576 894 l 549 836 l 463 1008 l -14 57 l 158 57 l 100 -57 z m 324 1222 l 483 1046 l 489 1046 l 543 986 l 644 986 l 525 1163 l 506 1163 l 465 1222 z m 513 1138 l 600 1008 l 551 1008 l 436 1138 z "},"Á":{"ha":969,"x_min":0,"x_max":0,"o":"m 610 290 b 563 339 610 317 589 339 b 514 290 536 339 514 318 b 563 243 514 264 535 243 b 610 290 590 243 610 264 z m 882 43 l 799 211 l 772 199 l 836 72 l 708 72 l 708 43 z m 960 0 l 194 0 l 576 765 z m 1051 -57 l 576 894 l 549 836 l 463 1008 l -14 57 l 158 57 l 100 -57 z m 681 1222 l 539 1222 l 419 1046 l 519 1046 l 479 986 l 581 986 l 740 1163 l 625 1163 z m 569 1008 l 521 1008 l 608 1138 l 686 1138 z "},"Â":{"ha":969,"x_min":0,"x_max":0,"o":"m 610 290 b 563 339 610 317 589 339 b 514 290 536 339 514 318 b 563 243 514 264 535 243 b 610 290 590 243 610 264 z m 882 43 l 799 211 l 772 199 l 836 72 l 708 72 l 708 43 z m 960 0 l 194 0 l 576 765 z m 579 1119 l 660 1008 l 497 1008 z m 392 1046 l 494 1046 l 451 986 l -14 57 l 158 57 l 100 -57 l 1051 -57 l 576 894 l 549 836 l 474 986 l 707 986 l 581 1163 l 572 1151 l 521 1222 z "},"Ã":{"ha":969,"x_min":0,"x_max":0,"o":"m 610 290 b 563 339 610 317 589 339 b 514 290 536 339 514 318 b 563 243 514 264 535 243 b 610 290 590 243 610 264 z m 882 43 l 799 211 l 772 199 l 836 72 l 708 72 l 708 43 z m 960 0 l 194 0 l 576 765 z m 1051 -57 l 576 894 l 549 836 l 463 1008 l -14 57 l 158 57 l 100 -57 z m 344 1106 b 479 1156 383 1140 431 1156 b 654 1110 547 1156 592 1110 b 710 1132 676 1110 699 1117 l 793 1065 b 644 1003 761 1025 697 1003 b 476 1047 585 1003 539 1047 b 414 1024 453 1047 432 1042 z m 335 1067 l 342 1072 l 406 994 b 478 1024 426 1015 451 1024 b 647 979 539 1024 594 979 b 828 1067 717 979 785 1010 l 750 1131 l 757 1139 l 661 1218 b 583 1176 640 1193 613 1176 b 535 1194 567 1176 550 1182 b 411 1221 496 1213 453 1221 b 253 1163 354 1221 299 1203 z "},"Ä":{"ha":969,"x_min":0,"x_max":0,"o":"m 339 1063 l 399 1063 l 399 1003 l 460 1003 l -14 57 l 158 57 l 100 -57 l 1051 -57 l 576 894 l 549 836 l 465 1003 l 525 1003 l 525 1131 l 465 1131 l 465 1190 l 339 1190 z m 960 0 l 194 0 l 576 765 z m 756 1003 l 756 1131 l 696 1131 l 696 1190 l 565 1190 l 565 1063 l 625 1063 l 625 1003 z m 882 43 l 799 211 l 772 199 l 836 72 l 708 72 l 708 43 z m 610 290 b 563 339 610 317 589 339 b 514 290 536 339 514 318 b 563 243 514 264 535 243 b 610 290 590 243 610 264 z m 649 1025 l 649 1106 l 731 1106 l 731 1025 z m 422 1106 l 500 1106 l 500 1025 l 422 1025 z "},"Å":{"ha":969,"x_min":0,"x_max":0,"o":"m 610 290 b 563 339 610 317 589 339 b 514 290 536 339 514 318 b 563 243 514 264 535 243 b 610 290 590 243 610 264 z m 882 43 l 799 211 l 772 199 l 836 72 l 708 72 l 708 43 z m 960 0 l 194 0 l 576 765 z m 1051 -57 l 576 894 l 549 836 l 463 1008 l -14 57 l 158 57 l 100 -57 z m 403 1144 b 469 1042 403 1099 429 1060 b 572 975 486 1003 526 975 b 682 1085 635 975 682 1024 b 614 1188 682 1131 657 1169 b 513 1256 597 1228 558 1256 b 403 1144 450 1256 403 1207 z m 485 1083 b 571 1169 485 1132 522 1169 b 657 1083 619 1169 657 1132 b 571 997 657 1038 619 997 b 485 1083 522 997 485 1038 z m 542 1083 b 572 1054 542 1067 554 1054 b 601 1083 589 1054 601 1067 b 572 1114 601 1101 589 1114 b 542 1083 554 1114 542 1101 z "},"Æ":{"ha":1381,"x_min":0,"x_max":0,"o":"m 100 -57 l 1356 -57 l 1356 344 l 1240 344 l 1240 421 l 1356 421 l 1356 824 l 1240 824 l 1240 938 l 647 938 l 647 753 l 576 894 l 549 836 l 463 1008 l -14 57 l 158 57 z m 1299 288 l 1299 0 l 1024 0 l 819 407 l 819 765 l 1299 765 l 1299 479 l 1046 479 l 1046 443 l 1165 443 l 1165 324 l 1046 324 l 1046 288 z m 576 765 l 960 0 l 194 0 z m 1083 510 l 1265 510 l 1265 678 l 1238 678 l 1238 539 l 1083 539 z m 1083 33 l 1265 33 l 1265 203 l 1238 203 l 1238 63 l 1083 63 z m 708 43 l 882 43 l 799 211 l 772 199 l 836 72 l 708 72 z m 610 290 b 563 339 610 317 589 339 b 514 290 536 339 514 318 b 563 243 514 264 535 243 b 610 290 590 243 610 264 z "},"Ç":{"ha":996,"x_min":0,"x_max":0,"o":"m 532 357 l 519 331 l 799 183 b 703 100 765 149 735 121 l 718 75 b 847 193 763 107 779 114 z m 558 383 l 901 211 b 558 0 839 89 707 0 b 176 383 346 0 176 171 b 558 765 176 592 349 765 b 901 554 707 765 836 688 z m 653 -240 b 615 -303 653 -275 642 -296 l 615 -328 b 682 -251 647 -328 682 -279 b 681 -240 682 -247 682 -243 z m 708 -237 b 585 -361 708 -306 653 -361 l 585 -237 l 458 -237 b 585 -111 458 -168 515 -111 b 708 -237 653 -111 708 -168 z m 758 -237 b 647 -72 758 -164 715 -100 b 636 -50 644 -64 640 -57 b 978 238 781 -25 893 71 l 839 307 b 863 351 846 322 856 336 l 744 411 l 979 529 b 801 747 933 625 874 697 b 444 938 708 874 589 938 b 3 497 204 938 3 739 b 194 133 3 349 74 217 b 369 -14 239 68 300 18 b 308 -186 331 -51 308 -111 l 424 -186 b 408 -286 414 -218 408 -251 l 435 -286 l 435 -312 b 533 -297 469 -312 503 -307 l 533 -411 b 758 -237 667 -411 758 -344 z "},"È":{"ha":893,"x_min":0,"x_max":0,"o":"m 758 33 l 758 203 l 729 203 l 729 63 l 576 63 l 576 33 z m 758 510 l 758 678 l 729 678 l 729 539 l 576 539 l 576 510 z m 790 0 l 217 0 l 217 765 l 790 765 l 790 479 l 539 479 l 539 443 l 658 443 l 658 324 l 539 324 l 539 288 l 790 288 z m 849 -57 l 849 344 l 733 344 l 733 421 l 849 421 l 849 824 l 733 824 l 733 938 l 44 938 l 44 57 l 160 57 l 160 -57 z m 260 1222 l 419 1046 l 425 1046 l 479 986 l 581 986 l 461 1163 l 442 1163 l 401 1222 z m 449 1138 l 536 1008 l 488 1008 l 372 1138 z "},"É":{"ha":893,"x_min":0,"x_max":0,"o":"m 758 33 l 758 203 l 729 203 l 729 63 l 576 63 l 576 33 z m 758 510 l 758 678 l 729 678 l 729 539 l 576 539 l 576 510 z m 790 0 l 217 0 l 217 765 l 790 765 l 790 479 l 539 479 l 539 443 l 658 443 l 658 324 l 539 324 l 539 288 l 790 288 z m 849 -57 l 849 344 l 733 344 l 733 421 l 849 421 l 849 824 l 733 824 l 733 938 l 44 938 l 44 57 l 160 57 l 160 -57 z m 622 1222 l 481 1222 l 361 1046 l 461 1046 l 421 986 l 522 986 l 682 1163 l 567 1163 z m 511 1008 l 463 1008 l 550 1138 l 628 1138 z "},"Ê":{"ha":893,"x_min":0,"x_max":0,"o":"m 758 33 l 758 203 l 729 203 l 729 63 l 576 63 l 576 33 z m 758 510 l 758 678 l 729 678 l 729 539 l 576 539 l 576 510 z m 790 0 l 217 0 l 217 765 l 790 765 l 790 479 l 539 479 l 539 443 l 658 443 l 658 324 l 539 324 l 539 288 l 790 288 z m 849 -57 l 849 344 l 733 344 l 733 421 l 849 421 l 849 824 l 733 824 l 733 938 l 44 938 l 44 57 l 160 57 l 160 -57 z m 321 1046 l 424 1046 l 381 986 l 636 986 l 510 1163 l 501 1151 l 450 1222 z m 508 1119 l 589 1008 l 426 1008 z "},"Ë":{"ha":893,"x_min":0,"x_max":0,"o":"m 758 33 l 758 203 l 729 203 l 729 63 l 576 63 l 576 33 z m 758 510 l 758 678 l 729 678 l 729 539 l 576 539 l 576 510 z m 790 0 l 217 0 l 217 765 l 790 765 l 790 479 l 539 479 l 539 443 l 658 443 l 658 324 l 539 324 l 539 288 l 790 288 z m 849 -57 l 849 344 l 733 344 l 733 421 l 849 421 l 849 824 l 733 824 l 733 938 l 44 938 l 44 57 l 160 57 l 160 -57 z m 686 1003 l 686 1131 l 626 1131 l 626 1190 l 496 1190 l 496 1063 l 556 1063 l 556 1003 z m 269 1063 l 329 1063 l 329 1003 l 456 1003 l 456 1131 l 396 1131 l 396 1190 l 269 1190 z m 579 1025 l 579 1106 l 661 1106 l 661 1025 z m 353 1106 l 431 1106 l 431 1025 l 353 1025 z "},"Ì":{"ha":608,"x_min":0,"x_max":0,"o":"m 472 33 l 472 203 l 444 203 l 444 63 l 290 63 l 290 33 z m 506 0 l 218 0 l 218 765 l 506 765 z m 563 -57 l 563 824 l 447 824 l 447 938 l 46 938 l 46 57 l 160 57 l 160 -57 z m 111 1222 l 271 1046 l 276 1046 l 331 986 l 432 986 l 313 1163 l 293 1163 l 253 1222 z m 300 1138 l 388 1008 l 339 1008 l 224 1138 z "},"Í":{"ha":608,"x_min":0,"x_max":0,"o":"m 472 33 l 472 203 l 444 203 l 444 63 l 290 63 l 290 33 z m 506 0 l 218 0 l 218 765 l 506 765 z m 563 -57 l 563 824 l 447 824 l 447 938 l 46 938 l 46 57 l 160 57 l 160 -57 z m 500 1222 l 358 1222 l 239 1046 l 339 1046 l 299 986 l 400 986 l 560 1163 l 444 1163 z m 389 1008 l 340 1008 l 428 1138 l 506 1138 z "},"Î":{"ha":608,"x_min":0,"x_max":0,"o":"m 472 33 l 472 203 l 444 203 l 444 63 l 290 63 l 290 33 z m 506 0 l 218 0 l 218 765 l 506 765 z m 563 -57 l 563 824 l 447 824 l 447 938 l 46 938 l 46 57 l 160 57 l 160 -57 z m 190 1046 l 293 1046 l 250 986 l 506 986 l 379 1163 l 371 1151 l 319 1222 z m 378 1119 l 458 1008 l 296 1008 z "},"Ï":{"ha":608,"x_min":0,"x_max":0,"o":"m 472 33 l 472 203 l 444 203 l 444 63 l 290 63 l 290 33 z m 506 0 l 218 0 l 218 765 l 506 765 z m 563 -57 l 563 824 l 447 824 l 447 938 l 46 938 l 46 57 l 160 57 l 160 -57 z m 539 1003 l 539 1131 l 479 1131 l 479 1190 l 349 1190 l 349 1063 l 408 1063 l 408 1003 z m 122 1063 l 182 1063 l 182 1003 l 308 1003 l 308 1131 l 249 1131 l 249 1190 l 122 1190 z m 432 1025 l 432 1106 l 514 1106 l 514 1025 z m 206 1106 l 283 1106 l 283 1025 l 206 1025 z "},"Ð":{"ha":988,"x_min":0,"x_max":0,"o":"m 1022 383 b 831 747 1022 532 951 665 b 467 938 747 868 615 938 l 26 938 l 26 553 l -87 553 l -87 383 l 26 383 l 26 57 l 142 57 l 142 -57 l 582 -57 b 1022 383 824 -57 1022 142 z m 79 308 l 79 443 l 199 443 l 199 765 l 582 765 b 964 383 793 765 964 594 b 582 0 964 174 793 0 l 199 0 l 199 308 z m 903 383 b 582 60 903 214 740 60 l 582 31 b 931 383 772 31 931 196 z m 629 383 b 582 431 629 410 608 431 b 533 383 554 431 533 410 b 582 335 533 356 554 335 b 629 383 608 335 629 356 z "},"Ñ":{"ha":1015,"x_min":0,"x_max":0,"o":"m 897 33 l 897 203 l 868 203 l 868 63 l 714 63 l 714 33 z m 925 0 l 254 0 l 254 765 l 733 288 l 733 765 l 925 765 z m 982 -57 l 982 824 l 868 824 l 868 938 l 561 938 l 561 540 l 82 1019 l 82 57 l 197 57 l 197 -57 z m 381 1106 b 515 1156 419 1140 467 1156 b 690 1110 583 1156 628 1110 b 746 1132 713 1110 735 1117 l 829 1065 b 681 1003 797 1025 733 1003 b 513 1047 621 1003 575 1047 b 450 1024 489 1047 468 1042 z m 371 1067 l 378 1072 l 442 994 b 514 1024 463 1015 488 1024 b 683 979 575 1024 631 979 b 864 1067 753 979 821 1010 l 786 1131 l 793 1139 l 697 1218 b 619 1176 676 1193 649 1176 b 571 1194 603 1176 586 1182 b 447 1221 532 1213 489 1221 b 289 1163 390 1221 335 1203 z "},"Ò":{"ha":1000,"x_min":0,"x_max":0,"o":"m 606 375 b 558 424 606 401 582 424 b 510 375 531 424 510 403 b 558 328 510 349 531 328 b 606 375 585 328 606 349 z m 878 383 b 558 60 878 215 722 60 l 558 31 b 907 383 749 31 907 196 z m 940 383 b 558 0 940 174 769 0 b 175 383 344 0 175 169 b 558 765 175 590 349 765 b 940 383 769 765 940 594 z m 999 383 b 807 747 999 532 928 665 b 443 938 724 868 592 938 b 3 497 203 938 3 738 b 194 133 3 349 74 217 b 558 -57 276 13 408 -57 b 999 383 800 -57 999 142 z m 306 1222 l 465 1046 l 471 1046 l 525 986 l 626 986 l 507 1163 l 488 1163 l 447 1222 z m 494 1138 l 582 1008 l 533 1008 l 418 1138 z "},"Ó":{"ha":1000,"x_min":0,"x_max":0,"o":"m 606 375 b 558 424 606 401 582 424 b 510 375 531 424 510 403 b 558 328 510 349 531 328 b 606 375 585 328 606 349 z m 878 383 b 558 60 878 215 722 60 l 558 31 b 907 383 749 31 907 196 z m 940 383 b 558 0 940 174 769 0 b 175 383 344 0 175 169 b 558 765 175 590 349 765 b 940 383 769 765 940 594 z m 999 383 b 807 747 999 532 928 665 b 443 938 724 868 592 938 b 3 497 203 938 3 738 b 194 133 3 349 74 217 b 558 -57 276 13 408 -57 b 999 383 800 -57 999 142 z m 667 1222 l 525 1222 l 406 1046 l 506 1046 l 465 986 l 567 986 l 726 1163 l 611 1163 z m 556 1008 l 507 1008 l 594 1138 l 672 1138 z "},"Ô":{"ha":1000,"x_min":0,"x_max":0,"o":"m 606 375 b 558 424 606 401 582 424 b 510 375 531 424 510 403 b 558 328 510 349 531 328 b 606 375 585 328 606 349 z m 878 383 b 558 60 878 215 722 60 l 558 31 b 907 383 749 31 907 196 z m 940 383 b 558 0 940 174 769 0 b 175 383 344 0 175 169 b 558 765 175 590 349 765 b 940 383 769 765 940 594 z m 999 383 b 807 747 999 532 928 665 b 443 938 724 868 592 938 b 3 497 203 938 3 738 b 194 133 3 349 74 217 b 558 -57 276 13 408 -57 b 999 383 800 -57 999 142 z m 381 1046 l 483 1046 l 440 986 l 696 986 l 569 1163 l 561 1151 l 510 1222 z m 568 1119 l 649 1008 l 486 1008 z "},"Õ":{"ha":1000,"x_min":0,"x_max":0,"o":"m 606 375 b 558 424 606 401 582 424 b 510 375 531 424 510 403 b 558 328 510 349 531 328 b 606 375 585 328 606 349 z m 878 383 b 558 60 878 215 722 60 l 558 31 b 907 383 749 31 907 196 z m 940 383 b 558 0 940 174 769 0 b 175 383 344 0 175 169 b 558 765 175 590 349 765 b 940 383 769 765 940 594 z m 999 383 b 807 747 999 532 928 665 b 443 938 724 868 592 938 b 3 497 203 938 3 738 b 194 133 3 349 74 217 b 558 -57 276 13 408 -57 b 999 383 800 -57 999 142 z m 333 1106 b 468 1156 372 1140 419 1156 b 643 1110 536 1156 581 1110 b 699 1132 665 1110 688 1117 l 782 1065 b 633 1003 750 1025 686 1003 b 465 1047 574 1003 528 1047 b 403 1024 442 1047 421 1042 z m 324 1067 l 331 1072 l 394 994 b 467 1024 415 1015 440 1024 b 636 979 528 1024 583 979 b 817 1067 706 979 774 1010 l 739 1131 l 746 1139 l 650 1218 b 572 1176 629 1193 601 1176 b 524 1194 556 1176 539 1182 b 400 1221 485 1213 442 1221 b 242 1163 343 1221 288 1203 z "},"Ö":{"ha":1000,"x_min":0,"x_max":0,"o":"m 606 375 b 558 424 606 401 582 424 b 510 375 531 424 510 403 b 558 328 510 349 531 328 b 606 375 585 328 606 349 z m 878 383 b 558 60 878 215 722 60 l 558 31 b 907 383 749 31 907 196 z m 940 383 b 558 0 940 174 769 0 b 175 383 344 0 175 169 b 558 765 175 590 349 765 b 940 383 769 765 940 594 z m 999 383 b 807 747 999 532 928 665 b 443 938 724 868 592 938 b 3 497 203 938 3 738 b 194 133 3 349 74 217 b 558 -57 276 13 408 -57 b 999 383 800 -57 999 142 z m 736 1003 l 736 1131 l 676 1131 l 676 1190 l 546 1190 l 546 1063 l 606 1063 l 606 1003 z m 319 1063 l 379 1063 l 379 1003 l 506 1003 l 506 1131 l 446 1131 l 446 1190 l 319 1190 z m 629 1025 l 629 1106 l 711 1106 l 711 1025 z m 403 1106 l 481 1106 l 481 1025 l 403 1025 z "},"Ø":{"ha":1000,"x_min":0,"x_max":0,"o":"m 993 824 l 807 824 l 878 938 l 551 938 l 544 926 b 443 938 511 933 478 938 b 3 497 203 938 3 738 b 101 218 3 392 38 294 l 1 57 l 188 57 l 117 -57 l 443 -57 l 450 -44 b 557 -57 485 -53 519 -57 b 997 383 801 -57 997 139 b 896 668 997 492 961 590 z m 890 765 l 824 658 b 940 383 896 589 940 492 b 557 0 940 169 769 0 b 425 22 511 0 467 7 l 411 0 l 221 0 l 289 110 b 175 383 218 179 175 275 b 557 765 175 590 350 765 b 685 743 601 765 644 757 l 699 765 z m 860 282 b 557 60 831 190 676 60 l 557 31 b 892 282 703 31 847 140 z m 835 735 l 806 735 l 378 56 l 278 56 l 278 24 l 393 24 z "},"Ù":{"ha":869,"x_min":0,"x_max":0,"o":"m 706 288 b 488 60 706 183 601 60 l 488 31 b 735 288 622 31 735 157 z m 774 288 b 488 0 774 131 647 0 b 200 288 325 0 200 131 l 200 765 l 774 765 z m 832 824 l 717 824 l 717 938 l 28 938 l 28 401 b 193 108 28 281 88 165 b 488 -57 253 3 361 -57 b 832 288 678 -57 832 99 z m 260 1222 l 419 1046 l 425 1046 l 479 986 l 581 986 l 461 1163 l 442 1163 l 401 1222 z m 449 1138 l 536 1008 l 488 1008 l 372 1138 z "},"Ú":{"ha":869,"x_min":0,"x_max":0,"o":"m 706 288 b 488 60 706 183 601 60 l 488 31 b 735 288 622 31 735 157 z m 774 288 b 488 0 774 131 647 0 b 200 288 325 0 200 131 l 200 765 l 774 765 z m 832 824 l 717 824 l 717 938 l 28 938 l 28 401 b 193 108 28 281 88 165 b 488 -57 253 3 361 -57 b 832 288 678 -57 832 99 z m 611 1222 l 469 1222 l 350 1046 l 450 1046 l 410 986 l 511 986 l 671 1163 l 556 1163 z m 500 1008 l 451 1008 l 539 1138 l 617 1138 z "},"Û":{"ha":869,"x_min":0,"x_max":0,"o":"m 706 288 b 488 60 706 183 601 60 l 488 31 b 735 288 622 31 735 157 z m 774 288 b 488 0 774 131 647 0 b 200 288 325 0 200 131 l 200 765 l 774 765 z m 832 824 l 717 824 l 717 938 l 28 938 l 28 401 b 193 108 28 281 88 165 b 488 -57 253 3 361 -57 b 832 288 678 -57 832 99 z m 313 1046 l 415 1046 l 372 986 l 628 986 l 501 1163 l 493 1151 l 442 1222 z m 500 1119 l 581 1008 l 418 1008 z "},"Ü":{"ha":869,"x_min":0,"x_max":0,"o":"m 706 288 b 488 60 706 183 601 60 l 488 31 b 735 288 622 31 735 157 z m 774 288 b 488 0 774 131 647 0 b 200 288 325 0 200 131 l 200 765 l 774 765 z m 832 824 l 717 824 l 717 938 l 28 938 l 28 401 b 193 108 28 281 88 165 b 488 -57 253 3 361 -57 b 832 288 678 -57 832 99 z m 675 1003 l 675 1131 l 615 1131 l 615 1190 l 485 1190 l 485 1063 l 544 1063 l 544 1003 z m 258 1063 l 318 1063 l 318 1003 l 444 1003 l 444 1131 l 385 1131 l 385 1190 l 258 1190 z m 568 1025 l 568 1106 l 650 1106 l 650 1025 z m 342 1106 l 419 1106 l 419 1025 l 342 1025 z "},"Ý":{"ha":761,"x_min":0,"x_max":0,"o":"m 661 724 l 635 738 l 461 396 l 461 63 l 383 63 l 383 33 l 490 33 l 490 389 z m 721 765 l 529 383 l 529 0 l 338 0 l 338 383 l 146 765 z m 814 824 l 642 824 l 699 938 l -62 938 l 165 485 l 165 57 l 281 57 l 281 -57 l 586 -57 l 586 369 z m 547 1222 l 406 1222 l 286 1046 l 386 1046 l 346 986 l 447 986 l 607 1163 l 492 1163 z m 436 1008 l 388 1008 l 475 1138 l 553 1138 z "},"Þ":{"ha":843,"x_min":0,"x_max":0,"o":"m 838 443 b 689 689 838 547 788 629 b 493 835 638 776 540 832 l 493 981 l 14 981 l 14 57 l 129 57 l 129 -57 l 513 -57 l 513 165 l 569 165 b 838 443 722 165 838 299 z m 186 0 l 186 926 l 453 926 l 453 663 l 569 663 b 781 443 685 663 781 557 b 569 222 781 325 689 224 l 454 221 l 454 0 z m 717 442 b 546 283 717 363 622 283 l 396 283 l 396 63 l 242 63 l 242 33 l 425 33 l 425 254 l 546 254 b 746 442 653 254 746 335 z m 600 442 b 553 489 600 469 581 489 b 506 442 525 489 506 469 b 553 393 506 414 525 393 b 600 442 579 393 600 415 z "},"ß":{"ha":1533,"x_min":0,"x_max":0,"o":"m 635 258 b 440 57 635 163 544 57 l 440 29 b 664 258 564 29 664 133 z m 551 672 l 531 692 l 401 551 l 422 531 z m 696 254 b 440 0 696 115 583 0 b 256 74 361 0 300 25 l 440 258 b 186 513 300 258 186 372 b 440 765 186 654 301 765 b 622 690 513 765 574 740 l 440 508 b 696 254 581 508 696 394 z m 753 254 b 596 524 753 367 694 468 b 574 558 589 536 582 547 l 704 690 b 574 790 658 736 615 769 l 589 806 b 325 938 501 893 413 938 b 14 626 156 938 14 800 b 171 357 14 515 75 414 b 194 322 178 344 185 333 l 63 190 b 192 90 101 146 144 113 l 176 75 b 440 -57 256 -12 344 -57 b 753 254 615 -57 753 86 z m 1401 258 b 1207 57 1401 163 1311 57 l 1207 29 b 1431 258 1331 29 1431 133 z m 1318 672 l 1297 692 l 1168 551 l 1189 531 z m 1463 254 b 1207 0 1463 115 1350 0 b 1022 74 1128 0 1067 25 l 1207 258 b 953 513 1067 258 953 372 b 1207 765 953 654 1068 765 b 1389 690 1279 765 1340 740 l 1207 508 b 1463 254 1347 508 1463 394 z m 1519 254 b 1363 524 1519 367 1461 468 b 1340 558 1356 536 1349 547 l 1471 690 b 1340 790 1425 736 1382 769 l 1356 806 b 1092 938 1268 893 1179 938 b 781 626 922 938 781 800 b 938 357 781 515 842 414 b 961 322 944 344 951 333 l 829 190 b 958 90 868 146 911 113 l 943 75 b 1207 -57 1022 -12 1111 -57 b 1519 254 1382 -57 1519 86 z "},"à":{"ha":969,"x_min":0,"x_max":0,"o":"m 610 290 b 563 339 610 317 589 339 b 514 290 536 339 514 318 b 563 243 514 264 535 243 b 610 290 590 243 610 264 z m 882 43 l 799 211 l 772 199 l 836 72 l 708 72 l 708 43 z m 960 0 l 194 0 l 576 765 z m 1051 -57 l 576 894 l 549 836 l 463 1008 l -14 57 l 158 57 l 100 -57 z m 324 1222 l 483 1046 l 489 1046 l 543 986 l 644 986 l 525 1163 l 506 1163 l 465 1222 z m 513 1138 l 600 1008 l 551 1008 l 436 1138 z "},"á":{"ha":969,"x_min":0,"x_max":0,"o":"m 610 290 b 563 339 610 317 589 339 b 514 290 536 339 514 318 b 563 243 514 264 535 243 b 610 290 590 243 610 264 z m 882 43 l 799 211 l 772 199 l 836 72 l 708 72 l 708 43 z m 960 0 l 194 0 l 576 765 z m 1051 -57 l 576 894 l 549 836 l 463 1008 l -14 57 l 158 57 l 100 -57 z m 681 1222 l 539 1222 l 419 1046 l 519 1046 l 479 986 l 581 986 l 740 1163 l 625 1163 z m 569 1008 l 521 1008 l 608 1138 l 686 1138 z "},"â":{"ha":969,"x_min":0,"x_max":0,"o":"m 610 290 b 563 339 610 317 589 339 b 514 290 536 339 514 318 b 563 243 514 264 535 243 b 610 290 590 243 610 264 z m 882 43 l 799 211 l 772 199 l 836 72 l 708 72 l 708 43 z m 960 0 l 194 0 l 576 765 z m 579 1119 l 660 1008 l 497 1008 z m 392 1046 l 494 1046 l 451 986 l -14 57 l 158 57 l 100 -57 l 1051 -57 l 576 894 l 549 836 l 474 986 l 707 986 l 581 1163 l 572 1151 l 521 1222 z "},"ã":{"ha":969,"x_min":0,"x_max":0,"o":"m 610 290 b 563 339 610 317 589 339 b 514 290 536 339 514 318 b 563 243 514 264 535 243 b 610 290 590 243 610 264 z m 882 43 l 799 211 l 772 199 l 836 72 l 708 72 l 708 43 z m 960 0 l 194 0 l 576 765 z m 1051 -57 l 576 894 l 549 836 l 463 1008 l -14 57 l 158 57 l 100 -57 z m 344 1106 b 479 1156 383 1140 431 1156 b 654 1110 547 1156 592 1110 b 710 1132 676 1110 699 1117 l 793 1065 b 644 1003 761 1025 697 1003 b 476 1047 585 1003 539 1047 b 414 1024 453 1047 432 1042 z m 335 1067 l 342 1072 l 406 994 b 478 1024 426 1015 451 1024 b 647 979 539 1024 594 979 b 828 1067 717 979 785 1010 l 750 1131 l 757 1139 l 661 1218 b 583 1176 640 1193 613 1176 b 535 1194 567 1176 550 1182 b 411 1221 496 1213 453 1221 b 253 1163 354 1221 299 1203 z "},"ä":{"ha":969,"x_min":0,"x_max":0,"o":"m 339 1063 l 399 1063 l 399 1003 l 460 1003 l -14 57 l 158 57 l 100 -57 l 1051 -57 l 576 894 l 549 836 l 465 1003 l 525 1003 l 525 1131 l 465 1131 l 465 1190 l 339 1190 z m 960 0 l 194 0 l 576 765 z m 756 1003 l 756 1131 l 696 1131 l 696 1190 l 565 1190 l 565 1063 l 625 1063 l 625 1003 z m 882 43 l 799 211 l 772 199 l 836 72 l 708 72 l 708 43 z m 610 290 b 563 339 610 317 589 339 b 514 290 536 339 514 318 b 563 243 514 264 535 243 b 610 290 590 243 610 264 z m 649 1025 l 649 1106 l 731 1106 l 731 1025 z m 422 1106 l 500 1106 l 500 1025 l 422 1025 z "},"å":{"ha":969,"x_min":0,"x_max":0,"o":"m 610 290 b 563 339 610 317 589 339 b 514 290 536 339 514 318 b 563 243 514 264 535 243 b 610 290 590 243 610 264 z m 882 43 l 799 211 l 772 199 l 836 72 l 708 72 l 708 43 z m 960 0 l 194 0 l 576 765 z m 1051 -57 l 576 894 l 549 836 l 463 1008 l -14 57 l 158 57 l 100 -57 z m 403 1144 b 469 1042 403 1099 429 1060 b 572 975 486 1003 526 975 b 682 1085 635 975 682 1024 b 614 1188 682 1131 657 1169 b 513 1256 597 1228 558 1256 b 403 1144 450 1256 403 1207 z m 485 1083 b 571 1169 485 1132 522 1169 b 657 1083 619 1169 657 1132 b 571 997 657 1038 619 997 b 485 1083 522 997 485 1038 z m 542 1083 b 572 1054 542 1067 554 1054 b 601 1083 589 1054 601 1067 b 572 1114 601 1101 589 1114 b 542 1083 554 1114 542 1101 z "},"æ":{"ha":1381,"x_min":0,"x_max":0,"o":"m 100 -57 l 1356 -57 l 1356 344 l 1240 344 l 1240 421 l 1356 421 l 1356 824 l 1240 824 l 1240 938 l 647 938 l 647 753 l 576 894 l 549 836 l 463 1008 l -14 57 l 158 57 z m 1299 288 l 1299 0 l 1024 0 l 819 407 l 819 765 l 1299 765 l 1299 479 l 1046 479 l 1046 443 l 1165 443 l 1165 324 l 1046 324 l 1046 288 z m 576 765 l 960 0 l 194 0 z m 1083 510 l 1265 510 l 1265 678 l 1238 678 l 1238 539 l 1083 539 z m 1083 33 l 1265 33 l 1265 203 l 1238 203 l 1238 63 l 1083 63 z m 708 43 l 882 43 l 799 211 l 772 199 l 836 72 l 708 72 z m 610 290 b 563 339 610 317 589 339 b 514 290 536 339 514 318 b 563 243 514 264 535 243 b 610 290 590 243 610 264 z "},"ç":{"ha":996,"x_min":0,"x_max":0,"o":"m 532 357 l 519 331 l 799 183 b 703 100 765 149 735 121 l 718 75 b 847 193 763 107 779 114 z m 558 383 l 901 211 b 558 0 839 89 707 0 b 176 383 346 0 176 171 b 558 765 176 592 349 765 b 901 554 707 765 836 688 z m 653 -240 b 615 -303 653 -275 642 -296 l 615 -328 b 682 -251 647 -328 682 -279 b 681 -240 682 -247 682 -243 z m 708 -237 b 585 -361 708 -306 653 -361 l 585 -237 l 458 -237 b 585 -111 458 -168 515 -111 b 708 -237 653 -111 708 -168 z m 758 -237 b 647 -72 758 -164 715 -100 b 636 -50 644 -64 640 -57 b 978 238 781 -25 893 71 l 839 307 b 863 351 846 322 856 336 l 744 411 l 979 529 b 801 747 933 625 874 697 b 444 938 708 874 589 938 b 3 497 204 938 3 739 b 194 133 3 349 74 217 b 369 -14 239 68 300 18 b 308 -186 331 -51 308 -111 l 424 -186 b 408 -286 414 -218 408 -251 l 435 -286 l 435 -312 b 533 -297 469 -312 503 -307 l 533 -411 b 758 -237 667 -411 758 -344 z "},"è":{"ha":893,"x_min":0,"x_max":0,"o":"m 758 33 l 758 203 l 729 203 l 729 63 l 576 63 l 576 33 z m 758 510 l 758 678 l 729 678 l 729 539 l 576 539 l 576 510 z m 790 0 l 217 0 l 217 765 l 790 765 l 790 479 l 539 479 l 539 443 l 658 443 l 658 324 l 539 324 l 539 288 l 790 288 z m 849 -57 l 849 344 l 733 344 l 733 421 l 849 421 l 849 824 l 733 824 l 733 938 l 44 938 l 44 57 l 160 57 l 160 -57 z m 260 1222 l 419 1046 l 425 1046 l 479 986 l 581 986 l 461 1163 l 442 1163 l 401 1222 z m 449 1138 l 536 1008 l 488 1008 l 372 1138 z "},"é":{"ha":893,"x_min":0,"x_max":0,"o":"m 758 33 l 758 203 l 729 203 l 729 63 l 576 63 l 576 33 z m 758 510 l 758 678 l 729 678 l 729 539 l 576 539 l 576 510 z m 790 0 l 217 0 l 217 765 l 790 765 l 790 479 l 539 479 l 539 443 l 658 443 l 658 324 l 539 324 l 539 288 l 790 288 z m 849 -57 l 849 344 l 733 344 l 733 421 l 849 421 l 849 824 l 733 824 l 733 938 l 44 938 l 44 57 l 160 57 l 160 -57 z m 622 1222 l 481 1222 l 361 1046 l 461 1046 l 421 986 l 522 986 l 682 1163 l 567 1163 z m 511 1008 l 463 1008 l 550 1138 l 628 1138 z "},"ê":{"ha":893,"x_min":0,"x_max":0,"o":"m 758 33 l 758 203 l 729 203 l 729 63 l 576 63 l 576 33 z m 758 510 l 758 678 l 729 678 l 729 539 l 576 539 l 576 510 z m 790 0 l 217 0 l 217 765 l 790 765 l 790 479 l 539 479 l 539 443 l 658 443 l 658 324 l 539 324 l 539 288 l 790 288 z m 849 -57 l 849 344 l 733 344 l 733 421 l 849 421 l 849 824 l 733 824 l 733 938 l 44 938 l 44 57 l 160 57 l 160 -57 z m 321 1046 l 424 1046 l 381 986 l 636 986 l 510 1163 l 501 1151 l 450 1222 z m 508 1119 l 589 1008 l 426 1008 z "},"ë":{"ha":893,"x_min":0,"x_max":0,"o":"m 758 33 l 758 203 l 729 203 l 729 63 l 576 63 l 576 33 z m 758 510 l 758 678 l 729 678 l 729 539 l 576 539 l 576 510 z m 790 0 l 217 0 l 217 765 l 790 765 l 790 479 l 539 479 l 539 443 l 658 443 l 658 324 l 539 324 l 539 288 l 790 288 z m 849 -57 l 849 344 l 733 344 l 733 421 l 849 421 l 849 824 l 733 824 l 733 938 l 44 938 l 44 57 l 160 57 l 160 -57 z m 686 1003 l 686 1131 l 626 1131 l 626 1190 l 496 1190 l 496 1063 l 556 1063 l 556 1003 z m 269 1063 l 329 1063 l 329 1003 l 456 1003 l 456 1131 l 396 1131 l 396 1190 l 269 1190 z m 579 1025 l 579 1106 l 661 1106 l 661 1025 z m 353 1106 l 431 1106 l 431 1025 l 353 1025 z "},"ì":{"ha":608,"x_min":0,"x_max":0,"o":"m 472 33 l 472 203 l 444 203 l 444 63 l 290 63 l 290 33 z m 506 0 l 218 0 l 218 765 l 506 765 z m 563 -57 l 563 824 l 447 824 l 447 938 l 46 938 l 46 57 l 160 57 l 160 -57 z m 111 1222 l 271 1046 l 276 1046 l 331 986 l 432 986 l 313 1163 l 293 1163 l 253 1222 z m 300 1138 l 388 1008 l 339 1008 l 224 1138 z "},"í":{"ha":608,"x_min":0,"x_max":0,"o":"m 472 33 l 472 203 l 444 203 l 444 63 l 290 63 l 290 33 z m 506 0 l 218 0 l 218 765 l 506 765 z m 563 -57 l 563 824 l 447 824 l 447 938 l 46 938 l 46 57 l 160 57 l 160 -57 z m 500 1222 l 358 1222 l 239 1046 l 339 1046 l 299 986 l 400 986 l 560 1163 l 444 1163 z m 389 1008 l 340 1008 l 428 1138 l 506 1138 z "},"î":{"ha":608,"x_min":0,"x_max":0,"o":"m 472 33 l 472 203 l 444 203 l 444 63 l 290 63 l 290 33 z m 506 0 l 218 0 l 218 765 l 506 765 z m 563 -57 l 563 824 l 447 824 l 447 938 l 46 938 l 46 57 l 160 57 l 160 -57 z m 190 1046 l 293 1046 l 250 986 l 506 986 l 379 1163 l 371 1151 l 319 1222 z m 378 1119 l 458 1008 l 296 1008 z "},"ï":{"ha":608,"x_min":0,"x_max":0,"o":"m 472 33 l 472 203 l 444 203 l 444 63 l 290 63 l 290 33 z m 506 0 l 218 0 l 218 765 l 506 765 z m 563 -57 l 563 824 l 447 824 l 447 938 l 46 938 l 46 57 l 160 57 l 160 -57 z m 539 1003 l 539 1131 l 479 1131 l 479 1190 l 349 1190 l 349 1063 l 408 1063 l 408 1003 z m 122 1063 l 182 1063 l 182 1003 l 308 1003 l 308 1131 l 249 1131 l 249 1190 l 122 1190 z m 432 1025 l 432 1106 l 514 1106 l 514 1025 z m 206 1106 l 283 1106 l 283 1025 l 206 1025 z "},"ð":{"ha":988,"x_min":0,"x_max":0,"o":"m 1022 383 b 831 747 1022 532 951 665 b 467 938 747 868 615 938 l 26 938 l 26 553 l -87 553 l -87 383 l 26 383 l 26 57 l 142 57 l 142 -57 l 582 -57 b 1022 383 824 -57 1022 142 z m 79 308 l 79 443 l 199 443 l 199 765 l 582 765 b 964 383 793 765 964 594 b 582 0 964 174 793 0 l 199 0 l 199 308 z m 903 383 b 582 60 903 214 740 60 l 582 31 b 931 383 772 31 931 196 z m 629 383 b 582 431 629 410 608 431 b 533 383 554 431 533 410 b 582 335 533 356 554 335 b 629 383 608 335 629 356 z "},"ñ":{"ha":1015,"x_min":0,"x_max":0,"o":"m 897 33 l 897 203 l 868 203 l 868 63 l 714 63 l 714 33 z m 925 0 l 254 0 l 254 765 l 733 288 l 733 765 l 925 765 z m 982 -57 l 982 824 l 868 824 l 868 938 l 561 938 l 561 540 l 82 1019 l 82 57 l 197 57 l 197 -57 z m 381 1106 b 515 1156 419 1140 467 1156 b 690 1110 583 1156 628 1110 b 746 1132 713 1110 735 1117 l 829 1065 b 681 1003 797 1025 733 1003 b 513 1047 621 1003 575 1047 b 450 1024 489 1047 468 1042 z m 371 1067 l 378 1072 l 442 994 b 514 1024 463 1015 488 1024 b 683 979 575 1024 631 979 b 864 1067 753 979 821 1010 l 786 1131 l 793 1139 l 697 1218 b 619 1176 676 1193 649 1176 b 571 1194 603 1176 586 1182 b 447 1221 532 1213 489 1221 b 289 1163 390 1221 335 1203 z "},"ò":{"ha":1000,"x_min":0,"x_max":0,"o":"m 606 375 b 558 424 606 401 582 424 b 510 375 531 424 510 403 b 558 328 510 349 531 328 b 606 375 585 328 606 349 z m 878 383 b 558 60 878 215 722 60 l 558 31 b 907 383 749 31 907 196 z m 940 383 b 558 0 940 174 769 0 b 175 383 344 0 175 169 b 558 765 175 590 349 765 b 940 383 769 765 940 594 z m 999 383 b 807 747 999 532 928 665 b 443 938 724 868 592 938 b 3 497 203 938 3 738 b 194 133 3 349 74 217 b 558 -57 276 13 408 -57 b 999 383 800 -57 999 142 z m 306 1222 l 465 1046 l 471 1046 l 525 986 l 626 986 l 507 1163 l 488 1163 l 447 1222 z m 494 1138 l 582 1008 l 533 1008 l 418 1138 z "},"ó":{"ha":1000,"x_min":0,"x_max":0,"o":"m 606 375 b 558 424 606 401 582 424 b 510 375 531 424 510 403 b 558 328 510 349 531 328 b 606 375 585 328 606 349 z m 878 383 b 558 60 878 215 722 60 l 558 31 b 907 383 749 31 907 196 z m 940 383 b 558 0 940 174 769 0 b 175 383 344 0 175 169 b 558 765 175 590 349 765 b 940 383 769 765 940 594 z m 999 383 b 807 747 999 532 928 665 b 443 938 724 868 592 938 b 3 497 203 938 3 738 b 194 133 3 349 74 217 b 558 -57 276 13 408 -57 b 999 383 800 -57 999 142 z m 667 1222 l 525 1222 l 406 1046 l 506 1046 l 465 986 l 567 986 l 726 1163 l 611 1163 z m 556 1008 l 507 1008 l 594 1138 l 672 1138 z "},"ô":{"ha":1000,"x_min":0,"x_max":0,"o":"m 606 375 b 558 424 606 401 582 424 b 510 375 531 424 510 403 b 558 328 510 349 531 328 b 606 375 585 328 606 349 z m 878 383 b 558 60 878 215 722 60 l 558 31 b 907 383 749 31 907 196 z m 940 383 b 558 0 940 174 769 0 b 175 383 344 0 175 169 b 558 765 175 590 349 765 b 940 383 769 765 940 594 z m 999 383 b 807 747 999 532 928 665 b 443 938 724 868 592 938 b 3 497 203 938 3 738 b 194 133 3 349 74 217 b 558 -57 276 13 408 -57 b 999 383 800 -57 999 142 z m 381 1046 l 483 1046 l 440 986 l 696 986 l 569 1163 l 561 1151 l 510 1222 z m 568 1119 l 649 1008 l 486 1008 z "},"õ":{"ha":1000,"x_min":0,"x_max":0,"o":"m 606 375 b 558 424 606 401 582 424 b 510 375 531 424 510 403 b 558 328 510 349 531 328 b 606 375 585 328 606 349 z m 878 383 b 558 60 878 215 722 60 l 558 31 b 907 383 749 31 907 196 z m 940 383 b 558 0 940 174 769 0 b 175 383 344 0 175 169 b 558 765 175 590 349 765 b 940 383 769 765 940 594 z m 999 383 b 807 747 999 532 928 665 b 443 938 724 868 592 938 b 3 497 203 938 3 738 b 194 133 3 349 74 217 b 558 -57 276 13 408 -57 b 999 383 800 -57 999 142 z m 333 1106 b 468 1156 372 1140 419 1156 b 643 1110 536 1156 581 1110 b 699 1132 665 1110 688 1117 l 782 1065 b 633 1003 750 1025 686 1003 b 465 1047 574 1003 528 1047 b 403 1024 442 1047 421 1042 z m 324 1067 l 331 1072 l 394 994 b 467 1024 415 1015 440 1024 b 636 979 528 1024 583 979 b 817 1067 706 979 774 1010 l 739 1131 l 746 1139 l 650 1218 b 572 1176 629 1193 601 1176 b 524 1194 556 1176 539 1182 b 400 1221 485 1213 442 1221 b 242 1163 343 1221 288 1203 z "},"ö":{"ha":1000,"x_min":0,"x_max":0,"o":"m 606 375 b 558 424 606 401 582 424 b 510 375 531 424 510 403 b 558 328 510 349 531 328 b 606 375 585 328 606 349 z m 878 383 b 558 60 878 215 722 60 l 558 31 b 907 383 749 31 907 196 z m 940 383 b 558 0 940 174 769 0 b 175 383 344 0 175 169 b 558 765 175 590 349 765 b 940 383 769 765 940 594 z m 999 383 b 807 747 999 532 928 665 b 443 938 724 868 592 938 b 3 497 203 938 3 738 b 194 133 3 349 74 217 b 558 -57 276 13 408 -57 b 999 383 800 -57 999 142 z m 736 1003 l 736 1131 l 676 1131 l 676 1190 l 546 1190 l 546 1063 l 606 1063 l 606 1003 z m 319 1063 l 379 1063 l 379 1003 l 506 1003 l 506 1131 l 446 1131 l 446 1190 l 319 1190 z m 629 1025 l 629 1106 l 711 1106 l 711 1025 z m 403 1106 l 481 1106 l 481 1025 l 403 1025 z "},"ø":{"ha":1000,"x_min":0,"x_max":0,"o":"m 993 824 l 807 824 l 878 938 l 551 938 l 544 926 b 443 938 511 933 478 938 b 3 497 203 938 3 738 b 101 218 3 392 38 294 l 1 57 l 188 57 l 117 -57 l 443 -57 l 450 -44 b 557 -57 485 -53 519 -57 b 997 383 801 -57 997 139 b 896 668 997 492 961 590 z m 890 765 l 824 658 b 940 383 896 589 940 492 b 557 0 940 169 769 0 b 425 22 511 0 467 7 l 411 0 l 221 0 l 289 110 b 175 383 218 179 175 275 b 557 765 175 590 350 765 b 685 743 601 765 644 757 l 699 765 z m 860 282 b 557 60 831 190 676 60 l 557 31 b 892 282 703 31 847 140 z m 835 735 l 806 735 l 378 56 l 278 56 l 278 24 l 393 24 z "},"ù":{"ha":869,"x_min":0,"x_max":0,"o":"m 706 288 b 488 60 706 183 601 60 l 488 31 b 735 288 622 31 735 157 z m 774 288 b 488 0 774 131 647 0 b 200 288 325 0 200 131 l 200 765 l 774 765 z m 832 824 l 717 824 l 717 938 l 28 938 l 28 401 b 193 108 28 281 88 165 b 488 -57 253 3 361 -57 b 832 288 678 -57 832 99 z m 260 1222 l 419 1046 l 425 1046 l 479 986 l 581 986 l 461 1163 l 442 1163 l 401 1222 z m 449 1138 l 536 1008 l 488 1008 l 372 1138 z "},"ú":{"ha":869,"x_min":0,"x_max":0,"o":"m 706 288 b 488 60 706 183 601 60 l 488 31 b 735 288 622 31 735 157 z m 774 288 b 488 0 774 131 647 0 b 200 288 325 0 200 131 l 200 765 l 774 765 z m 832 824 l 717 824 l 717 938 l 28 938 l 28 401 b 193 108 28 281 88 165 b 488 -57 253 3 361 -57 b 832 288 678 -57 832 99 z m 611 1222 l 469 1222 l 350 1046 l 450 1046 l 410 986 l 511 986 l 671 1163 l 556 1163 z m 500 1008 l 451 1008 l 539 1138 l 617 1138 z "},"û":{"ha":869,"x_min":0,"x_max":0,"o":"m 706 288 b 488 60 706 183 601 60 l 488 31 b 735 288 622 31 735 157 z m 774 288 b 488 0 774 131 647 0 b 200 288 325 0 200 131 l 200 765 l 774 765 z m 832 824 l 717 824 l 717 938 l 28 938 l 28 401 b 193 108 28 281 88 165 b 488 -57 253 3 361 -57 b 832 288 678 -57 832 99 z m 313 1046 l 415 1046 l 372 986 l 628 986 l 501 1163 l 493 1151 l 442 1222 z m 500 1119 l 581 1008 l 418 1008 z "},"ü":{"ha":869,"x_min":0,"x_max":0,"o":"m 706 288 b 488 60 706 183 601 60 l 488 31 b 735 288 622 31 735 157 z m 774 288 b 488 0 774 131 647 0 b 200 288 325 0 200 131 l 200 765 l 774 765 z m 832 824 l 717 824 l 717 938 l 28 938 l 28 401 b 193 108 28 281 88 165 b 488 -57 253 3 361 -57 b 832 288 678 -57 832 99 z m 675 1003 l 675 1131 l 615 1131 l 615 1190 l 485 1190 l 485 1063 l 544 1063 l 544 1003 z m 258 1063 l 318 1063 l 318 1003 l 444 1003 l 444 1131 l 385 1131 l 385 1190 l 258 1190 z m 568 1025 l 568 1106 l 650 1106 l 650 1025 z m 342 1106 l 419 1106 l 419 1025 l 342 1025 z "},"ý":{"ha":761,"x_min":0,"x_max":0,"o":"m 661 724 l 635 738 l 461 396 l 461 63 l 383 63 l 383 33 l 490 33 l 490 389 z m 721 765 l 529 383 l 529 0 l 338 0 l 338 383 l 146 765 z m 814 824 l 642 824 l 699 938 l -62 938 l 165 485 l 165 57 l 281 57 l 281 -57 l 586 -57 l 586 369 z m 547 1222 l 406 1222 l 286 1046 l 386 1046 l 346 986 l 447 986 l 607 1163 l 492 1163 z m 436 1008 l 388 1008 l 475 1138 l 553 1138 z "},"þ":{"ha":843,"x_min":0,"x_max":0,"o":"m 838 443 b 689 689 838 547 788 629 b 493 835 638 776 540 832 l 493 981 l 14 981 l 14 57 l 129 57 l 129 -57 l 513 -57 l 513 165 l 569 165 b 838 443 722 165 838 299 z m 186 0 l 186 926 l 453 926 l 453 663 l 569 663 b 781 443 685 663 781 557 b 569 222 781 325 689 224 l 454 221 l 454 0 z m 717 442 b 546 283 717 363 622 283 l 396 283 l 396 63 l 242 63 l 242 33 l 425 33 l 425 254 l 546 254 b 746 442 653 254 746 335 z m 600 442 b 553 489 600 469 581 489 b 506 442 525 489 506 469 b 553 393 506 414 525 393 b 600 442 579 393 600 415 z "},"ÿ":{"ha":761,"x_min":0,"x_max":0,"o":"m 661 724 l 635 738 l 461 396 l 461 63 l 383 63 l 383 33 l 490 33 l 490 389 z m 721 765 l 529 383 l 529 0 l 338 0 l 338 383 l 146 765 z m 814 824 l 642 824 l 699 938 l -62 938 l 165 485 l 165 57 l 281 57 l 281 -57 l 586 -57 l 586 369 z m 615 1003 l 615 1131 l 556 1131 l 556 1190 l 425 1190 l 425 1063 l 485 1063 l 485 1003 z m 199 1063 l 258 1063 l 258 1003 l 385 1003 l 385 1131 l 325 1131 l 325 1190 l 199 1190 z m 508 1025 l 508 1106 l 590 1106 l 590 1025 z m 282 1106 l 360 1106 l 360 1025 l 282 1025 z "},"Ā":{"ha":969,"x_min":0,"x_max":0,"o":"m 351 1063 l 411 1063 l 411 1003 l 460 1003 l -14 57 l 158 57 l 100 -57 l 1051 -57 l 576 894 l 549 836 l 465 1003 l 768 1003 l 768 1131 l 708 1131 l 708 1190 l 351 1190 z m 960 0 l 194 0 l 576 765 z m 435 1106 l 743 1106 l 743 1025 l 435 1025 z m 882 43 l 799 211 l 772 199 l 836 72 l 708 72 l 708 43 z m 610 290 b 563 339 610 317 589 339 b 514 290 536 339 514 318 b 563 243 514 264 535 243 b 610 290 590 243 610 264 z "},"ā":{"ha":969,"x_min":0,"x_max":0,"o":"m 351 1063 l 411 1063 l 411 1003 l 460 1003 l -14 57 l 158 57 l 100 -57 l 1051 -57 l 576 894 l 549 836 l 465 1003 l 768 1003 l 768 1131 l 708 1131 l 708 1190 l 351 1190 z m 960 0 l 194 0 l 576 765 z m 435 1106 l 743 1106 l 743 1025 l 435 1025 z m 882 43 l 799 211 l 772 199 l 836 72 l 708 72 l 708 43 z m 610 290 b 563 339 610 317 589 339 b 514 290 536 339 514 318 b 563 243 514 264 535 243 b 610 290 590 243 610 264 z "},"Ă":{"ha":969,"x_min":0,"x_max":0,"o":"m 610 290 b 563 339 610 317 589 339 b 514 290 536 339 514 318 b 563 243 514 264 535 243 b 610 290 590 243 610 264 z m 882 43 l 799 211 l 772 199 l 836 72 l 708 72 l 708 43 z m 960 0 l 194 0 l 576 765 z m 592 978 b 449 1097 518 978 460 1029 l 732 1097 b 592 978 721 1029 663 978 z m 622 1042 l 622 1014 b 685 1063 653 1022 674 1038 l 653 1063 b 622 1042 644 1053 635 1046 z m 289 1193 b 404 1049 289 1121 336 1064 b 449 981 414 1022 429 999 l -14 57 l 158 57 l 100 -57 l 1051 -57 l 576 894 l 549 836 l 493 946 b 592 921 522 929 556 921 b 792 1121 693 921 792 996 l 792 1151 l 674 1151 l 674 1256 l 289 1256 z "},"ă":{"ha":969,"x_min":0,"x_max":0,"o":"m 610 290 b 563 339 610 317 589 339 b 514 290 536 339 514 318 b 563 243 514 264 535 243 b 610 290 590 243 610 264 z m 882 43 l 799 211 l 772 199 l 836 72 l 708 72 l 708 43 z m 960 0 l 194 0 l 576 765 z m 592 978 b 449 1097 518 978 460 1029 l 732 1097 b 592 978 721 1029 663 978 z m 622 1042 l 622 1014 b 685 1063 653 1022 674 1038 l 653 1063 b 622 1042 644 1053 635 1046 z m 289 1193 b 404 1049 289 1121 336 1064 b 449 981 414 1022 429 999 l -14 57 l 158 57 l 100 -57 l 1051 -57 l 576 894 l 549 836 l 493 946 b 592 921 522 929 556 921 b 792 1121 693 921 792 996 l 792 1151 l 674 1151 l 674 1256 l 289 1256 z "},"Ą":{"ha":969,"x_min":0,"x_max":0,"o":"m 610 290 b 563 339 610 317 589 339 b 514 290 536 339 514 318 b 563 243 514 264 535 243 b 610 290 590 243 610 264 z m 882 43 l 799 211 l 772 199 l 836 72 l 708 72 l 708 43 z m 960 0 l 194 0 l 576 765 z m 929 -233 b 885 -279 929 -254 914 -269 l 885 -318 b 958 -233 933 -307 958 -279 z m 1004 -210 b 860 -353 1004 -289 939 -353 b 717 -210 781 -353 717 -289 b 860 -67 717 -131 781 -67 l 860 -210 z m 919 -153 b 936 -57 928 -122 935 -90 l 1051 -57 l 576 894 l 549 836 l 463 1008 l -14 57 l 158 57 l 100 -57 l 538 -57 b 535 -94 536 -68 535 -81 b 664 -283 535 -178 586 -251 b 850 -411 693 -360 768 -411 b 1051 -153 972 -411 1051 -308 z "},"ą":{"ha":969,"x_min":0,"x_max":0,"o":"m 610 290 b 563 339 610 317 589 339 b 514 290 536 339 514 318 b 563 243 514 264 535 243 b 610 290 590 243 610 264 z m 882 43 l 799 211 l 772 199 l 836 72 l 708 72 l 708 43 z m 960 0 l 194 0 l 576 765 z m 929 -233 b 885 -279 929 -254 914 -269 l 885 -318 b 958 -233 933 -307 958 -279 z m 1004 -210 b 860 -353 1004 -289 939 -353 b 717 -210 781 -353 717 -289 b 860 -67 717 -131 781 -67 l 860 -210 z m 919 -153 b 936 -57 928 -122 935 -90 l 1051 -57 l 576 894 l 549 836 l 463 1008 l -14 57 l 158 57 l 100 -57 l 538 -57 b 535 -94 536 -68 535 -81 b 664 -283 535 -178 586 -251 b 850 -411 693 -360 768 -411 b 1051 -153 972 -411 1051 -308 z "},"Ć":{"ha":996,"x_min":0,"x_max":0,"o":"m 532 357 l 519 331 l 799 183 b 703 100 765 149 735 121 l 718 75 b 847 193 763 107 779 114 z m 558 383 l 901 211 b 558 0 839 89 707 0 b 176 383 346 0 176 171 b 558 765 176 592 349 765 b 901 554 707 765 836 688 z m 979 529 b 801 747 933 625 874 697 b 444 938 708 874 589 938 b 3 497 204 938 3 739 b 194 133 3 349 74 217 b 558 -57 276 15 413 -57 b 978 238 740 -57 879 42 l 839 307 b 863 351 846 322 856 336 l 744 411 z m 654 1222 l 513 1222 l 393 1046 l 493 1046 l 453 986 l 554 986 l 714 1163 l 599 1163 z m 543 1008 l 494 1008 l 582 1138 l 660 1138 z "},"ć":{"ha":996,"x_min":0,"x_max":0,"o":"m 532 357 l 519 331 l 799 183 b 703 100 765 149 735 121 l 718 75 b 847 193 763 107 779 114 z m 558 383 l 901 211 b 558 0 839 89 707 0 b 176 383 346 0 176 171 b 558 765 176 592 349 765 b 901 554 707 765 836 688 z m 979 529 b 801 747 933 625 874 697 b 444 938 708 874 589 938 b 3 497 204 938 3 739 b 194 133 3 349 74 217 b 558 -57 276 15 413 -57 b 978 238 740 -57 879 42 l 839 307 b 863 351 846 322 856 336 l 744 411 z m 654 1222 l 513 1222 l 393 1046 l 493 1046 l 453 986 l 554 986 l 714 1163 l 599 1163 z m 543 1008 l 494 1008 l 582 1138 l 660 1138 z "},"Ċ":{"ha":996,"x_min":0,"x_max":0,"o":"m 532 357 l 519 331 l 799 183 b 703 100 765 149 735 121 l 718 75 b 847 193 763 107 779 114 z m 558 383 l 901 211 b 558 0 839 89 707 0 b 176 383 346 0 176 171 b 558 765 176 592 349 765 b 901 554 707 765 836 688 z m 979 529 b 801 747 933 625 874 697 b 444 938 708 874 589 938 b 3 497 204 938 3 739 b 194 133 3 349 74 217 b 558 -57 276 15 413 -57 b 978 238 740 -57 879 42 l 839 307 b 863 351 846 322 856 336 l 744 411 z m 438 1063 l 497 1063 l 497 1003 l 624 1003 l 624 1131 l 564 1131 l 564 1190 l 438 1190 z m 521 1106 l 599 1106 l 599 1025 l 521 1025 z "},"ċ":{"ha":996,"x_min":0,"x_max":0,"o":"m 532 357 l 519 331 l 799 183 b 703 100 765 149 735 121 l 718 75 b 847 193 763 107 779 114 z m 558 383 l 901 211 b 558 0 839 89 707 0 b 176 383 346 0 176 171 b 558 765 176 592 349 765 b 901 554 707 765 836 688 z m 979 529 b 801 747 933 625 874 697 b 444 938 708 874 589 938 b 3 497 204 938 3 739 b 194 133 3 349 74 217 b 558 -57 276 15 413 -57 b 978 238 740 -57 879 42 l 839 307 b 863 351 846 322 856 336 l 744 411 z m 438 1063 l 497 1063 l 497 1003 l 624 1003 l 624 1131 l 564 1131 l 564 1190 l 438 1190 z m 521 1106 l 599 1106 l 599 1025 l 521 1025 z "},"Č":{"ha":996,"x_min":0,"x_max":0,"o":"m 532 357 l 519 331 l 799 183 b 703 100 765 149 735 121 l 718 75 b 847 193 763 107 779 114 z m 558 383 l 901 211 b 558 0 839 89 707 0 b 176 383 346 0 176 171 b 558 765 176 592 349 765 b 901 554 707 765 836 688 z m 979 529 b 801 747 933 625 874 697 b 444 938 708 874 589 938 b 3 497 204 938 3 739 b 194 133 3 349 74 217 b 558 -57 276 15 413 -57 b 978 238 740 -57 879 42 l 839 307 b 863 351 846 322 856 336 l 744 411 z m 625 1222 l 369 1222 l 496 1046 l 504 1058 l 556 986 l 685 1163 l 581 1163 z m 554 1026 l 475 1138 l 636 1138 z "},"č":{"ha":996,"x_min":0,"x_max":0,"o":"m 532 357 l 519 331 l 799 183 b 703 100 765 149 735 121 l 718 75 b 847 193 763 107 779 114 z m 558 383 l 901 211 b 558 0 839 89 707 0 b 176 383 346 0 176 171 b 558 765 176 592 349 765 b 901 554 707 765 836 688 z m 979 529 b 801 747 933 625 874 697 b 444 938 708 874 589 938 b 3 497 204 938 3 739 b 194 133 3 349 74 217 b 558 -57 276 15 413 -57 b 978 238 740 -57 879 42 l 839 307 b 863 351 846 322 856 336 l 744 411 z m 625 1222 l 369 1222 l 496 1046 l 504 1058 l 556 986 l 685 1163 l 581 1163 z m 554 1026 l 475 1138 l 636 1138 z "},"Ď":{"ha":988,"x_min":0,"x_max":0,"o":"m 903 383 b 582 60 903 214 740 60 l 582 31 b 931 383 772 31 931 196 z m 629 383 b 582 431 629 410 608 431 b 533 383 554 431 533 410 b 582 335 533 356 554 335 b 629 383 608 335 629 356 z m 964 383 b 582 0 964 174 793 0 l 199 0 l 199 765 l 582 765 b 964 383 793 765 964 594 z m 1022 383 b 831 747 1022 532 951 665 b 467 938 747 868 615 938 l 26 938 l 26 57 l 142 57 l 142 -57 l 582 -57 b 1022 383 824 -57 1022 142 z m 592 1222 l 336 1222 l 463 1046 l 471 1058 l 522 986 l 651 1163 l 547 1163 z m 521 1026 l 442 1138 l 603 1138 z "},"ď":{"ha":988,"x_min":0,"x_max":0,"o":"m 903 383 b 582 60 903 214 740 60 l 582 31 b 931 383 772 31 931 196 z m 629 383 b 582 431 629 410 608 431 b 533 383 554 431 533 410 b 582 335 533 356 554 335 b 629 383 608 335 629 356 z m 964 383 b 582 0 964 174 793 0 l 199 0 l 199 765 l 582 765 b 964 383 793 765 964 594 z m 1022 383 b 831 747 1022 532 951 665 b 467 938 747 868 615 938 l 26 938 l 26 57 l 142 57 l 142 -57 l 582 -57 b 1022 383 824 -57 1022 142 z m 592 1222 l 336 1222 l 463 1046 l 471 1058 l 522 986 l 651 1163 l 547 1163 z m 521 1026 l 442 1138 l 603 1138 z "},"Đ":{"ha":988,"x_min":0,"x_max":0,"o":"m 1022 383 b 831 747 1022 532 951 665 b 467 938 747 868 615 938 l 26 938 l 26 553 l -87 553 l -87 383 l 26 383 l 26 57 l 142 57 l 142 -57 l 582 -57 b 1022 383 824 -57 1022 142 z m 79 308 l 79 443 l 199 443 l 199 765 l 582 765 b 964 383 793 765 964 594 b 582 0 964 174 793 0 l 199 0 l 199 308 z m 903 383 b 582 60 903 214 740 60 l 582 31 b 931 383 772 31 931 196 z m 629 383 b 582 431 629 410 608 431 b 533 383 554 431 533 410 b 582 335 533 356 554 335 b 629 383 608 335 629 356 z "},"đ":{"ha":988,"x_min":0,"x_max":0,"o":"m 1022 383 b 831 747 1022 532 951 665 b 467 938 747 868 615 938 l 26 938 l 26 553 l -87 553 l -87 383 l 26 383 l 26 57 l 142 57 l 142 -57 l 582 -57 b 1022 383 824 -57 1022 142 z m 79 308 l 79 443 l 199 443 l 199 765 l 582 765 b 964 383 793 765 964 594 b 582 0 964 174 793 0 l 199 0 l 199 308 z m 903 383 b 582 60 903 214 740 60 l 582 31 b 931 383 772 31 931 196 z m 629 383 b 582 431 629 410 608 431 b 533 383 554 431 533 410 b 582 335 533 356 554 335 b 629 383 608 335 629 356 z "},"Ē":{"ha":893,"x_min":0,"x_max":0,"o":"m 758 33 l 758 203 l 729 203 l 729 63 l 576 63 l 576 33 z m 758 510 l 758 678 l 729 678 l 729 539 l 576 539 l 576 510 z m 790 0 l 217 0 l 217 765 l 790 765 l 790 479 l 539 479 l 539 443 l 658 443 l 658 324 l 539 324 l 539 288 l 790 288 z m 849 -57 l 849 344 l 733 344 l 733 421 l 849 421 l 849 824 l 733 824 l 733 938 l 44 938 l 44 57 l 160 57 l 160 -57 z m 267 1063 l 326 1063 l 326 1003 l 683 1003 l 683 1131 l 624 1131 l 624 1190 l 267 1190 z m 350 1106 l 658 1106 l 658 1025 l 350 1025 z "},"ē":{"ha":893,"x_min":0,"x_max":0,"o":"m 758 33 l 758 203 l 729 203 l 729 63 l 576 63 l 576 33 z m 758 510 l 758 678 l 729 678 l 729 539 l 576 539 l 576 510 z m 790 0 l 217 0 l 217 765 l 790 765 l 790 479 l 539 479 l 539 443 l 658 443 l 658 324 l 539 324 l 539 288 l 790 288 z m 849 -57 l 849 344 l 733 344 l 733 421 l 849 421 l 849 824 l 733 824 l 733 938 l 44 938 l 44 57 l 160 57 l 160 -57 z m 267 1063 l 326 1063 l 326 1003 l 683 1003 l 683 1131 l 624 1131 l 624 1190 l 267 1190 z m 350 1106 l 658 1106 l 658 1025 l 350 1025 z "},"Ĕ":{"ha":893,"x_min":0,"x_max":0,"o":"m 224 1193 b 339 1049 224 1121 271 1064 b 446 938 360 997 399 958 l 44 938 l 44 57 l 160 57 l 160 -57 l 849 -57 l 849 344 l 733 344 l 733 421 l 849 421 l 849 824 l 733 824 l 733 938 l 607 938 b 726 1121 675 965 726 1029 l 726 1151 l 608 1151 l 608 1256 l 224 1256 z m 790 0 l 217 0 l 217 765 l 790 765 l 790 479 l 539 479 l 539 443 l 658 443 l 658 324 l 539 324 l 539 288 l 790 288 z m 526 978 b 383 1097 453 978 394 1029 l 667 1097 b 526 978 656 1029 597 978 z m 758 33 l 758 203 l 729 203 l 729 63 l 576 63 l 576 33 z m 758 510 l 758 678 l 729 678 l 729 539 l 576 539 l 576 510 z m 557 1042 l 557 1014 b 619 1063 588 1022 608 1038 l 588 1063 b 557 1042 579 1053 569 1046 z "},"ĕ":{"ha":893,"x_min":0,"x_max":0,"o":"m 224 1193 b 339 1049 224 1121 271 1064 b 446 938 360 997 399 958 l 44 938 l 44 57 l 160 57 l 160 -57 l 849 -57 l 849 344 l 733 344 l 733 421 l 849 421 l 849 824 l 733 824 l 733 938 l 607 938 b 726 1121 675 965 726 1029 l 726 1151 l 608 1151 l 608 1256 l 224 1256 z m 790 0 l 217 0 l 217 765 l 790 765 l 790 479 l 539 479 l 539 443 l 658 443 l 658 324 l 539 324 l 539 288 l 790 288 z m 526 978 b 383 1097 453 978 394 1029 l 667 1097 b 526 978 656 1029 597 978 z m 758 33 l 758 203 l 729 203 l 729 63 l 576 63 l 576 33 z m 758 510 l 758 678 l 729 678 l 729 539 l 576 539 l 576 510 z m 557 1042 l 557 1014 b 619 1063 588 1022 608 1038 l 588 1063 b 557 1042 579 1053 569 1046 z "},"Ė":{"ha":893,"x_min":0,"x_max":0,"o":"m 758 33 l 758 203 l 729 203 l 729 63 l 576 63 l 576 33 z m 758 510 l 758 678 l 729 678 l 729 539 l 576 539 l 576 510 z m 790 0 l 217 0 l 217 765 l 790 765 l 790 479 l 539 479 l 539 443 l 658 443 l 658 324 l 539 324 l 539 288 l 790 288 z m 849 -57 l 849 344 l 733 344 l 733 421 l 849 421 l 849 824 l 733 824 l 733 938 l 44 938 l 44 57 l 160 57 l 160 -57 z m 396 1063 l 456 1063 l 456 1003 l 582 1003 l 582 1131 l 522 1131 l 522 1190 l 396 1190 z m 479 1106 l 557 1106 l 557 1025 l 479 1025 z "},"ė":{"ha":893,"x_min":0,"x_max":0,"o":"m 758 33 l 758 203 l 729 203 l 729 63 l 576 63 l 576 33 z m 758 510 l 758 678 l 729 678 l 729 539 l 576 539 l 576 510 z m 790 0 l 217 0 l 217 765 l 790 765 l 790 479 l 539 479 l 539 443 l 658 443 l 658 324 l 539 324 l 539 288 l 790 288 z m 849 -57 l 849 344 l 733 344 l 733 421 l 849 421 l 849 824 l 733 824 l 733 938 l 44 938 l 44 57 l 160 57 l 160 -57 z m 396 1063 l 456 1063 l 456 1003 l 582 1003 l 582 1131 l 522 1131 l 522 1190 l 396 1190 z m 479 1106 l 557 1106 l 557 1025 l 479 1025 z "},"Ę":{"ha":893,"x_min":0,"x_max":0,"o":"m 717 -153 b 733 -57 725 -122 732 -90 l 849 -57 l 849 344 l 733 344 l 733 421 l 849 421 l 849 824 l 733 824 l 733 938 l 44 938 l 44 57 l 160 57 l 160 -57 l 335 -57 b 332 -94 333 -68 332 -81 b 461 -283 332 -178 383 -251 b 647 -411 490 -360 565 -411 b 849 -153 769 -411 849 -308 z m 758 33 l 758 203 l 729 203 l 729 63 l 576 63 l 576 33 z m 758 510 l 758 678 l 729 678 l 729 539 l 576 539 l 576 510 z m 790 0 l 217 0 l 217 765 l 790 765 l 790 479 l 539 479 l 539 443 l 658 443 l 658 324 l 539 324 l 539 288 l 790 288 z m 726 -233 b 682 -279 726 -254 711 -269 l 682 -318 b 756 -233 731 -307 756 -279 z m 801 -210 b 657 -353 801 -289 736 -353 b 514 -210 578 -353 514 -289 b 657 -67 514 -131 578 -67 l 657 -210 z "},"ę":{"ha":893,"x_min":0,"x_max":0,"o":"m 717 -153 b 733 -57 725 -122 732 -90 l 849 -57 l 849 344 l 733 344 l 733 421 l 849 421 l 849 824 l 733 824 l 733 938 l 44 938 l 44 57 l 160 57 l 160 -57 l 335 -57 b 332 -94 333 -68 332 -81 b 461 -283 332 -178 383 -251 b 647 -411 490 -360 565 -411 b 849 -153 769 -411 849 -308 z m 758 33 l 758 203 l 729 203 l 729 63 l 576 63 l 576 33 z m 758 510 l 758 678 l 729 678 l 729 539 l 576 539 l 576 510 z m 790 0 l 217 0 l 217 765 l 790 765 l 790 479 l 539 479 l 539 443 l 658 443 l 658 324 l 539 324 l 539 288 l 790 288 z m 726 -233 b 682 -279 726 -254 711 -269 l 682 -318 b 756 -233 731 -307 756 -279 z m 801 -210 b 657 -353 801 -289 736 -353 b 514 -210 578 -353 514 -289 b 657 -67 514 -131 578 -67 l 657 -210 z "},"Ě":{"ha":893,"x_min":0,"x_max":0,"o":"m 758 33 l 758 203 l 729 203 l 729 63 l 576 63 l 576 33 z m 758 510 l 758 678 l 729 678 l 729 539 l 576 539 l 576 510 z m 790 0 l 217 0 l 217 765 l 790 765 l 790 479 l 539 479 l 539 443 l 658 443 l 658 324 l 539 324 l 539 288 l 790 288 z m 849 -57 l 849 344 l 733 344 l 733 421 l 849 421 l 849 824 l 733 824 l 733 938 l 44 938 l 44 57 l 160 57 l 160 -57 z m 578 1222 l 322 1222 l 449 1046 l 457 1058 l 508 986 l 638 1163 l 533 1163 z m 507 1026 l 428 1138 l 589 1138 z "},"ě":{"ha":893,"x_min":0,"x_max":0,"o":"m 758 33 l 758 203 l 729 203 l 729 63 l 576 63 l 576 33 z m 758 510 l 758 678 l 729 678 l 729 539 l 576 539 l 576 510 z m 790 0 l 217 0 l 217 765 l 790 765 l 790 479 l 539 479 l 539 443 l 658 443 l 658 324 l 539 324 l 539 288 l 790 288 z m 849 -57 l 849 344 l 733 344 l 733 421 l 849 421 l 849 824 l 733 824 l 733 938 l 44 938 l 44 57 l 160 57 l 160 -57 z m 578 1222 l 322 1222 l 449 1046 l 457 1058 l 508 986 l 638 1163 l 533 1163 z m 507 1026 l 428 1138 l 589 1138 z "},"Ğ":{"ha":988,"x_min":0,"x_max":0,"o":"m 258 1193 b 374 1049 258 1121 306 1064 b 486 935 394 994 436 956 b 443 938 471 936 457 938 b 3 497 203 938 3 738 b 194 133 3 349 74 217 b 558 -57 278 15 410 -57 l 999 -57 l 999 440 l 883 440 l 883 556 l 811 556 l 911 654 b 785 757 868 697 825 733 l 796 769 b 558 921 718 846 640 896 b 761 1121 663 921 761 996 l 761 1151 l 643 1151 l 643 1256 l 258 1256 z m 940 0 l 558 0 b 175 383 344 0 175 169 b 558 765 175 590 349 765 b 829 654 665 765 756 728 l 558 383 l 940 383 z m 561 978 b 418 1097 488 978 429 1029 l 701 1097 b 561 978 690 1029 632 978 z m 768 642 l 749 661 l 508 421 l 528 401 z m 907 33 l 907 203 l 879 203 l 879 63 l 725 63 l 725 33 z m 592 1042 l 592 1014 b 654 1063 622 1022 643 1038 l 622 1063 b 592 1042 614 1053 604 1046 z "},"ğ":{"ha":988,"x_min":0,"x_max":0,"o":"m 258 1193 b 374 1049 258 1121 306 1064 b 486 935 394 994 436 956 b 443 938 471 936 457 938 b 3 497 203 938 3 738 b 194 133 3 349 74 217 b 558 -57 278 15 410 -57 l 999 -57 l 999 440 l 883 440 l 883 556 l 811 556 l 911 654 b 785 757 868 697 825 733 l 796 769 b 558 921 718 846 640 896 b 761 1121 663 921 761 996 l 761 1151 l 643 1151 l 643 1256 l 258 1256 z m 940 0 l 558 0 b 175 383 344 0 175 169 b 558 765 175 590 349 765 b 829 654 665 765 756 728 l 558 383 l 940 383 z m 561 978 b 418 1097 488 978 429 1029 l 701 1097 b 561 978 690 1029 632 978 z m 768 642 l 749 661 l 508 421 l 528 401 z m 907 33 l 907 203 l 879 203 l 879 63 l 725 63 l 725 33 z m 592 1042 l 592 1014 b 654 1063 622 1022 643 1038 l 622 1063 b 592 1042 614 1053 604 1046 z "},"Ġ":{"ha":988,"x_min":0,"x_max":0,"o":"m 907 33 l 907 203 l 879 203 l 879 63 l 725 63 l 725 33 z m 768 642 l 749 661 l 508 421 l 528 401 z m 940 0 l 558 0 b 175 383 344 0 175 169 b 558 765 175 590 349 765 b 829 654 665 765 756 728 l 558 383 l 940 383 z m 999 -57 l 999 440 l 883 440 l 883 556 l 811 556 l 911 654 b 785 757 868 697 825 733 l 796 769 b 443 938 683 882 567 938 b 3 497 203 938 3 738 b 194 133 3 349 74 217 b 558 -57 278 15 410 -57 z m 443 1063 l 503 1063 l 503 1003 l 629 1003 l 629 1131 l 569 1131 l 569 1190 l 443 1190 z m 526 1106 l 604 1106 l 604 1025 l 526 1025 z "},"ġ":{"ha":988,"x_min":0,"x_max":0,"o":"m 907 33 l 907 203 l 879 203 l 879 63 l 725 63 l 725 33 z m 768 642 l 749 661 l 508 421 l 528 401 z m 940 0 l 558 0 b 175 383 344 0 175 169 b 558 765 175 590 349 765 b 829 654 665 765 756 728 l 558 383 l 940 383 z m 999 -57 l 999 440 l 883 440 l 883 556 l 811 556 l 911 654 b 785 757 868 697 825 733 l 796 769 b 443 938 683 882 567 938 b 3 497 203 938 3 738 b 194 133 3 349 74 217 b 558 -57 278 15 410 -57 z m 443 1063 l 503 1063 l 503 1003 l 629 1003 l 629 1131 l 569 1131 l 569 1190 l 443 1190 z m 526 1106 l 604 1106 l 604 1025 l 526 1025 z "},"Ģ":{"ha":988,"x_min":0,"x_max":0,"o":"m 778 -237 b 667 -72 778 -164 735 -100 b 660 -57 664 -67 663 -61 l 999 -57 l 999 440 l 883 440 l 883 556 l 811 556 l 911 654 b 785 757 868 697 825 733 l 796 769 b 443 938 683 882 567 938 b 3 497 203 938 3 738 b 194 133 3 349 74 217 b 383 -21 243 64 308 11 b 328 -186 347 -58 328 -115 l 443 -186 b 428 -286 433 -218 428 -251 l 454 -286 l 454 -312 b 553 -297 489 -312 522 -307 l 553 -411 b 778 -237 686 -411 778 -344 z m 907 33 l 907 203 l 879 203 l 879 63 l 725 63 l 725 33 z m 768 642 l 749 661 l 508 421 l 528 401 z m 940 0 l 558 0 b 175 383 344 0 175 169 b 558 765 175 590 349 765 b 829 654 665 765 756 728 l 558 383 l 940 383 z m 672 -240 b 635 -303 672 -275 661 -296 l 635 -328 b 701 -251 667 -328 701 -279 b 700 -240 701 -247 701 -243 z m 728 -237 b 604 -361 728 -306 672 -361 l 604 -237 l 478 -237 b 604 -111 478 -168 535 -111 b 728 -237 672 -111 728 -168 z "},"ģ":{"ha":988,"x_min":0,"x_max":0,"o":"m 778 -237 b 667 -72 778 -164 735 -100 b 660 -57 664 -67 663 -61 l 999 -57 l 999 440 l 883 440 l 883 556 l 811 556 l 911 654 b 785 757 868 697 825 733 l 796 769 b 443 938 683 882 567 938 b 3 497 203 938 3 738 b 194 133 3 349 74 217 b 383 -21 243 64 308 11 b 328 -186 347 -58 328 -115 l 443 -186 b 428 -286 433 -218 428 -251 l 454 -286 l 454 -312 b 553 -297 489 -312 522 -307 l 553 -411 b 778 -237 686 -411 778 -344 z m 907 33 l 907 203 l 879 203 l 879 63 l 725 63 l 725 33 z m 768 642 l 749 661 l 508 421 l 528 401 z m 940 0 l 558 0 b 175 383 344 0 175 169 b 558 765 175 590 349 765 b 829 654 665 765 756 728 l 558 383 l 940 383 z m 672 -240 b 635 -303 672 -275 661 -296 l 635 -328 b 701 -251 667 -328 701 -279 b 700 -240 701 -247 701 -243 z m 728 -237 b 604 -361 728 -306 672 -361 l 604 -237 l 478 -237 b 604 -111 478 -168 535 -111 b 728 -237 672 -111 728 -168 z "},"Ħ":{"ha":1049,"x_min":0,"x_max":0,"o":"m 163 656 l 219 656 l 219 765 l 506 765 l 506 656 l 661 656 l 661 765 l 946 765 l 946 656 l 1004 656 l 1004 547 l 946 547 l 946 0 l 661 0 l 661 288 l 506 288 l 506 0 l 219 0 l 219 547 l 163 547 z m 467 33 l 467 203 l 438 203 l 438 63 l 285 63 l 285 33 z m 914 33 l 914 203 l 885 203 l 885 63 l 732 63 l 732 33 z m 661 479 l 661 547 l 506 547 l 506 479 z m 1004 -57 l 1004 518 l 1038 518 l 1038 689 l 1004 689 l 1004 824 l 928 824 l 928 938 l 488 938 l 488 824 l 449 824 l 449 938 l 47 938 l 47 57 l 161 57 l 161 -57 l 564 -57 l 564 57 l 603 57 l 603 -57 z "},"ħ":{"ha":1049,"x_min":0,"x_max":0,"o":"m 163 656 l 219 656 l 219 765 l 506 765 l 506 656 l 661 656 l 661 765 l 946 765 l 946 656 l 1004 656 l 1004 547 l 946 547 l 946 0 l 661 0 l 661 288 l 506 288 l 506 0 l 219 0 l 219 547 l 163 547 z m 467 33 l 467 203 l 438 203 l 438 63 l 285 63 l 285 33 z m 914 33 l 914 203 l 885 203 l 885 63 l 732 63 l 732 33 z m 661 479 l 661 547 l 506 547 l 506 479 z m 1004 -57 l 1004 518 l 1038 518 l 1038 689 l 1004 689 l 1004 824 l 928 824 l 928 938 l 488 938 l 488 824 l 449 824 l 449 938 l 47 938 l 47 57 l 161 57 l 161 -57 l 564 -57 l 564 57 l 603 57 l 603 -57 z "},"Ī":{"ha":608,"x_min":0,"x_max":0,"o":"m 472 33 l 472 203 l 444 203 l 444 63 l 290 63 l 290 33 z m 506 0 l 218 0 l 218 765 l 506 765 z m 563 -57 l 563 824 l 447 824 l 447 938 l 46 938 l 46 57 l 160 57 l 160 -57 z m 132 1063 l 192 1063 l 192 1003 l 549 1003 l 549 1131 l 489 1131 l 489 1190 l 132 1190 z m 215 1106 l 524 1106 l 524 1025 l 215 1025 z "},"ī":{"ha":608,"x_min":0,"x_max":0,"o":"m 472 33 l 472 203 l 444 203 l 444 63 l 290 63 l 290 33 z m 506 0 l 218 0 l 218 765 l 506 765 z m 563 -57 l 563 824 l 447 824 l 447 938 l 46 938 l 46 57 l 160 57 l 160 -57 z m 132 1063 l 192 1063 l 192 1003 l 549 1003 l 549 1131 l 489 1131 l 489 1190 l 132 1190 z m 215 1106 l 524 1106 l 524 1025 l 215 1025 z "},"Ĭ":{"ha":608,"x_min":0,"x_max":0,"o":"m 61 1193 b 176 1049 61 1121 108 1064 b 283 938 197 997 236 958 l 46 938 l 46 57 l 160 57 l 160 -57 l 563 -57 l 563 824 l 447 824 l 447 939 b 564 1121 514 967 564 1031 l 564 1151 l 446 1151 l 446 1256 l 61 1256 z m 506 0 l 218 0 l 218 765 l 506 765 z m 364 978 b 221 1097 290 978 232 1029 l 504 1097 b 364 978 493 1029 435 978 z m 472 33 l 472 203 l 444 203 l 444 63 l 290 63 l 290 33 z m 394 1042 l 394 1014 b 457 1063 425 1022 446 1038 l 425 1063 b 394 1042 417 1053 407 1046 z "},"ĭ":{"ha":608,"x_min":0,"x_max":0,"o":"m 61 1193 b 176 1049 61 1121 108 1064 b 283 938 197 997 236 958 l 46 938 l 46 57 l 160 57 l 160 -57 l 563 -57 l 563 824 l 447 824 l 447 939 b 564 1121 514 967 564 1031 l 564 1151 l 446 1151 l 446 1256 l 61 1256 z m 506 0 l 218 0 l 218 765 l 506 765 z m 364 978 b 221 1097 290 978 232 1029 l 504 1097 b 364 978 493 1029 435 978 z m 472 33 l 472 203 l 444 203 l 444 63 l 290 63 l 290 33 z m 394 1042 l 394 1014 b 457 1063 425 1022 446 1038 l 425 1063 b 394 1042 417 1053 407 1046 z "},"Į":{"ha":608,"x_min":0,"x_max":0,"o":"m 472 33 l 472 203 l 444 203 l 444 63 l 290 63 l 290 33 z m 506 0 l 218 0 l 218 765 l 506 765 z m 440 -233 b 396 -279 440 -254 425 -269 l 396 -318 b 469 -233 444 -307 469 -279 z m 515 -210 b 371 -353 515 -289 450 -353 b 228 -210 292 -353 228 -289 b 371 -67 228 -131 292 -67 l 371 -210 z m 431 -153 b 447 -57 439 -122 446 -90 l 563 -57 l 563 824 l 447 824 l 447 938 l 46 938 l 46 57 l 124 57 b 46 -94 74 22 46 -29 b 175 -283 46 -178 97 -251 b 361 -411 204 -360 279 -411 b 563 -153 483 -411 563 -308 z "},"į":{"ha":608,"x_min":0,"x_max":0,"o":"m 472 33 l 472 203 l 444 203 l 444 63 l 290 63 l 290 33 z m 506 0 l 218 0 l 218 765 l 506 765 z m 440 -233 b 396 -279 440 -254 425 -269 l 396 -318 b 469 -233 444 -307 469 -279 z m 515 -210 b 371 -353 515 -289 450 -353 b 228 -210 292 -353 228 -289 b 371 -67 228 -131 292 -67 l 371 -210 z m 431 -153 b 447 -57 439 -122 446 -90 l 563 -57 l 563 824 l 447 824 l 447 938 l 46 938 l 46 57 l 124 57 b 46 -94 74 22 46 -29 b 175 -283 46 -178 97 -251 b 361 -411 204 -360 279 -411 b 563 -153 483 -411 563 -308 z "},"İ":{"ha":608,"x_min":0,"x_max":0,"o":"m 472 33 l 472 203 l 444 203 l 444 63 l 290 63 l 290 33 z m 506 0 l 218 0 l 218 765 l 506 765 z m 563 -57 l 563 824 l 447 824 l 447 938 l 46 938 l 46 57 l 160 57 l 160 -57 z m 226 1063 l 286 1063 l 286 1003 l 413 1003 l 413 1131 l 353 1131 l 353 1190 l 226 1190 z m 310 1106 l 388 1106 l 388 1025 l 310 1025 z "},"ı":{"ha":608,"x_min":0,"x_max":0,"o":"m 472 33 l 472 203 l 444 203 l 444 63 l 290 63 l 290 33 z m 506 0 l 218 0 l 218 765 l 506 765 z m 563 -57 l 563 824 l 447 824 l 447 938 l 46 938 l 46 57 l 160 57 l 160 -57 z "},"Ĳ":{"ha":1253,"x_min":0,"x_max":0,"o":"m 472 33 l 472 203 l 444 203 l 444 63 l 290 63 l 290 33 z m 506 0 l 218 0 l 218 765 l 506 765 z m 1103 288 b 872 57 1103 176 986 57 l 872 29 b 1132 288 1010 29 1132 151 z m 1160 288 b 872 0 1160 131 1035 0 b 586 288 713 0 586 131 l 872 288 l 872 765 l 1160 765 z m 563 -57 l 563 121 b 590 103 571 114 581 108 b 872 -57 657 -4 751 -57 b 1218 288 1064 -57 1218 97 l 1218 824 l 1103 824 l 1103 938 l 700 938 l 700 460 l 563 460 l 563 824 l 447 824 l 447 938 l 46 938 l 46 57 l 160 57 l 160 -57 z "},"ĳ":{"ha":1253,"x_min":0,"x_max":0,"o":"m 472 33 l 472 203 l 444 203 l 444 63 l 290 63 l 290 33 z m 506 0 l 218 0 l 218 765 l 506 765 z m 1103 288 b 872 57 1103 176 986 57 l 872 29 b 1132 288 1010 29 1132 151 z m 1160 288 b 872 0 1160 131 1035 0 b 586 288 713 0 586 131 l 872 288 l 872 765 l 1160 765 z m 563 -57 l 563 121 b 590 103 571 114 581 108 b 872 -57 657 -4 751 -57 b 1218 288 1064 -57 1218 97 l 1218 824 l 1103 824 l 1103 938 l 700 938 l 700 460 l 563 460 l 563 824 l 447 824 l 447 938 l 46 938 l 46 57 l 160 57 l 160 -57 z "},"Ķ":{"ha":954,"x_min":0,"x_max":0,"o":"m 749 43 l 596 199 l 554 199 l 681 72 l 569 72 l 569 43 z m 854 765 l 471 383 l 853 0 l 185 0 l 185 765 z m 610 -240 b 572 -303 610 -275 599 -296 l 572 -328 b 639 -251 604 -328 639 -279 b 638 -240 639 -247 639 -243 z m 665 -237 b 542 -361 665 -306 610 -361 l 542 -237 l 415 -237 b 542 -111 415 -168 472 -111 b 665 -237 610 -111 665 -168 z m 715 -237 b 604 -72 715 -164 672 -100 b 597 -57 601 -67 600 -61 l 990 -57 l 551 383 l 992 824 l 763 824 l 876 938 l 13 938 l 13 57 l 126 57 l 126 -57 l 294 -57 b 265 -186 275 -92 265 -135 l 381 -186 b 365 -286 371 -218 365 -251 l 392 -286 l 392 -312 b 490 -297 426 -312 460 -307 l 490 -411 b 715 -237 624 -411 715 -344 z "},"ķ":{"ha":954,"x_min":0,"x_max":0,"o":"m 749 43 l 596 199 l 554 199 l 681 72 l 569 72 l 569 43 z m 854 765 l 471 383 l 853 0 l 185 0 l 185 765 z m 610 -240 b 572 -303 610 -275 599 -296 l 572 -328 b 639 -251 604 -328 639 -279 b 638 -240 639 -247 639 -243 z m 665 -237 b 542 -361 665 -306 610 -361 l 542 -237 l 415 -237 b 542 -111 415 -168 472 -111 b 665 -237 610 -111 665 -168 z m 715 -237 b 604 -72 715 -164 672 -100 b 597 -57 601 -67 600 -61 l 990 -57 l 551 383 l 992 824 l 763 824 l 876 938 l 13 938 l 13 57 l 126 57 l 126 -57 l 294 -57 b 265 -186 275 -92 265 -135 l 381 -186 b 365 -286 371 -218 365 -251 l 392 -286 l 392 -312 b 490 -297 426 -312 460 -307 l 490 -411 b 715 -237 624 -411 715 -344 z "},"Ĺ":{"ha":824,"x_min":0,"x_max":0,"o":"m 726 33 l 726 203 l 697 203 l 697 63 l 544 63 l 544 33 z m 761 0 l 186 0 l 186 765 l 474 765 l 474 228 l 761 228 z m 818 -57 l 818 285 l 704 285 l 704 400 l 531 400 l 531 824 l 417 824 l 417 938 l 14 938 l 14 57 l 129 57 l 129 -57 z m 513 1222 l 371 1222 l 251 1046 l 351 1046 l 311 986 l 413 986 l 572 1163 l 457 1163 z m 401 1008 l 353 1008 l 440 1138 l 518 1138 z "},"ĺ":{"ha":824,"x_min":0,"x_max":0,"o":"m 726 33 l 726 203 l 697 203 l 697 63 l 544 63 l 544 33 z m 761 0 l 186 0 l 186 765 l 474 765 l 474 228 l 761 228 z m 818 -57 l 818 285 l 704 285 l 704 400 l 531 400 l 531 824 l 417 824 l 417 938 l 14 938 l 14 57 l 129 57 l 129 -57 z m 513 1222 l 371 1222 l 251 1046 l 351 1046 l 311 986 l 413 986 l 572 1163 l 457 1163 z m 401 1008 l 353 1008 l 440 1138 l 518 1138 z "},"Ļ":{"ha":824,"x_min":0,"x_max":0,"o":"m 726 33 l 726 203 l 697 203 l 697 63 l 544 63 l 544 33 z m 761 0 l 186 0 l 186 765 l 474 765 l 474 228 l 761 228 z m 531 -240 b 493 -303 531 -275 519 -296 l 493 -328 b 560 -251 525 -328 560 -279 b 558 -240 560 -247 560 -243 z m 586 -237 b 463 -361 586 -306 531 -361 l 463 -237 l 336 -237 b 463 -111 336 -168 393 -111 b 586 -237 531 -111 586 -168 z m 636 -237 b 525 -72 636 -164 593 -100 b 518 -57 522 -67 521 -61 l 818 -57 l 818 285 l 704 285 l 704 400 l 531 400 l 531 824 l 417 824 l 417 938 l 14 938 l 14 57 l 129 57 l 129 -57 l 215 -57 b 186 -186 196 -92 186 -135 l 301 -186 b 286 -286 292 -218 286 -251 l 313 -286 l 313 -312 b 411 -297 347 -312 381 -307 l 411 -411 b 636 -237 544 -411 636 -344 z "},"ļ":{"ha":824,"x_min":0,"x_max":0,"o":"m 726 33 l 726 203 l 697 203 l 697 63 l 544 63 l 544 33 z m 761 0 l 186 0 l 186 765 l 474 765 l 474 228 l 761 228 z m 531 -240 b 493 -303 531 -275 519 -296 l 493 -328 b 560 -251 525 -328 560 -279 b 558 -240 560 -247 560 -243 z m 586 -237 b 463 -361 586 -306 531 -361 l 463 -237 l 336 -237 b 463 -111 336 -168 393 -111 b 586 -237 531 -111 586 -168 z m 636 -237 b 525 -72 636 -164 593 -100 b 518 -57 522 -67 521 -61 l 818 -57 l 818 285 l 704 285 l 704 400 l 531 400 l 531 824 l 417 824 l 417 938 l 14 938 l 14 57 l 129 57 l 129 -57 l 215 -57 b 186 -186 196 -92 186 -135 l 301 -186 b 286 -286 292 -218 286 -251 l 313 -286 l 313 -312 b 411 -297 347 -312 381 -307 l 411 -411 b 636 -237 544 -411 636 -344 z "},"Ľ":{"ha":911,"x_min":0,"x_max":0,"o":"m 726 33 l 726 203 l 697 203 l 697 63 l 544 63 l 544 33 z m 761 0 l 186 0 l 186 765 l 474 765 l 474 228 l 761 228 z m 818 -57 l 818 285 l 704 285 l 704 400 l 531 400 l 531 824 l 417 824 l 417 938 l 14 938 l 14 57 l 129 57 l 129 -57 z m 796 783 b 758 721 796 749 785 728 l 758 696 b 825 772 790 696 825 744 b 824 783 825 776 825 781 z m 851 786 b 728 663 851 718 796 663 l 728 786 l 601 786 b 728 913 601 856 658 913 b 851 786 796 913 851 856 z m 901 786 b 790 951 901 860 858 924 b 626 1051 765 1018 700 1051 b 451 838 519 1051 451 968 l 567 838 b 551 738 557 806 551 772 l 578 738 l 578 711 b 676 726 613 711 646 717 l 676 613 b 901 786 810 613 901 679 z "},"ľ":{"ha":911,"x_min":0,"x_max":0,"o":"m 726 33 l 726 203 l 697 203 l 697 63 l 544 63 l 544 33 z m 761 0 l 186 0 l 186 765 l 474 765 l 474 228 l 761 228 z m 818 -57 l 818 285 l 704 285 l 704 400 l 531 400 l 531 824 l 417 824 l 417 938 l 14 938 l 14 57 l 129 57 l 129 -57 z m 796 783 b 758 721 796 749 785 728 l 758 696 b 825 772 790 696 825 744 b 824 783 825 776 825 781 z m 851 786 b 728 663 851 718 796 663 l 728 786 l 601 786 b 728 913 601 856 658 913 b 851 786 796 913 851 856 z m 901 786 b 790 951 901 860 858 924 b 626 1051 765 1018 700 1051 b 451 838 519 1051 451 968 l 567 838 b 551 738 557 806 551 772 l 578 738 l 578 711 b 676 726 613 711 646 717 l 676 613 b 901 786 810 613 901 679 z "},"Ŀ":{"ha":824,"x_min":0,"x_max":0,"o":"m 726 33 l 726 203 l 697 203 l 697 63 l 544 63 l 544 33 z m 761 0 l 186 0 l 186 765 l 474 765 l 474 228 l 761 228 z m 818 -57 l 818 285 l 704 285 l 704 400 l 531 400 l 531 824 l 417 824 l 417 938 l 14 938 l 14 57 l 129 57 l 129 -57 z m 560 485 l 619 485 l 619 425 l 746 425 l 746 553 l 686 553 l 686 613 l 560 613 z m 643 528 l 721 528 l 721 447 l 643 447 z "},"ŀ":{"ha":824,"x_min":0,"x_max":0,"o":"m 726 33 l 726 203 l 697 203 l 697 63 l 544 63 l 544 33 z m 761 0 l 186 0 l 186 765 l 474 765 l 474 228 l 761 228 z m 818 -57 l 818 285 l 704 285 l 704 400 l 531 400 l 531 824 l 417 824 l 417 938 l 14 938 l 14 57 l 129 57 l 129 -57 z m 560 485 l 619 485 l 619 425 l 746 425 l 746 553 l 686 553 l 686 613 l 560 613 z m 643 528 l 721 528 l 721 447 l 643 447 z "},"Ł":{"ha":824,"x_min":0,"x_max":0,"o":"m 761 343 l 761 589 l 646 589 l 646 704 l 531 704 l 531 824 l 417 824 l 417 938 l 14 938 l 14 704 l -29 704 l -29 457 l 14 457 l 14 57 l 129 57 l 129 -57 l 818 -57 l 818 285 l 704 285 l 704 343 z m 704 400 l 474 400 l 474 228 l 761 228 l 761 0 l 186 0 l 186 400 l 143 400 l 143 532 l 186 532 l 186 765 l 474 765 l 474 532 l 704 532 z m 726 33 l 726 203 l 697 203 l 697 63 l 544 63 l 544 33 z m 671 433 l 671 501 l 643 501 l 643 463 l 500 463 l 500 433 z "},"ł":{"ha":824,"x_min":0,"x_max":0,"o":"m 761 343 l 761 589 l 646 589 l 646 704 l 531 704 l 531 824 l 417 824 l 417 938 l 14 938 l 14 704 l -29 704 l -29 457 l 14 457 l 14 57 l 129 57 l 129 -57 l 818 -57 l 818 285 l 704 285 l 704 343 z m 704 400 l 474 400 l 474 228 l 761 228 l 761 0 l 186 0 l 186 400 l 143 400 l 143 532 l 186 532 l 186 765 l 474 765 l 474 532 l 704 532 z m 726 33 l 726 203 l 697 203 l 697 63 l 544 63 l 544 33 z m 671 433 l 671 501 l 643 501 l 643 463 l 500 463 l 500 433 z "},"Ń":{"ha":1015,"x_min":0,"x_max":0,"o":"m 897 33 l 897 203 l 868 203 l 868 63 l 714 63 l 714 33 z m 925 0 l 254 0 l 254 765 l 733 288 l 733 765 l 925 765 z m 982 -57 l 982 824 l 868 824 l 868 938 l 561 938 l 561 540 l 82 1019 l 82 57 l 197 57 l 197 -57 z m 631 1222 l 489 1222 l 369 1046 l 469 1046 l 429 986 l 531 986 l 690 1163 l 575 1163 z m 519 1008 l 471 1008 l 558 1138 l 636 1138 z "},"ń":{"ha":1015,"x_min":0,"x_max":0,"o":"m 897 33 l 897 203 l 868 203 l 868 63 l 714 63 l 714 33 z m 925 0 l 254 0 l 254 765 l 733 288 l 733 765 l 925 765 z m 982 -57 l 982 824 l 868 824 l 868 938 l 561 938 l 561 540 l 82 1019 l 82 57 l 197 57 l 197 -57 z m 631 1222 l 489 1222 l 369 1046 l 469 1046 l 429 986 l 531 986 l 690 1163 l 575 1163 z m 519 1008 l 471 1008 l 558 1138 l 636 1138 z "},"Ņ":{"ha":1015,"x_min":0,"x_max":0,"o":"m 897 33 l 897 203 l 868 203 l 868 63 l 714 63 l 714 33 z m 925 0 l 254 0 l 254 765 l 733 288 l 733 765 l 925 765 z m 668 -240 b 631 -303 668 -275 657 -296 l 631 -328 b 697 -251 663 -328 697 -279 b 696 -240 697 -247 697 -243 z m 724 -237 b 600 -361 724 -306 668 -361 l 600 -237 l 474 -237 b 600 -111 474 -168 531 -111 b 724 -237 668 -111 724 -168 z m 774 -237 b 663 -72 774 -164 731 -100 b 656 -57 660 -67 658 -61 l 982 -57 l 982 824 l 868 824 l 868 938 l 561 938 l 561 540 l 82 1019 l 82 57 l 197 57 l 197 -57 l 353 -57 b 324 -186 333 -92 324 -135 l 439 -186 b 424 -286 429 -218 424 -251 l 450 -286 l 450 -312 b 549 -297 485 -312 518 -307 l 549 -411 b 774 -237 682 -411 774 -344 z "},"ņ":{"ha":1015,"x_min":0,"x_max":0,"o":"m 897 33 l 897 203 l 868 203 l 868 63 l 714 63 l 714 33 z m 925 0 l 254 0 l 254 765 l 733 288 l 733 765 l 925 765 z m 668 -240 b 631 -303 668 -275 657 -296 l 631 -328 b 697 -251 663 -328 697 -279 b 696 -240 697 -247 697 -243 z m 724 -237 b 600 -361 724 -306 668 -361 l 600 -237 l 474 -237 b 600 -111 474 -168 531 -111 b 724 -237 668 -111 724 -168 z m 774 -237 b 663 -72 774 -164 731 -100 b 656 -57 660 -67 658 -61 l 982 -57 l 982 824 l 868 824 l 868 938 l 561 938 l 561 540 l 82 1019 l 82 57 l 197 57 l 197 -57 l 353 -57 b 324 -186 333 -92 324 -135 l 439 -186 b 424 -286 429 -218 424 -251 l 450 -286 l 450 -312 b 549 -297 485 -312 518 -307 l 549 -411 b 774 -237 682 -411 774 -344 z "},"Ň":{"ha":1015,"x_min":0,"x_max":0,"o":"m 897 33 l 897 203 l 868 203 l 868 63 l 714 63 l 714 33 z m 925 0 l 254 0 l 254 765 l 733 288 l 733 765 l 925 765 z m 982 -57 l 982 824 l 868 824 l 868 938 l 561 938 l 561 540 l 82 1019 l 82 57 l 197 57 l 197 -57 z m 606 1222 l 350 1222 l 476 1046 l 485 1058 l 536 986 l 665 1163 l 561 1163 z m 535 1026 l 456 1138 l 617 1138 z "},"ň":{"ha":1015,"x_min":0,"x_max":0,"o":"m 897 33 l 897 203 l 868 203 l 868 63 l 714 63 l 714 33 z m 925 0 l 254 0 l 254 765 l 733 288 l 733 765 l 925 765 z m 982 -57 l 982 824 l 868 824 l 868 938 l 561 938 l 561 540 l 82 1019 l 82 57 l 197 57 l 197 -57 z m 606 1222 l 350 1222 l 476 1046 l 485 1058 l 536 986 l 665 1163 l 561 1163 z m 535 1026 l 456 1138 l 617 1138 z "},"Ŋ":{"ha":1015,"x_min":0,"x_max":0,"o":"m 982 -67 l 982 824 l 868 824 l 868 938 l 561 938 l 561 540 l 82 1019 l 82 57 l 179 57 b 354 -251 192 -75 251 -192 b 636 -411 421 -358 515 -411 b 982 -67 828 -411 982 -257 z m 925 -67 b 636 -354 925 -224 799 -354 b 350 -67 476 -354 350 -224 l 636 -67 l 636 0 l 254 0 l 254 765 l 733 288 l 733 765 l 925 765 z m 868 -67 b 636 -297 868 -178 749 -297 l 636 -325 b 897 -67 774 -325 897 -203 l 897 203 l 868 203 z "},"ŋ":{"ha":1015,"x_min":0,"x_max":0,"o":"m 982 -67 l 982 824 l 868 824 l 868 938 l 561 938 l 561 540 l 82 1019 l 82 57 l 179 57 b 354 -251 192 -75 251 -192 b 636 -411 421 -358 515 -411 b 982 -67 828 -411 982 -257 z m 925 -67 b 636 -354 925 -224 799 -354 b 350 -67 476 -354 350 -224 l 636 -67 l 636 0 l 254 0 l 254 765 l 733 288 l 733 765 l 925 765 z m 868 -67 b 636 -297 868 -178 749 -297 l 636 -325 b 897 -67 774 -325 897 -203 l 897 203 l 868 203 z "},"Ō":{"ha":1000,"x_min":0,"x_max":0,"o":"m 606 375 b 558 424 606 401 582 424 b 510 375 531 424 510 403 b 558 328 510 349 531 328 b 606 375 585 328 606 349 z m 878 383 b 558 60 878 215 722 60 l 558 31 b 907 383 749 31 907 196 z m 940 383 b 558 0 940 174 769 0 b 175 383 344 0 175 169 b 558 765 175 590 349 765 b 940 383 769 765 940 594 z m 999 383 b 807 747 999 532 928 665 b 443 938 724 868 592 938 b 3 497 203 938 3 738 b 194 133 3 349 74 217 b 558 -57 276 13 408 -57 b 999 383 800 -57 999 142 z m 311 1063 l 371 1063 l 371 1003 l 728 1003 l 728 1131 l 668 1131 l 668 1190 l 311 1190 z m 394 1106 l 703 1106 l 703 1025 l 394 1025 z "},"ō":{"ha":1000,"x_min":0,"x_max":0,"o":"m 606 375 b 558 424 606 401 582 424 b 510 375 531 424 510 403 b 558 328 510 349 531 328 b 606 375 585 328 606 349 z m 878 383 b 558 60 878 215 722 60 l 558 31 b 907 383 749 31 907 196 z m 940 383 b 558 0 940 174 769 0 b 175 383 344 0 175 169 b 558 765 175 590 349 765 b 940 383 769 765 940 594 z m 999 383 b 807 747 999 532 928 665 b 443 938 724 868 592 938 b 3 497 203 938 3 738 b 194 133 3 349 74 217 b 558 -57 276 13 408 -57 b 999 383 800 -57 999 142 z m 311 1063 l 371 1063 l 371 1003 l 728 1003 l 728 1131 l 668 1131 l 668 1190 l 311 1190 z m 394 1106 l 703 1106 l 703 1025 l 394 1025 z "},"Ŏ":{"ha":1000,"x_min":0,"x_max":0,"o":"m 274 1193 b 389 1049 274 1121 321 1064 b 508 932 411 993 454 951 b 443 938 486 935 465 938 b 3 497 203 938 3 738 b 194 133 3 349 74 217 b 558 -57 276 13 408 -57 b 999 383 800 -57 999 142 b 807 747 999 532 928 665 b 565 921 747 833 663 893 l 576 921 b 776 1121 678 921 776 996 l 776 1151 l 658 1151 l 658 1256 l 274 1256 z m 940 383 b 558 0 940 174 769 0 b 175 383 344 0 175 169 b 558 765 175 590 349 765 b 940 383 769 765 940 594 z m 576 978 b 433 1097 503 978 444 1029 l 717 1097 b 576 978 706 1029 647 978 z m 878 383 b 558 60 878 215 722 60 l 558 31 b 907 383 749 31 907 196 z m 606 375 b 558 424 606 401 582 424 b 510 375 531 424 510 403 b 558 328 510 349 531 328 b 606 375 585 328 606 349 z m 607 1042 l 607 1014 b 669 1063 638 1022 658 1038 l 638 1063 b 607 1042 629 1053 619 1046 z "},"ŏ":{"ha":1000,"x_min":0,"x_max":0,"o":"m 274 1193 b 389 1049 274 1121 321 1064 b 508 932 411 993 454 951 b 443 938 486 935 465 938 b 3 497 203 938 3 738 b 194 133 3 349 74 217 b 558 -57 276 13 408 -57 b 999 383 800 -57 999 142 b 807 747 999 532 928 665 b 565 921 747 833 663 893 l 576 921 b 776 1121 678 921 776 996 l 776 1151 l 658 1151 l 658 1256 l 274 1256 z m 940 383 b 558 0 940 174 769 0 b 175 383 344 0 175 169 b 558 765 175 590 349 765 b 940 383 769 765 940 594 z m 576 978 b 433 1097 503 978 444 1029 l 717 1097 b 576 978 706 1029 647 978 z m 878 383 b 558 60 878 215 722 60 l 558 31 b 907 383 749 31 907 196 z m 606 375 b 558 424 606 401 582 424 b 510 375 531 424 510 403 b 558 328 510 349 531 328 b 606 375 585 328 606 349 z m 607 1042 l 607 1014 b 669 1063 638 1022 658 1038 l 638 1063 b 607 1042 629 1053 619 1046 z "},"Ő":{"ha":1000,"x_min":0,"x_max":0,"o":"m 606 375 b 558 424 606 401 582 424 b 510 375 531 424 510 403 b 558 328 510 349 531 328 b 606 375 585 328 606 349 z m 878 383 b 558 60 878 215 722 60 l 558 31 b 907 383 749 31 907 196 z m 940 383 b 558 0 940 174 769 0 b 175 383 344 0 175 169 b 558 765 175 590 349 765 b 940 383 769 765 940 594 z m 999 383 b 807 747 999 532 928 665 b 443 938 724 868 592 938 b 3 497 203 938 3 738 b 194 133 3 349 74 217 b 558 -57 276 13 408 -57 b 999 383 800 -57 999 142 z m 585 1222 l 443 1222 l 324 1046 l 424 1046 l 383 986 l 485 986 l 539 1046 l 604 1046 l 564 986 l 665 986 l 825 1163 l 710 1163 l 765 1222 l 624 1222 l 583 1163 l 529 1163 z m 654 1008 l 606 1008 l 693 1138 l 771 1138 z m 474 1008 l 425 1008 l 513 1138 l 590 1138 z "},"ő":{"ha":1000,"x_min":0,"x_max":0,"o":"m 606 375 b 558 424 606 401 582 424 b 510 375 531 424 510 403 b 558 328 510 349 531 328 b 606 375 585 328 606 349 z m 878 383 b 558 60 878 215 722 60 l 558 31 b 907 383 749 31 907 196 z m 940 383 b 558 0 940 174 769 0 b 175 383 344 0 175 169 b 558 765 175 590 349 765 b 940 383 769 765 940 594 z m 999 383 b 807 747 999 532 928 665 b 443 938 724 868 592 938 b 3 497 203 938 3 738 b 194 133 3 349 74 217 b 558 -57 276 13 408 -57 b 999 383 800 -57 999 142 z m 585 1222 l 443 1222 l 324 1046 l 424 1046 l 383 986 l 485 986 l 539 1046 l 604 1046 l 564 986 l 665 986 l 825 1163 l 710 1163 l 765 1222 l 624 1222 l 583 1163 l 529 1163 z m 654 1008 l 606 1008 l 693 1138 l 771 1138 z m 474 1008 l 425 1008 l 513 1138 l 590 1138 z "},"Œ":{"ha":1413,"x_min":0,"x_max":0,"o":"m 767 -57 l 1361 -57 l 1361 344 l 1246 344 l 1246 421 l 1361 421 l 1361 824 l 1246 824 l 1246 938 l 653 938 l 653 885 l 649 888 b 443 938 586 921 517 938 b 3 497 203 938 3 738 b 194 133 3 349 74 217 b 558 -57 276 13 408 -57 b 767 -6 635 -57 704 -40 z m 940 382 l 924 268 b 558 0 874 108 724 0 b 175 383 344 0 175 169 b 558 765 175 590 349 765 b 940 383 769 765 940 594 z m 1303 288 l 1303 0 l 825 0 l 851 54 l 869 71 b 999 383 956 157 999 261 b 824 736 999 521 936 650 l 825 765 l 1303 765 l 1303 479 l 1050 479 l 1050 443 l 1171 443 l 1171 324 l 1050 324 l 1050 288 z m 878 383 b 558 60 878 215 722 60 l 558 31 b 907 383 749 31 907 196 z m 1089 510 l 1271 510 l 1271 678 l 1242 678 l 1242 539 l 1089 539 z m 1089 33 l 1271 33 l 1271 203 l 1242 203 l 1242 63 l 1089 63 z m 606 375 b 558 424 606 401 582 424 b 510 375 531 424 510 403 b 558 328 510 349 531 328 b 606 375 585 328 606 349 z "},"œ":{"ha":1413,"x_min":0,"x_max":0,"o":"m 767 -57 l 1361 -57 l 1361 344 l 1246 344 l 1246 421 l 1361 421 l 1361 824 l 1246 824 l 1246 938 l 653 938 l 653 885 l 649 888 b 443 938 586 921 517 938 b 3 497 203 938 3 738 b 194 133 3 349 74 217 b 558 -57 276 13 408 -57 b 767 -6 635 -57 704 -40 z m 940 382 l 924 268 b 558 0 874 108 724 0 b 175 383 344 0 175 169 b 558 765 175 590 349 765 b 940 383 769 765 940 594 z m 1303 288 l 1303 0 l 825 0 l 851 54 l 869 71 b 999 383 956 157 999 261 b 824 736 999 521 936 650 l 825 765 l 1303 765 l 1303 479 l 1050 479 l 1050 443 l 1171 443 l 1171 324 l 1050 324 l 1050 288 z m 878 383 b 558 60 878 215 722 60 l 558 31 b 907 383 749 31 907 196 z m 1089 510 l 1271 510 l 1271 678 l 1242 678 l 1242 539 l 1089 539 z m 1089 33 l 1271 33 l 1271 203 l 1242 203 l 1242 63 l 1089 63 z m 606 375 b 558 424 606 401 582 424 b 510 375 531 424 510 403 b 558 328 510 349 531 328 b 606 375 585 328 606 349 z "},"Ŕ":{"ha":839,"x_min":0,"x_max":0,"o":"m 711 546 b 531 388 711 465 610 388 l 444 388 l 656 56 l 553 56 l 553 26 l 711 26 l 497 358 l 531 358 b 739 546 638 358 739 438 z m 585 546 b 538 593 585 572 564 593 b 489 546 510 593 489 572 b 538 497 489 518 510 497 b 585 546 564 497 585 518 z m 775 0 l 182 0 l 182 765 l 565 765 b 775 546 676 765 775 661 b 565 325 775 429 678 325 z m 881 -57 l 658 286 b 833 546 763 328 833 433 b 683 792 833 650 781 732 b 450 938 632 881 539 938 l 10 938 l 10 57 l 125 57 l 125 -57 z m 546 1222 l 404 1222 l 285 1046 l 385 1046 l 344 986 l 446 986 l 606 1163 l 490 1163 z m 435 1008 l 386 1008 l 474 1138 l 551 1138 z "},"ŕ":{"ha":839,"x_min":0,"x_max":0,"o":"m 711 546 b 531 388 711 465 610 388 l 444 388 l 656 56 l 553 56 l 553 26 l 711 26 l 497 358 l 531 358 b 739 546 638 358 739 438 z m 585 546 b 538 593 585 572 564 593 b 489 546 510 593 489 572 b 538 497 489 518 510 497 b 585 546 564 497 585 518 z m 775 0 l 182 0 l 182 765 l 565 765 b 775 546 676 765 775 661 b 565 325 775 429 678 325 z m 881 -57 l 658 286 b 833 546 763 328 833 433 b 683 792 833 650 781 732 b 450 938 632 881 539 938 l 10 938 l 10 57 l 125 57 l 125 -57 z m 546 1222 l 404 1222 l 285 1046 l 385 1046 l 344 986 l 446 986 l 606 1163 l 490 1163 z m 435 1008 l 386 1008 l 474 1138 l 551 1138 z "},"Ŗ":{"ha":839,"x_min":0,"x_max":0,"o":"m 711 546 b 531 388 711 465 610 388 l 444 388 l 656 56 l 553 56 l 553 26 l 711 26 l 497 358 l 531 358 b 739 546 638 358 739 438 z m 585 546 b 538 593 585 572 564 593 b 489 546 510 593 489 572 b 538 497 489 518 510 497 b 585 546 564 497 585 518 z m 775 0 l 182 0 l 182 765 l 565 765 b 775 546 676 765 775 661 b 565 325 775 429 678 325 z m 550 -240 b 513 -303 550 -275 539 -296 l 513 -328 b 579 -251 544 -328 579 -279 b 578 -240 579 -247 579 -243 z m 606 -237 b 482 -361 606 -306 550 -361 l 482 -237 l 356 -237 b 482 -111 356 -168 413 -111 b 606 -237 550 -111 606 -168 z m 656 -237 b 544 -72 656 -164 613 -100 b 538 -57 542 -67 540 -61 l 881 -57 l 658 286 b 833 546 763 328 833 433 b 683 792 833 650 781 732 b 450 938 632 881 539 938 l 10 938 l 10 57 l 125 57 l 125 -57 l 235 -57 b 206 -186 215 -92 206 -135 l 321 -186 b 306 -286 311 -218 306 -251 l 332 -286 l 332 -312 b 431 -297 367 -312 400 -307 l 431 -411 b 656 -237 564 -411 656 -344 z "},"ŗ":{"ha":839,"x_min":0,"x_max":0,"o":"m 711 546 b 531 388 711 465 610 388 l 444 388 l 656 56 l 553 56 l 553 26 l 711 26 l 497 358 l 531 358 b 739 546 638 358 739 438 z m 585 546 b 538 593 585 572 564 593 b 489 546 510 593 489 572 b 538 497 489 518 510 497 b 585 546 564 497 585 518 z m 775 0 l 182 0 l 182 765 l 565 765 b 775 546 676 765 775 661 b 565 325 775 429 678 325 z m 550 -240 b 513 -303 550 -275 539 -296 l 513 -328 b 579 -251 544 -328 579 -279 b 578 -240 579 -247 579 -243 z m 606 -237 b 482 -361 606 -306 550 -361 l 482 -237 l 356 -237 b 482 -111 356 -168 413 -111 b 606 -237 550 -111 606 -168 z m 656 -237 b 544 -72 656 -164 613 -100 b 538 -57 542 -67 540 -61 l 881 -57 l 658 286 b 833 546 763 328 833 433 b 683 792 833 650 781 732 b 450 938 632 881 539 938 l 10 938 l 10 57 l 125 57 l 125 -57 l 235 -57 b 206 -186 215 -92 206 -135 l 321 -186 b 306 -286 311 -218 306 -251 l 332 -286 l 332 -312 b 431 -297 367 -312 400 -307 l 431 -411 b 656 -237 564 -411 656 -344 z "},"Ř":{"ha":839,"x_min":0,"x_max":0,"o":"m 711 546 b 531 388 711 465 610 388 l 444 388 l 656 56 l 553 56 l 553 26 l 711 26 l 497 358 l 531 358 b 739 546 638 358 739 438 z m 585 546 b 538 593 585 572 564 593 b 489 546 510 593 489 572 b 538 497 489 518 510 497 b 585 546 564 497 585 518 z m 775 0 l 182 0 l 182 765 l 565 765 b 775 546 676 765 775 661 b 565 325 775 429 678 325 z m 881 -57 l 658 286 b 833 546 763 328 833 433 b 683 792 833 650 781 732 b 450 938 632 881 539 938 l 10 938 l 10 57 l 125 57 l 125 -57 z m 519 1222 l 264 1222 l 390 1046 l 399 1058 l 450 986 l 579 1163 l 475 1163 z m 449 1026 l 369 1138 l 531 1138 z "},"ř":{"ha":839,"x_min":0,"x_max":0,"o":"m 711 546 b 531 388 711 465 610 388 l 444 388 l 656 56 l 553 56 l 553 26 l 711 26 l 497 358 l 531 358 b 739 546 638 358 739 438 z m 585 546 b 538 593 585 572 564 593 b 489 546 510 593 489 572 b 538 497 489 518 510 497 b 585 546 564 497 585 518 z m 775 0 l 182 0 l 182 765 l 565 765 b 775 546 676 765 775 661 b 565 325 775 429 678 325 z m 881 -57 l 658 286 b 833 546 763 328 833 433 b 683 792 833 650 781 732 b 450 938 632 881 539 938 l 10 938 l 10 57 l 125 57 l 125 -57 z m 519 1222 l 264 1222 l 390 1046 l 399 1058 l 450 986 l 579 1163 l 475 1163 z m 449 1026 l 369 1138 l 531 1138 z "},"Ś":{"ha":767,"x_min":0,"x_max":0,"o":"m 635 258 b 440 57 635 163 544 57 l 440 29 b 664 258 564 29 664 133 z m 551 672 l 531 692 l 401 551 l 422 531 z m 696 254 b 440 0 696 115 583 0 b 256 74 361 0 300 25 l 440 258 b 186 513 300 258 186 372 b 440 765 186 654 301 765 b 622 690 513 765 574 740 l 440 508 b 696 254 581 508 696 394 z m 753 254 b 596 524 753 367 694 468 b 574 558 589 536 582 547 l 704 690 b 574 790 658 736 615 769 l 589 806 b 325 938 501 893 413 938 b 14 626 156 938 14 800 b 171 357 14 515 75 414 b 194 322 178 344 185 333 l 63 190 b 192 90 101 146 144 113 l 176 75 b 440 -57 256 -12 344 -57 b 753 254 615 -57 753 86 z m 542 1222 l 400 1222 l 281 1046 l 381 1046 l 340 986 l 442 986 l 601 1163 l 486 1163 z m 431 1008 l 382 1008 l 469 1138 l 547 1138 z "},"ś":{"ha":767,"x_min":0,"x_max":0,"o":"m 635 258 b 440 57 635 163 544 57 l 440 29 b 664 258 564 29 664 133 z m 551 672 l 531 692 l 401 551 l 422 531 z m 696 254 b 440 0 696 115 583 0 b 256 74 361 0 300 25 l 440 258 b 186 513 300 258 186 372 b 440 765 186 654 301 765 b 622 690 513 765 574 740 l 440 508 b 696 254 581 508 696 394 z m 753 254 b 596 524 753 367 694 468 b 574 558 589 536 582 547 l 704 690 b 574 790 658 736 615 769 l 589 806 b 325 938 501 893 413 938 b 14 626 156 938 14 800 b 171 357 14 515 75 414 b 194 322 178 344 185 333 l 63 190 b 192 90 101 146 144 113 l 176 75 b 440 -57 256 -12 344 -57 b 753 254 615 -57 753 86 z m 542 1222 l 400 1222 l 281 1046 l 381 1046 l 340 986 l 442 986 l 601 1163 l 486 1163 z m 431 1008 l 382 1008 l 469 1138 l 547 1138 z "},"Ş":{"ha":767,"x_min":0,"x_max":0,"o":"m 635 258 b 440 57 635 163 544 57 l 440 29 b 664 258 564 29 664 133 z m 551 672 l 531 692 l 401 551 l 422 531 z m 696 254 b 440 0 696 115 583 0 b 256 74 361 0 300 25 l 440 258 b 186 513 300 258 186 372 b 440 765 186 654 301 765 b 622 690 513 765 574 740 l 440 508 b 696 254 581 508 696 394 z m 514 -240 b 476 -303 514 -275 503 -296 l 476 -328 b 543 -251 508 -328 543 -279 b 542 -240 543 -247 543 -243 z m 569 -237 b 446 -361 569 -306 514 -361 l 446 -237 l 319 -237 b 446 -111 319 -168 376 -111 b 569 -237 514 -111 569 -168 z m 619 -237 b 508 -72 619 -164 576 -100 b 499 -51 506 -64 501 -57 b 753 254 644 -24 753 106 b 596 524 753 367 694 468 b 574 558 589 536 582 547 l 704 690 b 574 790 658 736 615 769 l 589 806 b 325 938 501 893 413 938 b 14 626 156 938 14 800 b 171 357 14 515 75 414 b 194 322 178 344 185 333 l 63 190 b 192 90 101 146 144 113 l 176 75 b 256 4 201 46 228 24 b 169 -186 201 -29 169 -96 l 285 -186 b 269 -286 275 -218 269 -251 l 296 -286 l 296 -312 b 394 -297 331 -312 364 -307 l 394 -411 b 619 -237 528 -411 619 -344 z "},"ş":{"ha":767,"x_min":0,"x_max":0,"o":"m 635 258 b 440 57 635 163 544 57 l 440 29 b 664 258 564 29 664 133 z m 551 672 l 531 692 l 401 551 l 422 531 z m 696 254 b 440 0 696 115 583 0 b 256 74 361 0 300 25 l 440 258 b 186 513 300 258 186 372 b 440 765 186 654 301 765 b 622 690 513 765 574 740 l 440 508 b 696 254 581 508 696 394 z m 514 -240 b 476 -303 514 -275 503 -296 l 476 -328 b 543 -251 508 -328 543 -279 b 542 -240 543 -247 543 -243 z m 569 -237 b 446 -361 569 -306 514 -361 l 446 -237 l 319 -237 b 446 -111 319 -168 376 -111 b 569 -237 514 -111 569 -168 z m 619 -237 b 508 -72 619 -164 576 -100 b 499 -51 506 -64 501 -57 b 753 254 644 -24 753 106 b 596 524 753 367 694 468 b 574 558 589 536 582 547 l 704 690 b 574 790 658 736 615 769 l 589 806 b 325 938 501 893 413 938 b 14 626 156 938 14 800 b 171 357 14 515 75 414 b 194 322 178 344 185 333 l 63 190 b 192 90 101 146 144 113 l 176 75 b 256 4 201 46 228 24 b 169 -186 201 -29 169 -96 l 285 -186 b 269 -286 275 -218 269 -251 l 296 -286 l 296 -312 b 394 -297 331 -312 364 -307 l 394 -411 b 619 -237 528 -411 619 -344 z "},"Š":{"ha":767,"x_min":0,"x_max":0,"o":"m 635 258 b 440 57 635 163 544 57 l 440 29 b 664 258 564 29 664 133 z m 551 672 l 531 692 l 401 551 l 422 531 z m 696 254 b 440 0 696 115 583 0 b 256 74 361 0 300 25 l 440 258 b 186 513 300 258 186 372 b 440 765 186 654 301 765 b 622 690 513 765 574 740 l 440 508 b 696 254 581 508 696 394 z m 753 254 b 596 524 753 367 694 468 b 574 558 589 536 582 547 l 704 690 b 574 790 658 736 615 769 l 589 806 b 325 938 501 893 413 938 b 14 626 156 938 14 800 b 171 357 14 515 75 414 b 194 322 178 344 185 333 l 63 190 b 192 90 101 146 144 113 l 176 75 b 440 -57 256 -12 344 -57 b 753 254 615 -57 753 86 z m 492 1222 l 236 1222 l 363 1046 l 371 1058 l 422 986 l 551 1163 l 447 1163 z m 421 1026 l 342 1138 l 503 1138 z "},"š":{"ha":767,"x_min":0,"x_max":0,"o":"m 635 258 b 440 57 635 163 544 57 l 440 29 b 664 258 564 29 664 133 z m 551 672 l 531 692 l 401 551 l 422 531 z m 696 254 b 440 0 696 115 583 0 b 256 74 361 0 300 25 l 440 258 b 186 513 300 258 186 372 b 440 765 186 654 301 765 b 622 690 513 765 574 740 l 440 508 b 696 254 581 508 696 394 z m 753 254 b 596 524 753 367 694 468 b 574 558 589 536 582 547 l 704 690 b 574 790 658 736 615 769 l 589 806 b 325 938 501 893 413 938 b 14 626 156 938 14 800 b 171 357 14 515 75 414 b 194 322 178 344 185 333 l 63 190 b 192 90 101 146 144 113 l 176 75 b 440 -57 256 -12 344 -57 b 753 254 615 -57 753 86 z m 492 1222 l 236 1222 l 363 1046 l 371 1058 l 422 986 l 551 1163 l 447 1163 z m 421 1026 l 342 1138 l 503 1138 z "},"Ţ":{"ha":894,"x_min":0,"x_max":0,"o":"m 608 33 l 608 203 l 579 203 l 579 63 l 426 63 l 426 33 z m 799 613 l 799 713 l 769 713 l 769 642 l 643 642 l 643 613 z m 833 574 l 643 574 l 643 0 l 356 0 l 356 574 l 164 574 l 164 765 l 833 765 z m 561 -240 b 524 -303 561 -275 550 -296 l 524 -328 b 590 -251 556 -328 590 -279 b 589 -240 590 -247 590 -243 z m 617 -237 b 493 -361 617 -306 561 -361 l 493 -237 l 367 -237 b 493 -111 367 -168 424 -111 b 617 -237 561 -111 617 -168 z m 667 -237 b 556 -72 667 -164 624 -100 b 549 -57 553 -67 551 -61 l 700 -57 l 700 517 l 892 517 l 892 824 l 776 824 l 776 938 l -8 938 l -8 632 l 107 632 l 107 517 l 183 517 l 183 57 l 299 57 l 299 1 b 217 -186 246 -33 217 -99 l 332 -186 b 317 -286 322 -218 317 -251 l 343 -286 l 343 -312 b 442 -297 378 -312 411 -307 l 442 -411 b 667 -237 575 -411 667 -344 z "},"ţ":{"ha":894,"x_min":0,"x_max":0,"o":"m 608 33 l 608 203 l 579 203 l 579 63 l 426 63 l 426 33 z m 799 613 l 799 713 l 769 713 l 769 642 l 643 642 l 643 613 z m 833 574 l 643 574 l 643 0 l 356 0 l 356 574 l 164 574 l 164 765 l 833 765 z m 561 -240 b 524 -303 561 -275 550 -296 l 524 -328 b 590 -251 556 -328 590 -279 b 589 -240 590 -247 590 -243 z m 617 -237 b 493 -361 617 -306 561 -361 l 493 -237 l 367 -237 b 493 -111 367 -168 424 -111 b 617 -237 561 -111 617 -168 z m 667 -237 b 556 -72 667 -164 624 -100 b 549 -57 553 -67 551 -61 l 700 -57 l 700 517 l 892 517 l 892 824 l 776 824 l 776 938 l -8 938 l -8 632 l 107 632 l 107 517 l 183 517 l 183 57 l 299 57 l 299 1 b 217 -186 246 -33 217 -99 l 332 -186 b 317 -286 322 -218 317 -251 l 343 -286 l 343 -312 b 442 -297 378 -312 411 -307 l 442 -411 b 667 -237 575 -411 667 -344 z "},"Ť":{"ha":894,"x_min":0,"x_max":0,"o":"m 608 33 l 608 203 l 579 203 l 579 63 l 426 63 l 426 33 z m 799 613 l 799 713 l 769 713 l 769 642 l 643 642 l 643 613 z m 833 574 l 643 574 l 643 0 l 356 0 l 356 574 l 164 574 l 164 765 l 833 765 z m 892 517 l 892 824 l 776 824 l 776 938 l -8 938 l -8 632 l 107 632 l 107 517 l 183 517 l 183 57 l 299 57 l 299 -57 l 700 -57 l 700 517 z m 569 1222 l 314 1222 l 440 1046 l 449 1058 l 500 986 l 629 1163 l 525 1163 z m 499 1026 l 419 1138 l 581 1138 z "},"ť":{"ha":894,"x_min":0,"x_max":0,"o":"m 608 33 l 608 203 l 579 203 l 579 63 l 426 63 l 426 33 z m 799 613 l 799 713 l 769 713 l 769 642 l 643 642 l 643 613 z m 833 574 l 643 574 l 643 0 l 356 0 l 356 574 l 164 574 l 164 765 l 833 765 z m 892 517 l 892 824 l 776 824 l 776 938 l -8 938 l -8 632 l 107 632 l 107 517 l 183 517 l 183 57 l 299 57 l 299 -57 l 700 -57 l 700 517 z m 569 1222 l 314 1222 l 440 1046 l 449 1058 l 500 986 l 629 1163 l 525 1163 z m 499 1026 l 419 1138 l 581 1138 z "},"Ŧ":{"ha":894,"x_min":0,"x_max":0,"o":"m 793 236 l 793 482 l 700 482 l 700 517 l 892 517 l 892 824 l 776 824 l 776 938 l -8 938 l -8 632 l 107 632 l 107 597 l 100 597 l 100 350 l 183 350 l 183 57 l 299 57 l 299 -57 l 700 -57 l 700 236 z m 735 293 l 643 293 l 643 0 l 356 0 l 356 293 l 272 293 l 272 425 l 356 425 l 356 574 l 164 574 l 164 765 l 833 765 l 833 574 l 643 574 l 643 425 l 735 425 z m 608 33 l 608 203 l 579 203 l 579 63 l 426 63 l 426 33 z m 799 613 l 799 713 l 769 713 l 769 642 l 643 642 l 643 613 z m 703 326 l 703 394 l 674 394 l 674 356 l 643 356 l 643 326 z "},"ŧ":{"ha":894,"x_min":0,"x_max":0,"o":"m 793 236 l 793 482 l 700 482 l 700 517 l 892 517 l 892 824 l 776 824 l 776 938 l -8 938 l -8 632 l 107 632 l 107 597 l 100 597 l 100 350 l 183 350 l 183 57 l 299 57 l 299 -57 l 700 -57 l 700 236 z m 735 293 l 643 293 l 643 0 l 356 0 l 356 293 l 272 293 l 272 425 l 356 425 l 356 574 l 164 574 l 164 765 l 833 765 l 833 574 l 643 574 l 643 425 l 735 425 z m 608 33 l 608 203 l 579 203 l 579 63 l 426 63 l 426 33 z m 799 613 l 799 713 l 769 713 l 769 642 l 643 642 l 643 613 z m 703 326 l 703 394 l 674 394 l 674 356 l 643 356 l 643 326 z "},"Ũ":{"ha":869,"x_min":0,"x_max":0,"o":"m 706 288 b 488 60 706 183 601 60 l 488 31 b 735 288 622 31 735 157 z m 774 288 b 488 0 774 131 647 0 b 200 288 325 0 200 131 l 200 765 l 774 765 z m 832 824 l 717 824 l 717 938 l 28 938 l 28 401 b 193 108 28 281 88 165 b 488 -57 253 3 361 -57 b 832 288 678 -57 832 99 z m 261 1106 b 396 1156 300 1140 347 1156 b 571 1110 464 1156 508 1110 b 626 1132 593 1110 615 1117 l 710 1065 b 561 1003 678 1025 614 1003 b 393 1047 501 1003 456 1047 b 331 1024 369 1047 349 1042 z m 251 1067 l 258 1072 l 322 994 b 394 1024 343 1015 368 1024 b 564 979 456 1024 511 979 b 744 1067 633 979 701 1010 l 667 1131 l 674 1139 l 578 1218 b 500 1176 557 1193 529 1176 b 451 1194 483 1176 467 1182 b 328 1221 413 1213 369 1221 b 169 1163 271 1221 215 1203 z "},"ũ":{"ha":869,"x_min":0,"x_max":0,"o":"m 706 288 b 488 60 706 183 601 60 l 488 31 b 735 288 622 31 735 157 z m 774 288 b 488 0 774 131 647 0 b 200 288 325 0 200 131 l 200 765 l 774 765 z m 832 824 l 717 824 l 717 938 l 28 938 l 28 401 b 193 108 28 281 88 165 b 488 -57 253 3 361 -57 b 832 288 678 -57 832 99 z m 261 1106 b 396 1156 300 1140 347 1156 b 571 1110 464 1156 508 1110 b 626 1132 593 1110 615 1117 l 710 1065 b 561 1003 678 1025 614 1003 b 393 1047 501 1003 456 1047 b 331 1024 369 1047 349 1042 z m 251 1067 l 258 1072 l 322 994 b 394 1024 343 1015 368 1024 b 564 979 456 1024 511 979 b 744 1067 633 979 701 1010 l 667 1131 l 674 1139 l 578 1218 b 500 1176 557 1193 529 1176 b 451 1194 483 1176 467 1182 b 328 1221 413 1213 369 1221 b 169 1163 271 1221 215 1203 z "},"Ū":{"ha":869,"x_min":0,"x_max":0,"o":"m 706 288 b 488 60 706 183 601 60 l 488 31 b 735 288 622 31 735 157 z m 774 288 b 488 0 774 131 647 0 b 200 288 325 0 200 131 l 200 765 l 774 765 z m 832 824 l 717 824 l 717 938 l 28 938 l 28 401 b 193 108 28 281 88 165 b 488 -57 253 3 361 -57 b 832 288 678 -57 832 99 z m 253 1063 l 313 1063 l 313 1003 l 669 1003 l 669 1131 l 610 1131 l 610 1190 l 253 1190 z m 336 1106 l 644 1106 l 644 1025 l 336 1025 z "},"ū":{"ha":869,"x_min":0,"x_max":0,"o":"m 706 288 b 488 60 706 183 601 60 l 488 31 b 735 288 622 31 735 157 z m 774 288 b 488 0 774 131 647 0 b 200 288 325 0 200 131 l 200 765 l 774 765 z m 832 824 l 717 824 l 717 938 l 28 938 l 28 401 b 193 108 28 281 88 165 b 488 -57 253 3 361 -57 b 832 288 678 -57 832 99 z m 253 1063 l 313 1063 l 313 1003 l 669 1003 l 669 1131 l 610 1131 l 610 1190 l 253 1190 z m 336 1106 l 644 1106 l 644 1025 l 336 1025 z "},"Ŭ":{"ha":869,"x_min":0,"x_max":0,"o":"m 196 1193 b 311 1049 196 1121 243 1064 b 418 938 332 997 371 958 l 28 938 l 28 401 b 193 108 28 281 88 165 b 488 -57 253 3 361 -57 b 832 288 678 -57 832 99 l 832 824 l 717 824 l 717 938 l 579 938 b 699 1121 647 965 699 1029 l 699 1151 l 581 1151 l 581 1256 l 196 1256 z m 774 288 b 488 0 774 131 647 0 b 200 288 325 0 200 131 l 200 765 l 774 765 z m 499 978 b 356 1097 425 978 367 1029 l 639 1097 b 499 978 628 1029 569 978 z m 706 288 b 488 60 706 183 601 60 l 488 31 b 735 288 622 31 735 157 z m 529 1042 l 529 1014 b 592 1063 560 1022 581 1038 l 560 1063 b 529 1042 551 1053 542 1046 z "},"ŭ":{"ha":869,"x_min":0,"x_max":0,"o":"m 196 1193 b 311 1049 196 1121 243 1064 b 418 938 332 997 371 958 l 28 938 l 28 401 b 193 108 28 281 88 165 b 488 -57 253 3 361 -57 b 832 288 678 -57 832 99 l 832 824 l 717 824 l 717 938 l 579 938 b 699 1121 647 965 699 1029 l 699 1151 l 581 1151 l 581 1256 l 196 1256 z m 774 288 b 488 0 774 131 647 0 b 200 288 325 0 200 131 l 200 765 l 774 765 z m 499 978 b 356 1097 425 978 367 1029 l 639 1097 b 499 978 628 1029 569 978 z m 706 288 b 488 60 706 183 601 60 l 488 31 b 735 288 622 31 735 157 z m 529 1042 l 529 1014 b 592 1063 560 1022 581 1038 l 560 1063 b 529 1042 551 1053 542 1046 z "},"Ů":{"ha":869,"x_min":0,"x_max":0,"o":"m 706 288 b 488 60 706 183 601 60 l 488 31 b 735 288 622 31 735 157 z m 774 288 b 488 0 774 131 647 0 b 200 288 325 0 200 131 l 200 765 l 774 765 z m 832 824 l 717 824 l 717 938 l 28 938 l 28 401 b 193 108 28 281 88 165 b 488 -57 253 3 361 -57 b 832 288 678 -57 832 99 z m 324 1144 b 390 1042 324 1099 350 1060 b 493 975 407 1003 447 975 b 603 1085 556 975 603 1024 b 535 1188 603 1131 578 1169 b 433 1256 518 1228 479 1256 b 324 1144 371 1256 324 1207 z m 406 1083 b 492 1169 406 1132 443 1169 b 578 1083 540 1169 578 1132 b 492 997 578 1038 540 997 b 406 1083 443 997 406 1038 z m 463 1083 b 493 1054 463 1067 475 1054 b 522 1083 510 1054 522 1067 b 493 1114 522 1101 510 1114 b 463 1083 475 1114 463 1101 z "},"ů":{"ha":869,"x_min":0,"x_max":0,"o":"m 706 288 b 488 60 706 183 601 60 l 488 31 b 735 288 622 31 735 157 z m 774 288 b 488 0 774 131 647 0 b 200 288 325 0 200 131 l 200 765 l 774 765 z m 832 824 l 717 824 l 717 938 l 28 938 l 28 401 b 193 108 28 281 88 165 b 488 -57 253 3 361 -57 b 832 288 678 -57 832 99 z m 324 1144 b 390 1042 324 1099 350 1060 b 493 975 407 1003 447 975 b 603 1085 556 975 603 1024 b 535 1188 603 1131 578 1169 b 433 1256 518 1228 479 1256 b 324 1144 371 1256 324 1207 z m 406 1083 b 492 1169 406 1132 443 1169 b 578 1083 540 1169 578 1132 b 492 997 578 1038 540 997 b 406 1083 443 997 406 1038 z m 463 1083 b 493 1054 463 1067 475 1054 b 522 1083 510 1054 522 1067 b 493 1114 522 1101 510 1114 b 463 1083 475 1114 463 1101 z "},"Ű":{"ha":869,"x_min":0,"x_max":0,"o":"m 706 288 b 488 60 706 183 601 60 l 488 31 b 735 288 622 31 735 157 z m 774 288 b 488 0 774 131 647 0 b 200 288 325 0 200 131 l 200 765 l 774 765 z m 832 824 l 717 824 l 717 938 l 28 938 l 28 401 b 193 108 28 281 88 165 b 488 -57 253 3 361 -57 b 832 288 678 -57 832 99 z m 528 1222 l 386 1222 l 267 1046 l 367 1046 l 326 986 l 428 986 l 482 1046 l 547 1046 l 507 986 l 608 986 l 768 1163 l 653 1163 l 708 1222 l 567 1222 l 526 1163 l 472 1163 z m 597 1008 l 549 1008 l 636 1138 l 714 1138 z m 417 1008 l 368 1008 l 456 1138 l 533 1138 z "},"ű":{"ha":869,"x_min":0,"x_max":0,"o":"m 706 288 b 488 60 706 183 601 60 l 488 31 b 735 288 622 31 735 157 z m 774 288 b 488 0 774 131 647 0 b 200 288 325 0 200 131 l 200 765 l 774 765 z m 832 824 l 717 824 l 717 938 l 28 938 l 28 401 b 193 108 28 281 88 165 b 488 -57 253 3 361 -57 b 832 288 678 -57 832 99 z m 528 1222 l 386 1222 l 267 1046 l 367 1046 l 326 986 l 428 986 l 482 1046 l 547 1046 l 507 986 l 608 986 l 768 1163 l 653 1163 l 708 1222 l 567 1222 l 526 1163 l 472 1163 z m 597 1008 l 549 1008 l 636 1138 l 714 1138 z m 417 1008 l 368 1008 l 456 1138 l 533 1138 z "},"Ų":{"ha":869,"x_min":0,"x_max":0,"o":"m 561 -153 b 578 -44 571 -118 576 -82 b 832 288 724 -4 832 129 l 832 824 l 717 824 l 717 938 l 28 938 l 28 401 b 193 108 28 281 88 165 b 239 44 206 85 221 64 b 176 -94 199 10 176 -36 b 306 -283 176 -178 228 -251 b 492 -411 335 -360 410 -411 b 693 -153 614 -411 693 -308 z m 706 288 b 488 60 706 183 601 60 l 488 31 b 735 288 622 31 735 157 z m 774 288 b 488 0 774 131 647 0 b 200 288 325 0 200 131 l 200 765 l 774 765 z m 571 -233 b 526 -279 571 -254 556 -269 l 526 -318 b 600 -233 575 -307 600 -279 z m 646 -210 b 501 -353 646 -289 581 -353 b 358 -210 422 -353 358 -289 b 501 -67 358 -131 422 -67 l 501 -210 z "},"ų":{"ha":869,"x_min":0,"x_max":0,"o":"m 561 -153 b 578 -44 571 -118 576 -82 b 832 288 724 -4 832 129 l 832 824 l 717 824 l 717 938 l 28 938 l 28 401 b 193 108 28 281 88 165 b 239 44 206 85 221 64 b 176 -94 199 10 176 -36 b 306 -283 176 -178 228 -251 b 492 -411 335 -360 410 -411 b 693 -153 614 -411 693 -308 z m 706 288 b 488 60 706 183 601 60 l 488 31 b 735 288 622 31 735 157 z m 774 288 b 488 0 774 131 647 0 b 200 288 325 0 200 131 l 200 765 l 774 765 z m 571 -233 b 526 -279 571 -254 556 -269 l 526 -318 b 600 -233 575 -307 600 -279 z m 646 -210 b 501 -353 646 -289 581 -353 b 358 -210 422 -353 358 -289 b 501 -67 358 -131 422 -67 l 501 -210 z "},"Ŵ":{"ha":1292,"x_min":0,"x_max":0,"o":"m 635 340 l 619 369 l 518 168 l 536 132 z m 1010 325 l 993 357 l 893 156 l 910 118 z m 1274 765 l 890 0 l 699 383 l 507 0 l 125 765 z m 1367 824 l 1194 824 l 1251 938 l -83 938 l 393 -12 l 421 44 l 507 -128 l 669 197 l 775 -12 l 804 44 l 890 -128 z m 515 1046 l 618 1046 l 575 986 l 831 986 l 704 1163 l 696 1151 l 644 1222 z m 703 1119 l 783 1008 l 621 1008 z "},"ŵ":{"ha":1292,"x_min":0,"x_max":0,"o":"m 635 340 l 619 369 l 518 168 l 536 132 z m 1010 325 l 993 357 l 893 156 l 910 118 z m 1274 765 l 890 0 l 699 383 l 507 0 l 125 765 z m 1367 824 l 1194 824 l 1251 938 l -83 938 l 393 -12 l 421 44 l 507 -128 l 669 197 l 775 -12 l 804 44 l 890 -128 z m 515 1046 l 618 1046 l 575 986 l 831 986 l 704 1163 l 696 1151 l 644 1222 z m 703 1119 l 783 1008 l 621 1008 z "},"Ŷ":{"ha":761,"x_min":0,"x_max":0,"o":"m 661 724 l 635 738 l 461 396 l 461 63 l 383 63 l 383 33 l 490 33 l 490 389 z m 721 765 l 529 383 l 529 0 l 338 0 l 338 383 l 146 765 z m 814 824 l 642 824 l 699 938 l -62 938 l 165 485 l 165 57 l 281 57 l 281 -57 l 586 -57 l 586 369 z m 250 1046 l 353 1046 l 310 986 l 565 986 l 439 1163 l 431 1151 l 379 1222 z m 438 1119 l 518 1008 l 356 1008 z "},"ŷ":{"ha":761,"x_min":0,"x_max":0,"o":"m 661 724 l 635 738 l 461 396 l 461 63 l 383 63 l 383 33 l 490 33 l 490 389 z m 721 765 l 529 383 l 529 0 l 338 0 l 338 383 l 146 765 z m 814 824 l 642 824 l 699 938 l -62 938 l 165 485 l 165 57 l 281 57 l 281 -57 l 586 -57 l 586 369 z m 250 1046 l 353 1046 l 310 986 l 565 986 l 439 1163 l 431 1151 l 379 1222 z m 438 1119 l 518 1008 l 356 1008 z "},"Ÿ":{"ha":761,"x_min":0,"x_max":0,"o":"m 661 724 l 635 738 l 461 396 l 461 63 l 383 63 l 383 33 l 490 33 l 490 389 z m 721 765 l 529 383 l 529 0 l 338 0 l 338 383 l 146 765 z m 814 824 l 642 824 l 699 938 l -62 938 l 165 485 l 165 57 l 281 57 l 281 -57 l 586 -57 l 586 369 z m 615 1003 l 615 1131 l 556 1131 l 556 1190 l 425 1190 l 425 1063 l 485 1063 l 485 1003 z m 199 1063 l 258 1063 l 258 1003 l 385 1003 l 385 1131 l 325 1131 l 325 1190 l 199 1190 z m 508 1025 l 508 1106 l 590 1106 l 590 1025 z m 282 1106 l 360 1106 l 360 1025 l 282 1025 z "},"Ź":{"ha":956,"x_min":0,"x_max":0,"o":"m 763 33 l 763 143 l 733 143 l 733 63 l 581 63 l 581 33 z m 775 714 l 749 725 l 539 193 l 565 182 z m 839 765 l 610 192 l 801 192 l 801 0 l 228 0 l 419 574 l 228 574 l 228 765 z m 922 824 l 763 824 l 807 938 l 56 938 l 56 632 l 169 632 l 169 517 l 186 517 l 32 57 l 186 57 l 147 -57 l 860 -57 l 860 249 l 744 249 l 744 364 l 740 364 z m 661 1222 l 519 1222 l 400 1046 l 500 1046 l 460 986 l 561 986 l 721 1163 l 606 1163 z m 550 1008 l 501 1008 l 589 1138 l 667 1138 z "},"ź":{"ha":956,"x_min":0,"x_max":0,"o":"m 763 33 l 763 143 l 733 143 l 733 63 l 581 63 l 581 33 z m 775 714 l 749 725 l 539 193 l 565 182 z m 839 765 l 610 192 l 801 192 l 801 0 l 228 0 l 419 574 l 228 574 l 228 765 z m 922 824 l 763 824 l 807 938 l 56 938 l 56 632 l 169 632 l 169 517 l 186 517 l 32 57 l 186 57 l 147 -57 l 860 -57 l 860 249 l 744 249 l 744 364 l 740 364 z m 661 1222 l 519 1222 l 400 1046 l 500 1046 l 460 986 l 561 986 l 721 1163 l 606 1163 z m 550 1008 l 501 1008 l 589 1138 l 667 1138 z "},"Ż":{"ha":956,"x_min":0,"x_max":0,"o":"m 763 33 l 763 143 l 733 143 l 733 63 l 581 63 l 581 33 z m 775 714 l 749 725 l 539 193 l 565 182 z m 839 765 l 610 192 l 801 192 l 801 0 l 228 0 l 419 574 l 228 574 l 228 765 z m 922 824 l 763 824 l 807 938 l 56 938 l 56 632 l 169 632 l 169 517 l 186 517 l 32 57 l 186 57 l 147 -57 l 860 -57 l 860 249 l 744 249 l 744 364 l 740 364 z m 404 1063 l 464 1063 l 464 1003 l 590 1003 l 590 1131 l 531 1131 l 531 1190 l 404 1190 z m 488 1106 l 565 1106 l 565 1025 l 488 1025 z "},"ż":{"ha":956,"x_min":0,"x_max":0,"o":"m 763 33 l 763 143 l 733 143 l 733 63 l 581 63 l 581 33 z m 775 714 l 749 725 l 539 193 l 565 182 z m 839 765 l 610 192 l 801 192 l 801 0 l 228 0 l 419 574 l 228 574 l 228 765 z m 922 824 l 763 824 l 807 938 l 56 938 l 56 632 l 169 632 l 169 517 l 186 517 l 32 57 l 186 57 l 147 -57 l 860 -57 l 860 249 l 744 249 l 744 364 l 740 364 z m 404 1063 l 464 1063 l 464 1003 l 590 1003 l 590 1131 l 531 1131 l 531 1190 l 404 1190 z m 488 1106 l 565 1106 l 565 1025 l 488 1025 z "},"Ž":{"ha":956,"x_min":0,"x_max":0,"o":"m 763 33 l 763 143 l 733 143 l 733 63 l 581 63 l 581 33 z m 775 714 l 749 725 l 539 193 l 565 182 z m 839 765 l 610 192 l 801 192 l 801 0 l 228 0 l 419 574 l 228 574 l 228 765 z m 922 824 l 763 824 l 807 938 l 56 938 l 56 632 l 169 632 l 169 517 l 186 517 l 32 57 l 186 57 l 147 -57 l 860 -57 l 860 249 l 744 249 l 744 364 l 740 364 z m 613 1222 l 357 1222 l 483 1046 l 492 1058 l 543 986 l 672 1163 l 568 1163 z m 542 1026 l 463 1138 l 624 1138 z "},"ž":{"ha":956,"x_min":0,"x_max":0,"o":"m 763 33 l 763 143 l 733 143 l 733 63 l 581 63 l 581 33 z m 775 714 l 749 725 l 539 193 l 565 182 z m 839 765 l 610 192 l 801 192 l 801 0 l 228 0 l 419 574 l 228 574 l 228 765 z m 922 824 l 763 824 l 807 938 l 56 938 l 56 632 l 169 632 l 169 517 l 186 517 l 32 57 l 186 57 l 147 -57 l 860 -57 l 860 249 l 744 249 l 744 364 l 740 364 z m 613 1222 l 357 1222 l 483 1046 l 492 1058 l 543 986 l 672 1163 l 568 1163 z m 542 1026 l 463 1138 l 624 1138 z "},"Ș":{"ha":767,"x_min":0,"x_max":0,"o":"m 635 258 b 440 57 635 163 544 57 l 440 29 b 664 258 564 29 664 133 z m 551 672 l 531 692 l 401 551 l 422 531 z m 696 254 b 440 0 696 115 583 0 b 256 74 361 0 300 25 l 440 258 b 186 513 300 258 186 372 b 440 765 186 654 301 765 b 622 690 513 765 574 740 l 440 508 b 696 254 581 508 696 394 z m 514 -240 b 476 -303 514 -275 503 -296 l 476 -328 b 543 -251 508 -328 543 -279 b 542 -240 543 -247 543 -243 z m 569 -237 b 446 -361 569 -306 514 -361 l 446 -237 l 319 -237 b 446 -111 319 -168 376 -111 b 569 -237 514 -111 569 -168 z m 619 -237 b 508 -72 619 -164 576 -100 b 499 -51 506 -64 501 -57 b 753 254 644 -24 753 106 b 596 524 753 367 694 468 b 574 558 589 536 582 547 l 704 690 b 574 790 658 736 615 769 l 589 806 b 325 938 501 893 413 938 b 14 626 156 938 14 800 b 171 357 14 515 75 414 b 194 322 178 344 185 333 l 63 190 b 192 90 101 146 144 113 l 176 75 b 256 4 201 46 228 24 b 169 -186 201 -29 169 -96 l 285 -186 b 269 -286 275 -218 269 -251 l 296 -286 l 296 -312 b 394 -297 331 -312 364 -307 l 394 -411 b 619 -237 528 -411 619 -344 z "},"ș":{"ha":767,"x_min":0,"x_max":0,"o":"m 635 258 b 440 57 635 163 544 57 l 440 29 b 664 258 564 29 664 133 z m 551 672 l 531 692 l 401 551 l 422 531 z m 696 254 b 440 0 696 115 583 0 b 256 74 361 0 300 25 l 440 258 b 186 513 300 258 186 372 b 440 765 186 654 301 765 b 622 690 513 765 574 740 l 440 508 b 696 254 581 508 696 394 z m 514 -240 b 476 -303 514 -275 503 -296 l 476 -328 b 543 -251 508 -328 543 -279 b 542 -240 543 -247 543 -243 z m 569 -237 b 446 -361 569 -306 514 -361 l 446 -237 l 319 -237 b 446 -111 319 -168 376 -111 b 569 -237 514 -111 569 -168 z m 619 -237 b 508 -72 619 -164 576 -100 b 499 -51 506 -64 501 -57 b 753 254 644 -24 753 106 b 596 524 753 367 694 468 b 574 558 589 536 582 547 l 704 690 b 574 790 658 736 615 769 l 589 806 b 325 938 501 893 413 938 b 14 626 156 938 14 800 b 171 357 14 515 75 414 b 194 322 178 344 185 333 l 63 190 b 192 90 101 146 144 113 l 176 75 b 256 4 201 46 228 24 b 169 -186 201 -29 169 -96 l 285 -186 b 269 -286 275 -218 269 -251 l 296 -286 l 296 -312 b 394 -297 331 -312 364 -307 l 394 -411 b 619 -237 528 -411 619 -344 z "},"Ț":{"ha":894,"x_min":0,"x_max":0,"o":"m 608 33 l 608 203 l 579 203 l 579 63 l 426 63 l 426 33 z m 799 613 l 799 713 l 769 713 l 769 642 l 643 642 l 643 613 z m 833 574 l 643 574 l 643 0 l 356 0 l 356 574 l 164 574 l 164 765 l 833 765 z m 561 -240 b 524 -303 561 -275 550 -296 l 524 -328 b 590 -251 556 -328 590 -279 b 589 -240 590 -247 590 -243 z m 617 -237 b 493 -361 617 -306 561 -361 l 493 -237 l 367 -237 b 493 -111 367 -168 424 -111 b 617 -237 561 -111 617 -168 z m 667 -237 b 556 -72 667 -164 624 -100 b 549 -57 553 -67 551 -61 l 700 -57 l 700 517 l 892 517 l 892 824 l 776 824 l 776 938 l -8 938 l -8 632 l 107 632 l 107 517 l 183 517 l 183 57 l 299 57 l 299 1 b 217 -186 246 -33 217 -99 l 332 -186 b 317 -286 322 -218 317 -251 l 343 -286 l 343 -312 b 442 -297 378 -312 411 -307 l 442 -411 b 667 -237 575 -411 667 -344 z "},"ț":{"ha":894,"x_min":0,"x_max":0,"o":"m 608 33 l 608 203 l 579 203 l 579 63 l 426 63 l 426 33 z m 799 613 l 799 713 l 769 713 l 769 642 l 643 642 l 643 613 z m 833 574 l 643 574 l 643 0 l 356 0 l 356 574 l 164 574 l 164 765 l 833 765 z m 561 -240 b 524 -303 561 -275 550 -296 l 524 -328 b 590 -251 556 -328 590 -279 b 589 -240 590 -247 590 -243 z m 617 -237 b 493 -361 617 -306 561 -361 l 493 -237 l 367 -237 b 493 -111 367 -168 424 -111 b 617 -237 561 -111 617 -168 z m 667 -237 b 556 -72 667 -164 624 -100 b 549 -57 553 -67 551 -61 l 700 -57 l 700 517 l 892 517 l 892 824 l 776 824 l 776 938 l -8 938 l -8 632 l 107 632 l 107 517 l 183 517 l 183 57 l 299 57 l 299 1 b 217 -186 246 -33 217 -99 l 332 -186 b 317 -286 322 -218 317 -251 l 343 -286 l 343 -312 b 442 -297 378 -312 411 -307 l 442 -411 b 667 -237 575 -411 667 -344 z "},"ˆ":{"ha":683,"x_min":0,"x_max":0,"o":"m 201 1046 l 304 1046 l 261 986 l 517 986 l 390 1163 l 382 1151 l 331 1222 z m 389 1119 l 469 1008 l 307 1008 z "},"ˇ":{"ha":596,"x_min":0,"x_max":0,"o":"m 394 1222 l 139 1222 l 265 1046 l 274 1058 l 325 986 l 454 1163 l 350 1163 z m 324 1026 l 244 1138 l 406 1138 z "},"˘":{"ha":522,"x_min":0,"x_max":0,"o":"m 7 1193 b 122 1049 7 1121 54 1064 b 310 921 154 971 226 921 b 510 1121 411 921 510 996 l 510 1151 l 392 1151 l 392 1256 l 7 1256 z m 310 978 b 167 1097 236 978 178 1029 l 450 1097 b 310 978 439 1029 381 978 z m 340 1042 l 340 1014 b 403 1063 371 1022 392 1038 l 371 1063 b 340 1042 363 1053 353 1046 z "},"˙":{"ha":392,"x_min":0,"x_max":0,"o":"m 110 1063 l 169 1063 l 169 1003 l 296 1003 l 296 1131 l 236 1131 l 236 1190 l 110 1190 z m 193 1106 l 271 1106 l 271 1025 l 193 1025 z "},"˚":{"ha":378,"x_min":0,"x_max":0,"o":"m 56 1144 b 122 1042 56 1099 82 1060 b 225 975 139 1003 179 975 b 335 1085 288 975 335 1024 b 267 1188 335 1131 310 1169 b 165 1256 250 1228 211 1256 b 56 1144 103 1256 56 1207 z m 138 1083 b 224 1169 138 1132 175 1169 b 310 1083 272 1169 310 1132 b 224 997 310 1038 272 997 b 138 1083 175 997 138 1038 z m 194 1083 b 225 1054 194 1067 207 1054 b 254 1083 242 1054 254 1067 b 225 1114 254 1101 242 1114 b 194 1083 207 1114 194 1101 z "},"˛":{"ha":606,"x_min":0,"x_max":0,"o":"m 436 -233 b 392 -279 436 -254 421 -269 l 392 -318 b 465 -233 440 -307 465 -279 z m 511 -210 b 367 -353 511 -289 446 -353 b 224 -210 288 -353 224 -289 b 367 -67 224 -131 288 -67 l 367 -210 z m 426 -153 b 443 -37 438 -117 443 -78 l 415 -37 l 415 -8 b 300 -25 375 -8 336 -14 l 300 106 b 42 -94 144 106 42 28 b 171 -283 42 -178 93 -251 b 357 -411 200 -360 275 -411 b 558 -153 479 -411 558 -308 z "},"˜":{"ha":704,"x_min":0,"x_max":0,"o":"m 151 1106 b 286 1156 190 1140 238 1156 b 461 1110 354 1156 399 1110 b 517 1132 483 1110 506 1117 l 600 1065 b 451 1003 568 1025 504 1003 b 283 1047 392 1003 346 1047 b 221 1024 260 1047 239 1042 z m 142 1067 l 149 1072 l 213 994 b 285 1024 233 1015 258 1024 b 454 979 346 1024 401 979 b 635 1067 524 979 592 1010 l 557 1131 l 564 1139 l 468 1218 b 390 1176 447 1193 419 1176 b 342 1194 374 1176 357 1182 b 218 1221 303 1213 260 1221 b 60 1163 161 1221 106 1203 z "},"˝":{"ha":707,"x_min":0,"x_max":0,"o":"m 371 1222 l 229 1222 l 110 1046 l 210 1046 l 169 986 l 271 986 l 325 1046 l 390 1046 l 350 986 l 451 986 l 611 1163 l 496 1163 l 551 1222 l 410 1222 l 369 1163 l 315 1163 z m 440 1008 l 392 1008 l 479 1138 l 557 1138 z m 260 1008 l 211 1008 l 299 1138 l 376 1138 z "},"Ẁ":{"ha":1292,"x_min":0,"x_max":0,"o":"m 635 340 l 619 369 l 518 168 l 536 132 z m 1010 325 l 993 357 l 893 156 l 910 118 z m 1274 765 l 890 0 l 699 383 l 507 0 l 125 765 z m 1367 824 l 1194 824 l 1251 938 l -83 938 l 393 -12 l 421 44 l 507 -128 l 669 197 l 775 -12 l 804 44 l 890 -128 z m 444 1222 l 604 1046 l 610 1046 l 664 986 l 765 986 l 646 1163 l 626 1163 l 586 1222 z m 633 1138 l 721 1008 l 672 1008 l 557 1138 z "},"ẁ":{"ha":1292,"x_min":0,"x_max":0,"o":"m 635 340 l 619 369 l 518 168 l 536 132 z m 1010 325 l 993 357 l 893 156 l 910 118 z m 1274 765 l 890 0 l 699 383 l 507 0 l 125 765 z m 1367 824 l 1194 824 l 1251 938 l -83 938 l 393 -12 l 421 44 l 507 -128 l 669 197 l 775 -12 l 804 44 l 890 -128 z m 444 1222 l 604 1046 l 610 1046 l 664 986 l 765 986 l 646 1163 l 626 1163 l 586 1222 z m 633 1138 l 721 1008 l 672 1008 l 557 1138 z "},"Ẃ":{"ha":1292,"x_min":0,"x_max":0,"o":"m 635 340 l 619 369 l 518 168 l 536 132 z m 1010 325 l 993 357 l 893 156 l 910 118 z m 1274 765 l 890 0 l 699 383 l 507 0 l 125 765 z m 1367 824 l 1194 824 l 1251 938 l -83 938 l 393 -12 l 421 44 l 507 -128 l 669 197 l 775 -12 l 804 44 l 890 -128 z m 818 1222 l 676 1222 l 557 1046 l 657 1046 l 617 986 l 718 986 l 878 1163 l 763 1163 z m 707 1008 l 658 1008 l 746 1138 l 824 1138 z "},"ẃ":{"ha":1292,"x_min":0,"x_max":0,"o":"m 635 340 l 619 369 l 518 168 l 536 132 z m 1010 325 l 993 357 l 893 156 l 910 118 z m 1274 765 l 890 0 l 699 383 l 507 0 l 125 765 z m 1367 824 l 1194 824 l 1251 938 l -83 938 l 393 -12 l 421 44 l 507 -128 l 669 197 l 775 -12 l 804 44 l 890 -128 z m 818 1222 l 676 1222 l 557 1046 l 657 1046 l 617 986 l 718 986 l 878 1163 l 763 1163 z m 707 1008 l 658 1008 l 746 1138 l 824 1138 z "},"Ẅ":{"ha":1292,"x_min":0,"x_max":0,"o":"m 635 340 l 619 369 l 518 168 l 536 132 z m 1010 325 l 993 357 l 893 156 l 910 118 z m 1274 765 l 890 0 l 699 383 l 507 0 l 125 765 z m 1367 824 l 1194 824 l 1251 938 l -83 938 l 393 -12 l 421 44 l 507 -128 l 669 197 l 775 -12 l 804 44 l 890 -128 z m 879 1003 l 879 1131 l 819 1131 l 819 1190 l 689 1190 l 689 1063 l 749 1063 l 749 1003 z m 463 1063 l 522 1063 l 522 1003 l 649 1003 l 649 1131 l 589 1131 l 589 1190 l 463 1190 z m 772 1025 l 772 1106 l 854 1106 l 854 1025 z m 546 1106 l 624 1106 l 624 1025 l 546 1025 z "},"ẅ":{"ha":1292,"x_min":0,"x_max":0,"o":"m 635 340 l 619 369 l 518 168 l 536 132 z m 1010 325 l 993 357 l 893 156 l 910 118 z m 1274 765 l 890 0 l 699 383 l 507 0 l 125 765 z m 1367 824 l 1194 824 l 1251 938 l -83 938 l 393 -12 l 421 44 l 507 -128 l 669 197 l 775 -12 l 804 44 l 890 -128 z m 879 1003 l 879 1131 l 819 1131 l 819 1190 l 689 1190 l 689 1063 l 749 1063 l 749 1003 z m 463 1063 l 522 1063 l 522 1003 l 649 1003 l 649 1131 l 589 1131 l 589 1190 l 463 1190 z m 772 1025 l 772 1106 l 854 1106 l 854 1025 z m 546 1106 l 624 1106 l 624 1025 l 546 1025 z "},"Ỳ":{"ha":761,"x_min":0,"x_max":0,"o":"m 661 724 l 635 738 l 461 396 l 461 63 l 383 63 l 383 33 l 490 33 l 490 389 z m 721 765 l 529 383 l 529 0 l 338 0 l 338 383 l 146 765 z m 814 824 l 642 824 l 699 938 l -62 938 l 165 485 l 165 57 l 281 57 l 281 -57 l 586 -57 l 586 369 z m 168 1222 l 328 1046 l 333 1046 l 388 986 l 489 986 l 369 1163 l 350 1163 l 310 1222 z m 357 1138 l 444 1008 l 396 1008 l 281 1138 z "},"ỳ":{"ha":761,"x_min":0,"x_max":0,"o":"m 661 724 l 635 738 l 461 396 l 461 63 l 383 63 l 383 33 l 490 33 l 490 389 z m 721 765 l 529 383 l 529 0 l 338 0 l 338 383 l 146 765 z m 814 824 l 642 824 l 699 938 l -62 938 l 165 485 l 165 57 l 281 57 l 281 -57 l 586 -57 l 586 369 z m 168 1222 l 328 1046 l 333 1046 l 388 986 l 489 986 l 369 1163 l 350 1163 l 310 1222 z m 357 1138 l 444 1008 l 396 1008 l 281 1138 z "},"–":{"ha":1190,"x_min":0,"x_max":0,"o":"m 1068 396 l 1068 464 l 1040 464 l 1040 425 l 290 425 l 290 396 z m 1101 363 l 218 363 l 218 494 l 1101 494 z m 1158 306 l 1158 551 l 1043 551 l 1043 667 l 46 667 l 46 419 l 160 419 l 160 306 z "},"—":{"ha":1468,"x_min":0,"x_max":0,"o":"m 1346 396 l 1346 464 l 1318 464 l 1318 425 l 290 425 l 290 396 z m 1379 363 l 218 363 l 218 494 l 1379 494 z m 1436 306 l 1436 551 l 1321 551 l 1321 667 l 46 667 l 46 419 l 160 419 l 160 306 z "},"‘":{"ha":588,"x_min":0,"x_max":0,"o":"m 429 599 b 385 553 429 578 414 563 l 385 514 b 458 599 433 525 458 553 z m 504 622 b 360 479 504 543 439 479 b 217 622 281 479 217 543 b 360 765 217 701 281 765 l 360 622 z m 419 679 b 436 794 431 715 436 754 l 408 794 l 408 824 b 293 807 368 824 329 818 l 293 938 b 35 738 138 938 35 860 b 164 549 35 654 86 581 b 350 421 193 472 268 421 b 551 679 472 421 551 524 z "},"’":{"ha":588,"x_min":0,"x_max":0,"o":"m 429 622 b 385 553 429 585 414 563 l 385 514 b 458 622 433 525 458 561 z m 494 622 b 350 479 494 543 429 479 l 350 622 l 207 622 b 350 765 207 701 271 765 b 494 622 429 765 494 701 z m 551 622 b 424 810 551 706 501 781 b 236 938 394 888 319 938 b 35 679 110 938 35 825 l 168 679 b 150 565 156 644 150 606 l 178 565 l 178 536 b 293 553 219 536 258 542 l 293 421 b 551 622 443 421 551 497 z "},"‚":{"ha":583,"x_min":0,"x_max":0,"o":"m 428 139 b 385 67 428 99 414 75 l 385 39 b 461 126 421 39 461 94 b 460 139 461 132 461 136 z m 492 143 b 349 0 492 64 428 0 l 349 143 l 204 143 b 349 288 204 222 269 288 b 492 143 428 288 492 222 z m 549 143 b 421 332 549 226 499 300 b 233 460 392 408 317 460 b 32 201 110 460 32 351 l 164 201 b 147 86 153 165 147 126 l 176 86 l 176 57 b 290 74 217 57 256 63 l 290 -57 b 549 143 443 -57 549 19 z "},"“":{"ha":908,"x_min":0,"x_max":0,"o":"m 429 603 b 385 557 429 574 428 569 l 385 519 b 458 603 433 531 458 558 z m 757 603 b 713 557 757 574 756 569 l 713 519 b 786 603 761 531 786 558 z m 488 626 b 343 483 488 547 422 483 b 200 626 264 483 200 547 b 343 771 200 706 264 771 l 343 626 z m 822 626 b 678 483 822 547 760 483 b 535 626 599 483 535 547 b 678 771 535 706 599 771 l 678 626 z m 750 679 b 768 794 763 714 768 751 l 739 794 l 739 824 b 625 807 699 824 660 818 l 625 938 b 385 822 504 938 425 899 b 304 807 356 819 328 814 l 304 938 b 46 738 149 938 46 860 b 174 549 46 654 96 581 b 361 421 203 472 278 421 b 517 506 428 421 479 449 b 682 421 557 449 613 421 b 883 679 801 421 883 528 z "},"”":{"ha":908,"x_min":0,"x_max":0,"o":"m 429 622 b 385 553 429 585 414 563 l 385 514 b 458 622 433 525 458 561 z m 758 622 b 713 553 758 585 743 563 l 713 514 b 788 622 763 525 788 561 z m 494 622 b 350 479 494 543 429 479 l 350 622 l 207 622 b 350 765 207 701 271 765 b 494 622 429 765 494 701 z m 815 622 b 671 479 815 543 750 479 l 671 622 l 528 622 b 671 765 528 701 592 765 b 815 622 750 765 815 701 z m 872 622 b 744 810 872 706 822 781 b 557 938 713 888 639 938 b 401 853 490 938 439 910 b 236 938 361 910 306 938 b 35 679 110 938 35 825 l 168 679 b 150 565 156 644 150 606 l 178 565 l 178 536 b 293 553 219 536 258 542 l 293 421 b 532 538 414 421 493 460 b 614 553 563 539 590 544 l 614 421 b 872 622 764 421 872 497 z "},"„":{"ha":1032,"x_min":0,"x_max":0,"o":"m 549 143 b 540 201 549 163 546 182 l 621 201 b 604 86 610 165 604 126 l 633 86 l 633 57 b 747 74 674 57 713 63 l 747 -57 b 1006 143 900 -57 1006 19 b 878 332 1006 226 956 300 b 690 460 849 408 774 460 b 496 279 589 460 518 388 b 421 332 476 301 450 319 b 233 460 392 408 317 460 b 32 201 110 460 32 351 l 164 201 b 147 86 153 165 147 126 l 176 86 l 176 57 b 290 74 217 57 256 63 l 290 -57 b 549 143 443 -57 549 19 z m 492 143 b 349 0 492 64 428 0 l 349 143 l 204 143 b 349 288 204 222 269 288 b 492 143 428 288 492 222 z m 949 143 b 806 0 949 64 885 0 l 806 143 l 661 143 b 806 288 661 222 726 288 b 949 143 885 288 949 222 z m 885 139 b 842 67 885 99 871 75 l 842 39 b 918 126 878 39 918 94 b 917 139 918 132 918 136 z m 428 139 b 385 67 428 99 414 75 l 385 39 b 461 126 421 39 461 94 b 460 139 461 132 461 136 z "},"•":{"ha":658,"x_min":0,"x_max":0,"o":"m 617 383 b 329 669 617 540 488 669 b 42 383 172 669 42 543 b 329 96 42 225 171 96 b 617 383 489 96 617 228 z "},"…":{"ha":1751,"x_min":0,"x_max":0,"o":"m 425 133 b 381 64 425 96 410 74 l 381 36 b 453 133 429 49 453 81 z m 493 143 b 350 0 493 64 429 0 b 206 143 268 0 206 64 b 350 288 206 222 268 288 b 493 143 429 288 493 222 z m 550 143 b 422 332 550 226 500 300 b 235 460 390 408 318 460 b 33 258 126 460 33 371 b 163 71 33 175 85 100 b 350 -57 194 -7 267 -57 b 550 143 460 -57 550 32 z m 1008 133 b 964 64 1008 96 993 74 l 964 36 b 1036 133 1013 49 1036 81 z m 1076 143 b 933 0 1076 64 1013 0 b 789 143 851 0 789 64 b 933 288 789 222 851 288 b 1076 143 1013 288 1076 222 z m 1133 143 b 1006 332 1133 226 1083 300 b 818 460 974 408 901 460 b 617 258 710 460 617 371 b 746 71 617 175 668 100 b 933 -57 778 -7 850 -57 b 1133 143 1043 -57 1133 32 z m 1593 133 b 1549 64 1593 96 1578 74 l 1549 36 b 1621 133 1597 49 1621 81 z m 1661 143 b 1518 0 1661 64 1597 0 b 1374 143 1436 0 1374 64 b 1518 288 1374 222 1436 288 b 1661 143 1597 288 1661 222 z m 1718 143 b 1590 332 1718 226 1668 300 b 1403 460 1558 408 1486 460 b 1201 258 1294 460 1201 371 b 1331 71 1201 175 1253 100 b 1518 -57 1363 -7 1435 -57 b 1718 143 1628 -57 1718 32 z "},"‹":{"ha":583,"x_min":0,"x_max":0,"o":"m 454 533 l 454 299 l 268 417 z m 85 561 l 242 457 l 181 418 l 497 210 l 497 625 l 401 561 l 401 768 z "},"›":{"ha":531,"x_min":0,"x_max":0,"o":"m 231 529 l 414 411 l 231 303 z m 400 558 l 83 767 l 83 351 l 179 414 l 179 208 l 496 415 l 339 518 z "},"€":{"ha":997,"x_min":0,"x_max":0,"o":"m 907 272 l 958 272 l 958 474 l 868 474 l 978 529 b 801 747 932 625 872 697 b 443 938 708 874 589 938 b 3 497 203 938 3 738 b 196 133 3 353 74 217 b 558 -57 278 13 413 -57 b 978 238 740 -57 879 42 z m 674 354 l 931 354 l 931 307 l 711 307 l 901 211 b 558 0 835 82 707 0 b 175 383 346 0 175 171 b 558 765 175 590 349 765 b 901 554 708 765 836 688 l 682 444 l 931 444 l 931 394 l 674 394 z m 533 357 l 519 331 l 800 183 b 703 100 767 149 735 121 l 718 75 b 847 193 763 107 779 114 z m 526 403 l 840 565 l 828 592 l 514 429 z "},"™":{"ha":894,"x_min":0,"x_max":0,"o":"m 313 547 l 313 614 l 301 614 l 301 558 l 240 558 l 240 547 z m 389 778 l 389 818 l 378 818 l 378 790 l 326 790 l 326 778 z m 403 763 l 326 763 l 326 533 l 211 533 l 211 763 l 135 763 l 135 839 l 403 839 z m 426 740 l 426 863 l 381 863 l 381 908 l 67 908 l 67 786 l 113 786 l 113 740 l 143 740 l 143 556 l 189 556 l 189 511 l 350 511 l 350 740 z m 808 547 l 808 614 l 797 614 l 797 558 l 735 558 l 735 547 z m 821 533 l 514 533 l 514 839 l 668 686 l 821 839 z m 844 511 l 844 894 l 799 850 l 799 942 l 622 765 l 444 942 l 444 556 l 492 556 l 492 511 z "},"−":{"ha":924,"x_min":0,"x_max":0,"o":"m 788 396 l 788 464 l 758 464 l 758 425 l 290 425 l 290 396 z m 819 363 l 218 363 l 218 494 l 819 494 z m 878 306 l 878 551 l 763 551 l 763 667 l 46 667 l 46 419 l 160 419 l 160 306 z "},"":{"ha":996,"x_min":0,"x_max":0,"o":"m 532 357 l 519 331 l 799 183 b 703 100 765 149 735 121 l 718 75 b 847 193 763 107 779 114 z m 608 604 b 569 696 608 649 592 696 b 535 644 551 696 540 679 l 569 604 l 535 565 b 569 514 542 531 554 514 b 608 604 592 514 608 560 z m 713 644 b 678 696 706 679 694 696 b 640 604 656 696 640 650 b 678 514 640 558 656 514 b 713 565 694 514 706 531 l 678 604 z m 558 383 l 901 211 b 558 0 839 89 707 0 b 176 383 346 0 176 171 b 558 765 176 592 349 765 b 901 554 707 765 836 688 z m 979 529 b 801 747 933 625 874 697 b 444 938 708 874 589 938 b 3 497 204 938 3 739 b 194 133 3 349 74 217 b 558 -57 276 15 413 -57 b 978 238 740 -57 879 42 l 839 307 b 863 351 846 322 856 336 l 744 411 z "},"":{"ha":1000,"x_min":0,"x_max":0,"o":"m 861 404 b 557 257 815 332 674 257 b 254 404 451 257 304 326 l 233 385 b 557 229 283 303 443 229 b 882 385 671 229 831 301 z m 860 282 b 557 60 831 190 676 60 l 557 31 b 892 282 703 31 847 140 z m 536 604 b 497 696 536 650 521 696 b 463 644 479 696 468 679 l 497 604 l 463 565 b 497 514 469 531 482 514 b 536 604 521 514 536 558 z m 661 644 b 626 696 654 679 642 696 b 588 604 601 696 588 650 b 626 514 588 558 603 514 b 661 565 642 514 654 531 l 626 604 z m 940 383 b 557 0 940 169 769 0 b 175 383 346 0 175 171 b 557 765 175 590 350 765 b 940 383 771 765 940 594 z m 997 383 b 807 747 997 533 928 665 b 443 938 724 868 592 938 b 3 497 203 938 3 738 b 194 133 3 349 74 217 b 557 -57 276 15 408 -57 b 997 383 801 -57 997 139 z "},"":{"ha":842,"x_min":0,"x_max":0,"o":"m 408 467 l 65 296 b 408 83 128 171 263 83 b 790 467 621 83 790 256 b 408 850 790 676 615 850 b 65 638 258 850 132 772 z "}}}
